G04 EAGLE Gerber RS-274X export*
G75*
%MOMM*%
%FSLAX34Y34*%
%LPD*%
%IN*%
%IPPOS*%
%AMOC8*
5,1,8,0,0,1.08239X$1,22.5*%
G01*
%ADD10C,0.254000*%


D10*
X-20000Y90000D02*
X370000Y90000D01*
X400000Y0D01*
X630000Y0D01*
X690000Y30000D01*
X790000Y300000D01*
X790000Y500000D01*
X700000Y770000D01*
X630000Y800000D01*
X400000Y800000D01*
X370000Y710000D01*
X-20000Y710000D01*
X-20000Y610000D01*
X0Y600000D01*
X0Y210000D01*
X-20000Y190000D01*
X-20000Y90000D01*
X55337Y425650D02*
X54915Y425706D01*
X54503Y425816D01*
X54109Y425979D01*
X53741Y426192D01*
X53403Y426451D01*
X53101Y426753D01*
X52842Y427091D01*
X52629Y427459D01*
X52466Y427853D01*
X52356Y428265D01*
X52300Y428687D01*
X52300Y429113D01*
X52356Y429535D01*
X52466Y429947D01*
X52629Y430341D01*
X52842Y430709D01*
X53101Y431047D01*
X53403Y431349D01*
X53741Y431608D01*
X54109Y431821D01*
X54503Y431984D01*
X54915Y432094D01*
X55337Y432150D01*
X55763Y432150D01*
X56185Y432094D01*
X56597Y431984D01*
X56991Y431821D01*
X57359Y431608D01*
X57697Y431349D01*
X57999Y431047D01*
X58258Y430709D01*
X58471Y430341D01*
X58634Y429947D01*
X58744Y429535D01*
X58800Y429113D01*
X58800Y428687D01*
X58744Y428265D01*
X58634Y427853D01*
X58471Y427459D01*
X58258Y427091D01*
X57999Y426753D01*
X57697Y426451D01*
X57359Y426192D01*
X56991Y425979D01*
X56597Y425816D01*
X56185Y425706D01*
X55763Y425650D01*
X55337Y425650D01*
X55337Y367850D02*
X54915Y367906D01*
X54503Y368016D01*
X54109Y368179D01*
X53741Y368392D01*
X53403Y368651D01*
X53101Y368953D01*
X52842Y369291D01*
X52629Y369659D01*
X52466Y370053D01*
X52356Y370465D01*
X52300Y370887D01*
X52300Y371313D01*
X52356Y371735D01*
X52466Y372147D01*
X52629Y372541D01*
X52842Y372909D01*
X53101Y373247D01*
X53403Y373549D01*
X53741Y373808D01*
X54109Y374021D01*
X54503Y374184D01*
X54915Y374294D01*
X55337Y374350D01*
X55763Y374350D01*
X56185Y374294D01*
X56597Y374184D01*
X56991Y374021D01*
X57359Y373808D01*
X57697Y373549D01*
X57999Y373247D01*
X58258Y372909D01*
X58471Y372541D01*
X58634Y372147D01*
X58744Y371735D01*
X58800Y371313D01*
X58800Y370887D01*
X58744Y370465D01*
X58634Y370053D01*
X58471Y369659D01*
X58258Y369291D01*
X57999Y368953D01*
X57697Y368651D01*
X57359Y368392D01*
X56991Y368179D01*
X56597Y368016D01*
X56185Y367906D01*
X55763Y367850D01*
X55337Y367850D01*
X774000Y399500D02*
X773929Y398503D01*
X773786Y397513D01*
X773574Y396536D01*
X773292Y395576D01*
X772943Y394639D01*
X772527Y393729D01*
X772048Y392852D01*
X771507Y392010D01*
X770908Y391210D01*
X770253Y390454D01*
X769546Y389747D01*
X768790Y389092D01*
X767990Y388493D01*
X767148Y387952D01*
X766271Y387473D01*
X765361Y387057D01*
X764424Y386708D01*
X763465Y386426D01*
X762487Y386214D01*
X761498Y386071D01*
X760500Y386000D01*
X759500Y386000D01*
X758503Y386071D01*
X757513Y386214D01*
X756536Y386426D01*
X755576Y386708D01*
X754639Y387057D01*
X753729Y387473D01*
X752852Y387952D01*
X752010Y388493D01*
X751210Y389092D01*
X750454Y389747D01*
X749747Y390454D01*
X749092Y391210D01*
X748493Y392010D01*
X747952Y392852D01*
X747473Y393729D01*
X747057Y394639D01*
X746708Y395576D01*
X746426Y396536D01*
X746214Y397513D01*
X746071Y398503D01*
X746000Y399500D01*
X746000Y400500D01*
X746071Y401498D01*
X746214Y402487D01*
X746426Y403465D01*
X746708Y404424D01*
X747057Y405361D01*
X747473Y406271D01*
X747952Y407148D01*
X748493Y407990D01*
X749092Y408790D01*
X749747Y409546D01*
X750454Y410253D01*
X751210Y410908D01*
X752010Y411507D01*
X752852Y412048D01*
X753729Y412527D01*
X754639Y412943D01*
X755576Y413292D01*
X756536Y413574D01*
X757513Y413786D01*
X758503Y413929D01*
X759500Y414000D01*
X760500Y414000D01*
X761498Y413929D01*
X762487Y413786D01*
X763465Y413574D01*
X764424Y413292D01*
X765361Y412943D01*
X766271Y412527D01*
X767148Y412048D01*
X767990Y411507D01*
X768790Y410908D01*
X769546Y410253D01*
X770253Y409546D01*
X770908Y408790D01*
X771507Y407990D01*
X772048Y407148D01*
X772527Y406271D01*
X772943Y405361D01*
X773292Y404424D01*
X773574Y403465D01*
X773786Y402487D01*
X773929Y401498D01*
X774000Y400500D01*
X774000Y399500D01*
X69464Y655000D02*
X68396Y655076D01*
X67335Y655229D01*
X66288Y655457D01*
X65260Y655759D01*
X64256Y656133D01*
X63281Y656578D01*
X62341Y657092D01*
X61440Y657671D01*
X60582Y658313D01*
X59772Y659015D01*
X59015Y659772D01*
X58313Y660582D01*
X57671Y661440D01*
X57092Y662341D01*
X56578Y663281D01*
X56133Y664256D01*
X55759Y665260D01*
X55457Y666288D01*
X55229Y667335D01*
X55076Y668396D01*
X55000Y669464D01*
X55000Y670536D01*
X55076Y671604D01*
X55229Y672665D01*
X55457Y673712D01*
X55759Y674740D01*
X56133Y675744D01*
X56578Y676719D01*
X57092Y677659D01*
X57671Y678560D01*
X58313Y679418D01*
X59015Y680228D01*
X59772Y680985D01*
X60582Y681687D01*
X61440Y682329D01*
X62341Y682908D01*
X63281Y683422D01*
X64256Y683867D01*
X65260Y684241D01*
X66288Y684543D01*
X67335Y684771D01*
X68396Y684924D01*
X69464Y685000D01*
X70536Y685000D01*
X71604Y684924D01*
X72665Y684771D01*
X73712Y684543D01*
X74740Y684241D01*
X75744Y683867D01*
X76719Y683422D01*
X77659Y682908D01*
X78560Y682329D01*
X79418Y681687D01*
X80228Y680985D01*
X80985Y680228D01*
X81687Y679418D01*
X82329Y678560D01*
X82908Y677659D01*
X83422Y676719D01*
X83867Y675744D01*
X84241Y674740D01*
X84543Y673712D01*
X84771Y672665D01*
X84924Y671604D01*
X85000Y670536D01*
X85000Y669464D01*
X84924Y668396D01*
X84771Y667335D01*
X84543Y666288D01*
X84241Y665260D01*
X83867Y664256D01*
X83422Y663281D01*
X82908Y662341D01*
X82329Y661440D01*
X81687Y660582D01*
X80985Y659772D01*
X80228Y659015D01*
X79418Y658313D01*
X78560Y657671D01*
X77659Y657092D01*
X76719Y656578D01*
X75744Y656133D01*
X74740Y655759D01*
X73712Y655457D01*
X72665Y655229D01*
X71604Y655076D01*
X70536Y655000D01*
X69464Y655000D01*
X309464Y655000D02*
X308396Y655076D01*
X307335Y655229D01*
X306288Y655457D01*
X305260Y655759D01*
X304256Y656133D01*
X303281Y656578D01*
X302341Y657092D01*
X301440Y657671D01*
X300582Y658313D01*
X299772Y659015D01*
X299015Y659772D01*
X298313Y660582D01*
X297671Y661440D01*
X297092Y662341D01*
X296578Y663281D01*
X296133Y664256D01*
X295759Y665260D01*
X295457Y666288D01*
X295229Y667335D01*
X295076Y668396D01*
X295000Y669464D01*
X295000Y670536D01*
X295076Y671604D01*
X295229Y672665D01*
X295457Y673712D01*
X295759Y674740D01*
X296133Y675744D01*
X296578Y676719D01*
X297092Y677659D01*
X297671Y678560D01*
X298313Y679418D01*
X299015Y680228D01*
X299772Y680985D01*
X300582Y681687D01*
X301440Y682329D01*
X302341Y682908D01*
X303281Y683422D01*
X304256Y683867D01*
X305260Y684241D01*
X306288Y684543D01*
X307335Y684771D01*
X308396Y684924D01*
X309464Y685000D01*
X310536Y685000D01*
X311604Y684924D01*
X312665Y684771D01*
X313712Y684543D01*
X314740Y684241D01*
X315744Y683867D01*
X316719Y683422D01*
X317659Y682908D01*
X318560Y682329D01*
X319418Y681687D01*
X320228Y680985D01*
X320985Y680228D01*
X321687Y679418D01*
X322329Y678560D01*
X322908Y677659D01*
X323422Y676719D01*
X323867Y675744D01*
X324241Y674740D01*
X324543Y673712D01*
X324771Y672665D01*
X324924Y671604D01*
X325000Y670536D01*
X325000Y669464D01*
X324924Y668396D01*
X324771Y667335D01*
X324543Y666288D01*
X324241Y665260D01*
X323867Y664256D01*
X323422Y663281D01*
X322908Y662341D01*
X322329Y661440D01*
X321687Y660582D01*
X320985Y659772D01*
X320228Y659015D01*
X319418Y658313D01*
X318560Y657671D01*
X317659Y657092D01*
X316719Y656578D01*
X315744Y656133D01*
X314740Y655759D01*
X313712Y655457D01*
X312665Y655229D01*
X311604Y655076D01*
X310536Y655000D01*
X309464Y655000D01*
X310536Y145000D02*
X311604Y144924D01*
X312665Y144771D01*
X313712Y144543D01*
X314740Y144241D01*
X315744Y143867D01*
X316719Y143422D01*
X317659Y142908D01*
X318560Y142329D01*
X319418Y141687D01*
X320228Y140985D01*
X320985Y140228D01*
X321687Y139418D01*
X322329Y138560D01*
X322908Y137659D01*
X323422Y136719D01*
X323867Y135744D01*
X324241Y134740D01*
X324543Y133712D01*
X324771Y132665D01*
X324924Y131604D01*
X325000Y130536D01*
X325000Y129464D01*
X324924Y128396D01*
X324771Y127335D01*
X324543Y126288D01*
X324241Y125260D01*
X323867Y124256D01*
X323422Y123281D01*
X322908Y122341D01*
X322329Y121440D01*
X321687Y120582D01*
X320985Y119772D01*
X320228Y119015D01*
X319418Y118313D01*
X318560Y117671D01*
X317659Y117092D01*
X316719Y116578D01*
X315744Y116133D01*
X314740Y115759D01*
X313712Y115457D01*
X312665Y115229D01*
X311604Y115076D01*
X310536Y115000D01*
X309464Y115000D01*
X308396Y115076D01*
X307335Y115229D01*
X306288Y115457D01*
X305260Y115759D01*
X304256Y116133D01*
X303281Y116578D01*
X302341Y117092D01*
X301440Y117671D01*
X300582Y118313D01*
X299772Y119015D01*
X299015Y119772D01*
X298313Y120582D01*
X297671Y121440D01*
X297092Y122341D01*
X296578Y123281D01*
X296133Y124256D01*
X295759Y125260D01*
X295457Y126288D01*
X295229Y127335D01*
X295076Y128396D01*
X295000Y129464D01*
X295000Y130536D01*
X295076Y131604D01*
X295229Y132665D01*
X295457Y133712D01*
X295759Y134740D01*
X296133Y135744D01*
X296578Y136719D01*
X297092Y137659D01*
X297671Y138560D01*
X298313Y139418D01*
X299015Y140228D01*
X299772Y140985D01*
X300582Y141687D01*
X301440Y142329D01*
X302341Y142908D01*
X303281Y143422D01*
X304256Y143867D01*
X305260Y144241D01*
X306288Y144543D01*
X307335Y144771D01*
X308396Y144924D01*
X309464Y145000D01*
X310536Y145000D01*
X70536Y145000D02*
X71604Y144924D01*
X72665Y144771D01*
X73712Y144543D01*
X74740Y144241D01*
X75744Y143867D01*
X76719Y143422D01*
X77659Y142908D01*
X78560Y142329D01*
X79418Y141687D01*
X80228Y140985D01*
X80985Y140228D01*
X81687Y139418D01*
X82329Y138560D01*
X82908Y137659D01*
X83422Y136719D01*
X83867Y135744D01*
X84241Y134740D01*
X84543Y133712D01*
X84771Y132665D01*
X84924Y131604D01*
X85000Y130536D01*
X85000Y129464D01*
X84924Y128396D01*
X84771Y127335D01*
X84543Y126288D01*
X84241Y125260D01*
X83867Y124256D01*
X83422Y123281D01*
X82908Y122341D01*
X82329Y121440D01*
X81687Y120582D01*
X80985Y119772D01*
X80228Y119015D01*
X79418Y118313D01*
X78560Y117671D01*
X77659Y117092D01*
X76719Y116578D01*
X75744Y116133D01*
X74740Y115759D01*
X73712Y115457D01*
X72665Y115229D01*
X71604Y115076D01*
X70536Y115000D01*
X69464Y115000D01*
X68396Y115076D01*
X67335Y115229D01*
X66288Y115457D01*
X65260Y115759D01*
X64256Y116133D01*
X63281Y116578D01*
X62341Y117092D01*
X61440Y117671D01*
X60582Y118313D01*
X59772Y119015D01*
X59015Y119772D01*
X58313Y120582D01*
X57671Y121440D01*
X57092Y122341D01*
X56578Y123281D01*
X56133Y124256D01*
X55759Y125260D01*
X55457Y126288D01*
X55229Y127335D01*
X55076Y128396D01*
X55000Y129464D01*
X55000Y130536D01*
X55076Y131604D01*
X55229Y132665D01*
X55457Y133712D01*
X55759Y134740D01*
X56133Y135744D01*
X56578Y136719D01*
X57092Y137659D01*
X57671Y138560D01*
X58313Y139418D01*
X59015Y140228D01*
X59772Y140985D01*
X60582Y141687D01*
X61440Y142329D01*
X62341Y142908D01*
X63281Y143422D01*
X64256Y143867D01*
X65260Y144241D01*
X66288Y144543D01*
X67335Y144771D01*
X68396Y144924D01*
X69464Y145000D01*
X70536Y145000D01*
M02*
