G04 EAGLE Gerber RS-274X export*
G75*
%MOMM*%
%FSLAX34Y34*%
%LPD*%
%INSilkscreen Top*%
%IPPOS*%
%AMOC8*
5,1,8,0,0,1.08239X$1,22.5*%
G01*
%ADD10R,1.000000X1.000000*%
%ADD11C,0.152400*%
%ADD12C,1.000000*%
%ADD13C,0.127000*%
%ADD14C,0.050800*%
%ADD15R,2.500000X0.500000*%
%ADD16C,0.203200*%
%ADD17C,0.400000*%
%ADD18R,0.325000X0.425000*%
%ADD19R,0.350000X0.350000*%
%ADD20C,0.101600*%

G36*
X379293Y465408D02*
X379293Y465408D01*
X379295Y465408D01*
X379378Y465445D01*
X381174Y467241D01*
X381175Y467243D01*
X381177Y467243D01*
X381194Y467288D01*
X381211Y467332D01*
X381210Y467334D01*
X381211Y467336D01*
X381174Y467419D01*
X378480Y470113D01*
X378478Y470114D01*
X378477Y470116D01*
X378433Y470132D01*
X378389Y470150D01*
X378387Y470149D01*
X378385Y470150D01*
X378302Y470113D01*
X376506Y468317D01*
X376505Y468315D01*
X376503Y468314D01*
X376486Y468270D01*
X376469Y468226D01*
X376470Y468224D01*
X376469Y468222D01*
X376506Y468139D01*
X379200Y465445D01*
X379202Y465444D01*
X379203Y465442D01*
X379247Y465425D01*
X379291Y465408D01*
X379293Y465408D01*
G37*
G36*
X280611Y373797D02*
X280611Y373797D01*
X280613Y373796D01*
X280696Y373833D01*
X282492Y375629D01*
X282493Y375631D01*
X282495Y375632D01*
X282511Y375677D01*
X282529Y375721D01*
X282528Y375723D01*
X282529Y375725D01*
X282492Y375808D01*
X279798Y378502D01*
X279796Y378503D01*
X279795Y378505D01*
X279750Y378521D01*
X279707Y378539D01*
X279705Y378538D01*
X279703Y378539D01*
X279619Y378502D01*
X277823Y376706D01*
X277822Y376704D01*
X277820Y376703D01*
X277804Y376658D01*
X277786Y376615D01*
X277787Y376613D01*
X277786Y376610D01*
X277823Y376527D01*
X280517Y373833D01*
X280519Y373832D01*
X280520Y373830D01*
X280565Y373814D01*
X280609Y373796D01*
X280611Y373797D01*
G37*
G36*
X304461Y447731D02*
X304461Y447731D01*
X304463Y447730D01*
X304547Y447767D01*
X307241Y450461D01*
X307241Y450463D01*
X307243Y450464D01*
X307260Y450508D01*
X307278Y450552D01*
X307277Y450554D01*
X307277Y450556D01*
X307241Y450639D01*
X305445Y452436D01*
X305443Y452436D01*
X305442Y452438D01*
X305397Y452455D01*
X305353Y452472D01*
X305351Y452472D01*
X305349Y452472D01*
X305266Y452436D01*
X302572Y449741D01*
X302571Y449739D01*
X302569Y449739D01*
X302553Y449694D01*
X302535Y449650D01*
X302536Y449648D01*
X302535Y449646D01*
X302572Y449563D01*
X304368Y447767D01*
X304370Y447766D01*
X304371Y447764D01*
X304416Y447748D01*
X304459Y447730D01*
X304461Y447731D01*
G37*
G36*
X414648Y430053D02*
X414648Y430053D01*
X414650Y430052D01*
X414734Y430089D01*
X416530Y431885D01*
X416530Y431887D01*
X416532Y431888D01*
X416549Y431933D01*
X416567Y431977D01*
X416566Y431979D01*
X416566Y431981D01*
X416530Y432064D01*
X413836Y434758D01*
X413834Y434759D01*
X413833Y434761D01*
X413788Y434777D01*
X413744Y434795D01*
X413742Y434794D01*
X413740Y434795D01*
X413657Y434758D01*
X411861Y432962D01*
X411860Y432960D01*
X411858Y432959D01*
X411842Y432914D01*
X411824Y432871D01*
X411825Y432869D01*
X411824Y432866D01*
X411861Y432783D01*
X414555Y430089D01*
X414557Y430088D01*
X414558Y430086D01*
X414603Y430070D01*
X414646Y430052D01*
X414648Y430053D01*
G37*
G36*
X403144Y356119D02*
X403144Y356119D01*
X403146Y356119D01*
X403229Y356156D01*
X405923Y358850D01*
X405924Y358852D01*
X405926Y358853D01*
X405942Y358897D01*
X405960Y358941D01*
X405959Y358943D01*
X405960Y358945D01*
X405923Y359028D01*
X404127Y360824D01*
X404125Y360825D01*
X404124Y360827D01*
X404080Y360843D01*
X404036Y360861D01*
X404034Y360860D01*
X404032Y360861D01*
X403948Y360824D01*
X401254Y358130D01*
X401254Y358128D01*
X401252Y358127D01*
X401235Y358083D01*
X401217Y358039D01*
X401218Y358037D01*
X401218Y358035D01*
X401254Y357952D01*
X403050Y356156D01*
X403052Y356155D01*
X403053Y356153D01*
X403098Y356136D01*
X403142Y356119D01*
X403144Y356119D01*
G37*
G36*
X315966Y338442D02*
X315966Y338442D01*
X315968Y338441D01*
X316051Y338478D01*
X317847Y340274D01*
X317848Y340276D01*
X317850Y340277D01*
X317866Y340321D01*
X317884Y340365D01*
X317883Y340367D01*
X317884Y340369D01*
X317847Y340452D01*
X315153Y343147D01*
X315151Y343147D01*
X315150Y343149D01*
X315106Y343166D01*
X315062Y343183D01*
X315060Y343183D01*
X315058Y343183D01*
X314975Y343147D01*
X313179Y341350D01*
X313178Y341348D01*
X313176Y341348D01*
X313159Y341303D01*
X313142Y341259D01*
X313143Y341257D01*
X313142Y341255D01*
X313179Y341172D01*
X315873Y338478D01*
X315875Y338477D01*
X315876Y338475D01*
X315920Y338459D01*
X315964Y338441D01*
X315966Y338442D01*
G37*
D10*
X152808Y542432D03*
X222808Y255480D03*
X356712Y322808D03*
D11*
X7215Y700132D02*
X-3622Y700132D01*
X1797Y705550D02*
X1797Y694713D01*
X1785Y615710D02*
X6301Y615710D01*
X1785Y615710D02*
X1684Y615712D01*
X1583Y615718D01*
X1482Y615727D01*
X1381Y615740D01*
X1281Y615757D01*
X1182Y615778D01*
X1084Y615802D01*
X987Y615830D01*
X890Y615862D01*
X795Y615897D01*
X702Y615936D01*
X610Y615978D01*
X519Y616024D01*
X431Y616073D01*
X344Y616125D01*
X259Y616181D01*
X176Y616239D01*
X96Y616301D01*
X18Y616366D01*
X-58Y616433D01*
X-131Y616503D01*
X-201Y616576D01*
X-268Y616652D01*
X-333Y616730D01*
X-395Y616810D01*
X-453Y616893D01*
X-509Y616978D01*
X-561Y617065D01*
X-610Y617153D01*
X-656Y617244D01*
X-698Y617336D01*
X-737Y617429D01*
X-772Y617524D01*
X-804Y617621D01*
X-832Y617718D01*
X-856Y617816D01*
X-877Y617915D01*
X-894Y618015D01*
X-907Y618116D01*
X-916Y618217D01*
X-922Y618318D01*
X-924Y618419D01*
X-924Y623838D01*
X-922Y623939D01*
X-916Y624040D01*
X-907Y624141D01*
X-894Y624242D01*
X-877Y624342D01*
X-856Y624441D01*
X-832Y624539D01*
X-804Y624636D01*
X-772Y624733D01*
X-737Y624828D01*
X-698Y624921D01*
X-656Y625013D01*
X-610Y625104D01*
X-561Y625193D01*
X-509Y625279D01*
X-453Y625364D01*
X-395Y625447D01*
X-333Y625527D01*
X-268Y625605D01*
X-201Y625681D01*
X-131Y625754D01*
X-58Y625824D01*
X18Y625891D01*
X96Y625956D01*
X176Y626018D01*
X259Y626076D01*
X344Y626132D01*
X431Y626184D01*
X519Y626233D01*
X610Y626279D01*
X702Y626321D01*
X795Y626360D01*
X890Y626395D01*
X987Y626427D01*
X1084Y626455D01*
X1182Y626479D01*
X1281Y626500D01*
X1381Y626517D01*
X1482Y626530D01*
X1583Y626539D01*
X1684Y626545D01*
X1785Y626547D01*
X6301Y626547D01*
X6301Y613001D01*
X6300Y613001D02*
X6298Y612897D01*
X6292Y612794D01*
X6282Y612690D01*
X6268Y612587D01*
X6250Y612485D01*
X6229Y612384D01*
X6203Y612283D01*
X6174Y612184D01*
X6141Y612085D01*
X6104Y611988D01*
X6063Y611893D01*
X6019Y611799D01*
X5971Y611707D01*
X5920Y611617D01*
X5865Y611528D01*
X5807Y611442D01*
X5745Y611359D01*
X5681Y611277D01*
X5613Y611199D01*
X5543Y611123D01*
X5470Y611049D01*
X5393Y610979D01*
X5315Y610911D01*
X5233Y610847D01*
X5150Y610785D01*
X5064Y610727D01*
X4975Y610672D01*
X4885Y610621D01*
X4793Y610573D01*
X4699Y610529D01*
X4604Y610488D01*
X4507Y610451D01*
X4408Y610418D01*
X4309Y610389D01*
X4208Y610363D01*
X4107Y610342D01*
X4005Y610324D01*
X3902Y610310D01*
X3798Y610300D01*
X3695Y610294D01*
X3591Y610292D01*
X3591Y610291D02*
X-21Y610291D01*
X13738Y615710D02*
X13738Y626547D01*
X18254Y626547D01*
X18358Y626545D01*
X18461Y626539D01*
X18565Y626529D01*
X18668Y626515D01*
X18770Y626497D01*
X18871Y626476D01*
X18972Y626450D01*
X19071Y626421D01*
X19170Y626388D01*
X19267Y626351D01*
X19362Y626310D01*
X19456Y626266D01*
X19548Y626218D01*
X19638Y626167D01*
X19727Y626112D01*
X19813Y626054D01*
X19896Y625992D01*
X19978Y625928D01*
X20056Y625860D01*
X20132Y625790D01*
X20206Y625717D01*
X20276Y625640D01*
X20344Y625562D01*
X20408Y625480D01*
X20470Y625397D01*
X20528Y625311D01*
X20583Y625222D01*
X20634Y625132D01*
X20682Y625040D01*
X20726Y624946D01*
X20767Y624851D01*
X20804Y624754D01*
X20837Y624655D01*
X20866Y624556D01*
X20892Y624455D01*
X20913Y624354D01*
X20931Y624252D01*
X20945Y624149D01*
X20955Y624045D01*
X20961Y623942D01*
X20963Y623838D01*
X20963Y615710D01*
X34958Y615710D02*
X34958Y631966D01*
X34958Y615710D02*
X30442Y615710D01*
X30341Y615712D01*
X30240Y615718D01*
X30139Y615727D01*
X30038Y615740D01*
X29938Y615757D01*
X29839Y615778D01*
X29741Y615802D01*
X29644Y615830D01*
X29547Y615862D01*
X29452Y615897D01*
X29359Y615936D01*
X29267Y615978D01*
X29176Y616024D01*
X29088Y616073D01*
X29001Y616125D01*
X28916Y616181D01*
X28833Y616239D01*
X28753Y616301D01*
X28675Y616366D01*
X28599Y616433D01*
X28526Y616503D01*
X28456Y616576D01*
X28389Y616652D01*
X28324Y616730D01*
X28262Y616810D01*
X28204Y616893D01*
X28148Y616978D01*
X28096Y617065D01*
X28047Y617153D01*
X28001Y617244D01*
X27959Y617336D01*
X27920Y617429D01*
X27885Y617524D01*
X27853Y617621D01*
X27825Y617718D01*
X27801Y617816D01*
X27780Y617915D01*
X27763Y618015D01*
X27750Y618116D01*
X27741Y618217D01*
X27735Y618318D01*
X27733Y618419D01*
X27733Y623838D01*
X27735Y623939D01*
X27741Y624040D01*
X27750Y624141D01*
X27763Y624242D01*
X27780Y624342D01*
X27801Y624441D01*
X27825Y624539D01*
X27853Y624636D01*
X27885Y624733D01*
X27920Y624828D01*
X27959Y624921D01*
X28001Y625013D01*
X28047Y625104D01*
X28096Y625193D01*
X28148Y625279D01*
X28204Y625364D01*
X28262Y625447D01*
X28324Y625527D01*
X28389Y625605D01*
X28456Y625681D01*
X28526Y625754D01*
X28599Y625824D01*
X28675Y625891D01*
X28753Y625956D01*
X28833Y626018D01*
X28916Y626076D01*
X29001Y626132D01*
X29088Y626184D01*
X29176Y626233D01*
X29267Y626279D01*
X29359Y626321D01*
X29452Y626360D01*
X29547Y626395D01*
X29644Y626427D01*
X29741Y626455D01*
X29839Y626479D01*
X29938Y626500D01*
X30038Y626517D01*
X30139Y626530D01*
X30240Y626539D01*
X30341Y626545D01*
X30442Y626547D01*
X34958Y626547D01*
X561289Y155173D02*
X568952Y147510D01*
X561289Y155173D02*
X565120Y159004D01*
X566398Y157727D01*
X578176Y156734D02*
X581369Y159927D01*
X578177Y156734D02*
X578102Y156662D01*
X578024Y156593D01*
X577944Y156527D01*
X577862Y156464D01*
X577777Y156405D01*
X577690Y156348D01*
X577600Y156295D01*
X577509Y156246D01*
X577416Y156200D01*
X577322Y156157D01*
X577225Y156118D01*
X577128Y156083D01*
X577029Y156052D01*
X576929Y156025D01*
X576828Y156001D01*
X576726Y155981D01*
X576623Y155965D01*
X576520Y155953D01*
X576417Y155945D01*
X576313Y155941D01*
X576209Y155941D01*
X576105Y155945D01*
X576002Y155953D01*
X575899Y155965D01*
X575796Y155981D01*
X575694Y156001D01*
X575593Y156025D01*
X575493Y156052D01*
X575394Y156083D01*
X575297Y156118D01*
X575200Y156157D01*
X575106Y156200D01*
X575013Y156246D01*
X574922Y156295D01*
X574832Y156348D01*
X574745Y156405D01*
X574660Y156464D01*
X574578Y156527D01*
X574498Y156593D01*
X574420Y156662D01*
X574345Y156734D01*
X571152Y159927D01*
X571069Y160013D01*
X570989Y160101D01*
X570912Y160192D01*
X570837Y160286D01*
X570766Y160382D01*
X570699Y160480D01*
X570634Y160581D01*
X570573Y160684D01*
X570515Y160788D01*
X570461Y160895D01*
X570410Y161003D01*
X570363Y161113D01*
X570320Y161224D01*
X570280Y161336D01*
X570244Y161450D01*
X570212Y161565D01*
X570184Y161681D01*
X570159Y161798D01*
X570138Y161916D01*
X570122Y162034D01*
X570109Y162153D01*
X570100Y162272D01*
X570095Y162391D01*
X570094Y162511D01*
X570097Y162630D01*
X570104Y162750D01*
X570115Y162868D01*
X570130Y162987D01*
X570148Y163105D01*
X570171Y163222D01*
X570197Y163339D01*
X570228Y163454D01*
X570262Y163569D01*
X570300Y163682D01*
X570341Y163794D01*
X570386Y163905D01*
X570435Y164014D01*
X570488Y164121D01*
X570544Y164226D01*
X570603Y164330D01*
X570666Y164432D01*
X570732Y164531D01*
X570801Y164628D01*
X570874Y164723D01*
X570950Y164815D01*
X571028Y164905D01*
X571110Y164992D01*
X571195Y165077D01*
X571282Y165159D01*
X571372Y165237D01*
X571464Y165313D01*
X571559Y165386D01*
X571656Y165455D01*
X571756Y165521D01*
X571857Y165584D01*
X571961Y165643D01*
X572066Y165699D01*
X572174Y165752D01*
X572282Y165801D01*
X572393Y165846D01*
X572505Y165887D01*
X572618Y165925D01*
X572733Y165959D01*
X572848Y165990D01*
X572965Y166016D01*
X573082Y166039D01*
X573200Y166057D01*
X573319Y166072D01*
X573438Y166083D01*
X573557Y166090D01*
X573676Y166093D01*
X573796Y166092D01*
X573915Y166087D01*
X574034Y166078D01*
X574153Y166065D01*
X574271Y166049D01*
X574389Y166028D01*
X574506Y166003D01*
X574622Y165975D01*
X574737Y165943D01*
X574851Y165907D01*
X574963Y165867D01*
X575074Y165824D01*
X575184Y165777D01*
X575292Y165726D01*
X575399Y165672D01*
X575503Y165614D01*
X575606Y165553D01*
X575707Y165488D01*
X575805Y165421D01*
X575901Y165350D01*
X575995Y165275D01*
X576086Y165198D01*
X576174Y165118D01*
X576260Y165035D01*
X576261Y165036D02*
X577538Y163759D01*
X572429Y158650D01*
X582327Y169825D02*
X586798Y171741D01*
X582328Y169825D02*
X582239Y169790D01*
X582149Y169757D01*
X582058Y169729D01*
X581965Y169704D01*
X581872Y169683D01*
X581778Y169666D01*
X581683Y169653D01*
X581588Y169643D01*
X581493Y169638D01*
X581397Y169636D01*
X581302Y169638D01*
X581206Y169644D01*
X581111Y169654D01*
X581017Y169668D01*
X580923Y169686D01*
X580830Y169708D01*
X580738Y169733D01*
X580647Y169762D01*
X580557Y169795D01*
X580468Y169831D01*
X580382Y169871D01*
X580297Y169915D01*
X580213Y169962D01*
X580132Y170012D01*
X580053Y170066D01*
X579976Y170123D01*
X579901Y170182D01*
X579829Y170245D01*
X579760Y170311D01*
X579693Y170379D01*
X579630Y170451D01*
X579569Y170524D01*
X579511Y170600D01*
X579456Y170679D01*
X579405Y170759D01*
X579357Y170842D01*
X579312Y170927D01*
X579271Y171013D01*
X579234Y171101D01*
X579200Y171190D01*
X579169Y171281D01*
X579143Y171373D01*
X579120Y171465D01*
X579101Y171559D01*
X579086Y171653D01*
X579074Y171748D01*
X579067Y171844D01*
X579063Y171939D01*
X579064Y172035D01*
X579068Y172130D01*
X579076Y172225D01*
X579088Y172320D01*
X579104Y172414D01*
X579124Y172508D01*
X579147Y172601D01*
X579175Y172692D01*
X579206Y172783D01*
X579240Y172872D01*
X579279Y172959D01*
X579320Y173045D01*
X579366Y173129D01*
X579414Y173212D01*
X579466Y173292D01*
X579521Y173370D01*
X579580Y173446D01*
X579641Y173519D01*
X579706Y173590D01*
X579773Y173658D01*
X579773Y173657D02*
X579952Y173827D01*
X580135Y173992D01*
X580322Y174153D01*
X580513Y174309D01*
X580707Y174461D01*
X580905Y174608D01*
X581106Y174750D01*
X581311Y174888D01*
X581519Y175020D01*
X581730Y175148D01*
X581945Y175270D01*
X582162Y175387D01*
X582381Y175499D01*
X582604Y175605D01*
X582829Y175706D01*
X583056Y175802D01*
X583286Y175892D01*
X586797Y171742D02*
X586886Y171777D01*
X586976Y171810D01*
X587067Y171838D01*
X587160Y171863D01*
X587253Y171884D01*
X587347Y171901D01*
X587442Y171914D01*
X587537Y171924D01*
X587632Y171929D01*
X587728Y171931D01*
X587823Y171929D01*
X587919Y171923D01*
X588014Y171913D01*
X588108Y171899D01*
X588202Y171881D01*
X588295Y171859D01*
X588387Y171834D01*
X588478Y171805D01*
X588568Y171772D01*
X588657Y171736D01*
X588743Y171696D01*
X588828Y171652D01*
X588912Y171605D01*
X588993Y171555D01*
X589072Y171501D01*
X589149Y171444D01*
X589224Y171385D01*
X589296Y171322D01*
X589365Y171256D01*
X589432Y171188D01*
X589495Y171116D01*
X589556Y171043D01*
X589614Y170967D01*
X589669Y170888D01*
X589720Y170808D01*
X589768Y170725D01*
X589813Y170640D01*
X589854Y170554D01*
X589891Y170466D01*
X589925Y170377D01*
X589956Y170286D01*
X589982Y170194D01*
X590005Y170102D01*
X590024Y170008D01*
X590039Y169914D01*
X590051Y169819D01*
X590058Y169723D01*
X590062Y169628D01*
X590061Y169532D01*
X590057Y169437D01*
X590049Y169342D01*
X590037Y169247D01*
X590021Y169153D01*
X590001Y169059D01*
X589978Y168966D01*
X589950Y168875D01*
X589919Y168784D01*
X589885Y168695D01*
X589847Y168608D01*
X589805Y168522D01*
X589759Y168438D01*
X589711Y168355D01*
X589659Y168275D01*
X589604Y168197D01*
X589545Y168121D01*
X589484Y168048D01*
X589419Y167977D01*
X589352Y167909D01*
X589352Y167910D02*
X589089Y167661D01*
X588820Y167418D01*
X588546Y167181D01*
X588266Y166951D01*
X587981Y166728D01*
X587691Y166511D01*
X587396Y166301D01*
X587095Y166099D01*
X586790Y165903D01*
X586481Y165715D01*
X586167Y165534D01*
X585849Y165361D01*
X585527Y165195D01*
X585201Y165037D01*
X597335Y175892D02*
X600528Y179085D01*
X597335Y175892D02*
X597260Y175820D01*
X597182Y175751D01*
X597102Y175685D01*
X597020Y175622D01*
X596935Y175563D01*
X596848Y175506D01*
X596758Y175453D01*
X596667Y175404D01*
X596574Y175358D01*
X596480Y175315D01*
X596383Y175276D01*
X596286Y175241D01*
X596187Y175210D01*
X596087Y175183D01*
X595986Y175159D01*
X595884Y175139D01*
X595781Y175123D01*
X595678Y175111D01*
X595575Y175103D01*
X595471Y175099D01*
X595367Y175099D01*
X595263Y175103D01*
X595160Y175111D01*
X595057Y175123D01*
X594954Y175139D01*
X594852Y175159D01*
X594751Y175183D01*
X594651Y175210D01*
X594552Y175241D01*
X594455Y175276D01*
X594358Y175315D01*
X594264Y175358D01*
X594171Y175404D01*
X594080Y175453D01*
X593990Y175506D01*
X593903Y175563D01*
X593818Y175622D01*
X593736Y175685D01*
X593656Y175751D01*
X593578Y175820D01*
X593503Y175892D01*
X590310Y179085D01*
X590311Y179086D02*
X590228Y179172D01*
X590148Y179260D01*
X590071Y179351D01*
X589996Y179445D01*
X589925Y179541D01*
X589858Y179639D01*
X589793Y179740D01*
X589732Y179843D01*
X589674Y179947D01*
X589620Y180054D01*
X589569Y180162D01*
X589522Y180272D01*
X589479Y180383D01*
X589439Y180495D01*
X589403Y180609D01*
X589371Y180724D01*
X589343Y180840D01*
X589318Y180957D01*
X589297Y181075D01*
X589281Y181193D01*
X589268Y181312D01*
X589259Y181431D01*
X589254Y181550D01*
X589253Y181670D01*
X589256Y181789D01*
X589263Y181909D01*
X589274Y182027D01*
X589289Y182146D01*
X589307Y182264D01*
X589330Y182381D01*
X589356Y182498D01*
X589387Y182613D01*
X589421Y182728D01*
X589459Y182841D01*
X589500Y182953D01*
X589545Y183064D01*
X589594Y183173D01*
X589647Y183280D01*
X589703Y183385D01*
X589762Y183489D01*
X589825Y183591D01*
X589891Y183690D01*
X589960Y183787D01*
X590033Y183882D01*
X590109Y183974D01*
X590187Y184064D01*
X590269Y184151D01*
X590354Y184236D01*
X590441Y184318D01*
X590531Y184396D01*
X590623Y184472D01*
X590718Y184545D01*
X590815Y184614D01*
X590915Y184680D01*
X591016Y184743D01*
X591120Y184802D01*
X591225Y184858D01*
X591333Y184911D01*
X591441Y184960D01*
X591552Y185005D01*
X591664Y185046D01*
X591777Y185084D01*
X591892Y185118D01*
X592007Y185149D01*
X592124Y185175D01*
X592241Y185198D01*
X592359Y185216D01*
X592478Y185231D01*
X592597Y185242D01*
X592716Y185249D01*
X592835Y185252D01*
X592955Y185251D01*
X593074Y185246D01*
X593193Y185237D01*
X593312Y185224D01*
X593430Y185208D01*
X593548Y185187D01*
X593665Y185162D01*
X593781Y185134D01*
X593896Y185102D01*
X594010Y185066D01*
X594122Y185026D01*
X594233Y184983D01*
X594343Y184936D01*
X594451Y184885D01*
X594558Y184831D01*
X594662Y184773D01*
X594765Y184712D01*
X594866Y184647D01*
X594964Y184580D01*
X595060Y184509D01*
X595154Y184434D01*
X595245Y184357D01*
X595333Y184277D01*
X595419Y184194D01*
X596696Y182917D01*
X591587Y177808D01*
X596418Y190302D02*
X600249Y194133D01*
X593863Y195410D02*
X603442Y185831D01*
X603515Y185761D01*
X603591Y185694D01*
X603669Y185629D01*
X603749Y185567D01*
X603832Y185509D01*
X603917Y185453D01*
X604004Y185401D01*
X604092Y185352D01*
X604183Y185306D01*
X604275Y185264D01*
X604368Y185225D01*
X604463Y185190D01*
X604560Y185158D01*
X604657Y185130D01*
X604755Y185106D01*
X604854Y185085D01*
X604954Y185068D01*
X605055Y185055D01*
X605156Y185046D01*
X605257Y185040D01*
X605358Y185038D01*
X605459Y185040D01*
X605560Y185046D01*
X605661Y185055D01*
X605762Y185068D01*
X605862Y185085D01*
X605961Y185106D01*
X606059Y185130D01*
X606157Y185158D01*
X606253Y185190D01*
X606348Y185225D01*
X606441Y185264D01*
X606533Y185306D01*
X606624Y185352D01*
X606713Y185401D01*
X606799Y185453D01*
X606884Y185509D01*
X606967Y185567D01*
X607047Y185629D01*
X607125Y185694D01*
X607201Y185761D01*
X607274Y185831D01*
X607912Y186470D01*
X575561Y644916D02*
X581309Y650663D01*
X575561Y644916D02*
X575489Y644841D01*
X575420Y644763D01*
X575354Y644683D01*
X575291Y644601D01*
X575232Y644516D01*
X575175Y644429D01*
X575122Y644339D01*
X575073Y644248D01*
X575027Y644155D01*
X574984Y644061D01*
X574945Y643964D01*
X574910Y643867D01*
X574879Y643768D01*
X574852Y643668D01*
X574828Y643567D01*
X574808Y643465D01*
X574792Y643362D01*
X574780Y643259D01*
X574772Y643156D01*
X574768Y643052D01*
X574768Y642948D01*
X574772Y642844D01*
X574780Y642741D01*
X574792Y642638D01*
X574808Y642535D01*
X574828Y642433D01*
X574852Y642332D01*
X574879Y642232D01*
X574910Y642133D01*
X574945Y642036D01*
X574984Y641939D01*
X575027Y641845D01*
X575073Y641752D01*
X575122Y641661D01*
X575175Y641571D01*
X575232Y641484D01*
X575291Y641399D01*
X575354Y641317D01*
X575420Y641237D01*
X575489Y641159D01*
X575561Y641084D01*
X578754Y637891D01*
X586418Y645554D01*
X589021Y636565D02*
X590937Y632094D01*
X589021Y636564D02*
X588986Y636653D01*
X588953Y636743D01*
X588925Y636834D01*
X588900Y636927D01*
X588879Y637020D01*
X588862Y637114D01*
X588849Y637209D01*
X588839Y637304D01*
X588834Y637399D01*
X588832Y637495D01*
X588834Y637590D01*
X588840Y637686D01*
X588850Y637781D01*
X588864Y637875D01*
X588882Y637969D01*
X588904Y638062D01*
X588929Y638154D01*
X588958Y638245D01*
X588991Y638335D01*
X589027Y638424D01*
X589067Y638510D01*
X589111Y638595D01*
X589158Y638679D01*
X589208Y638760D01*
X589262Y638839D01*
X589319Y638916D01*
X589378Y638991D01*
X589441Y639063D01*
X589507Y639132D01*
X589575Y639199D01*
X589647Y639262D01*
X589720Y639323D01*
X589796Y639381D01*
X589875Y639436D01*
X589955Y639487D01*
X590038Y639535D01*
X590123Y639580D01*
X590209Y639621D01*
X590297Y639658D01*
X590386Y639692D01*
X590477Y639723D01*
X590569Y639749D01*
X590661Y639772D01*
X590755Y639791D01*
X590849Y639806D01*
X590944Y639818D01*
X591040Y639825D01*
X591135Y639829D01*
X591231Y639828D01*
X591326Y639824D01*
X591421Y639816D01*
X591516Y639804D01*
X591610Y639788D01*
X591704Y639768D01*
X591797Y639745D01*
X591888Y639717D01*
X591979Y639686D01*
X592068Y639652D01*
X592155Y639613D01*
X592241Y639572D01*
X592325Y639526D01*
X592408Y639478D01*
X592488Y639426D01*
X592566Y639371D01*
X592642Y639312D01*
X592715Y639251D01*
X592786Y639186D01*
X592854Y639119D01*
X592853Y639119D02*
X593023Y638940D01*
X593188Y638757D01*
X593349Y638570D01*
X593505Y638379D01*
X593657Y638185D01*
X593804Y637987D01*
X593946Y637786D01*
X594084Y637581D01*
X594216Y637373D01*
X594344Y637162D01*
X594466Y636947D01*
X594583Y636730D01*
X594695Y636511D01*
X594801Y636288D01*
X594902Y636063D01*
X594998Y635836D01*
X595088Y635606D01*
X590938Y632095D02*
X590973Y632006D01*
X591006Y631916D01*
X591034Y631825D01*
X591059Y631732D01*
X591080Y631639D01*
X591097Y631545D01*
X591110Y631450D01*
X591120Y631355D01*
X591125Y631260D01*
X591127Y631164D01*
X591125Y631069D01*
X591119Y630973D01*
X591109Y630878D01*
X591095Y630784D01*
X591077Y630690D01*
X591055Y630597D01*
X591030Y630505D01*
X591001Y630414D01*
X590968Y630324D01*
X590932Y630235D01*
X590892Y630149D01*
X590848Y630064D01*
X590801Y629980D01*
X590751Y629899D01*
X590697Y629820D01*
X590640Y629743D01*
X590581Y629668D01*
X590518Y629596D01*
X590452Y629527D01*
X590384Y629460D01*
X590312Y629397D01*
X590239Y629336D01*
X590163Y629278D01*
X590084Y629223D01*
X590004Y629172D01*
X589921Y629124D01*
X589836Y629079D01*
X589750Y629038D01*
X589662Y629001D01*
X589573Y628967D01*
X589482Y628936D01*
X589390Y628910D01*
X589298Y628887D01*
X589204Y628868D01*
X589110Y628853D01*
X589015Y628841D01*
X588919Y628834D01*
X588824Y628830D01*
X588728Y628831D01*
X588633Y628835D01*
X588538Y628843D01*
X588443Y628855D01*
X588349Y628871D01*
X588255Y628891D01*
X588162Y628914D01*
X588071Y628942D01*
X587980Y628973D01*
X587891Y629007D01*
X587804Y629045D01*
X587718Y629087D01*
X587634Y629133D01*
X587551Y629181D01*
X587471Y629233D01*
X587393Y629288D01*
X587317Y629347D01*
X587244Y629408D01*
X587173Y629473D01*
X587105Y629540D01*
X586856Y629803D01*
X586613Y630072D01*
X586376Y630346D01*
X586146Y630626D01*
X585923Y630911D01*
X585706Y631201D01*
X585496Y631496D01*
X585294Y631797D01*
X585098Y632102D01*
X584910Y632411D01*
X584729Y632725D01*
X584556Y633043D01*
X584390Y633365D01*
X584232Y633691D01*
X595088Y621557D02*
X598281Y618364D01*
X595088Y621557D02*
X595018Y621630D01*
X594951Y621706D01*
X594886Y621784D01*
X594824Y621864D01*
X594766Y621947D01*
X594710Y622032D01*
X594658Y622119D01*
X594609Y622207D01*
X594563Y622298D01*
X594521Y622390D01*
X594482Y622483D01*
X594447Y622578D01*
X594415Y622675D01*
X594387Y622772D01*
X594363Y622870D01*
X594342Y622969D01*
X594325Y623069D01*
X594312Y623170D01*
X594303Y623271D01*
X594297Y623372D01*
X594295Y623473D01*
X594297Y623574D01*
X594303Y623675D01*
X594312Y623776D01*
X594325Y623877D01*
X594342Y623977D01*
X594363Y624076D01*
X594387Y624174D01*
X594415Y624272D01*
X594447Y624368D01*
X594482Y624463D01*
X594521Y624556D01*
X594563Y624648D01*
X594609Y624739D01*
X594658Y624828D01*
X594710Y624914D01*
X594766Y624999D01*
X594824Y625082D01*
X594886Y625162D01*
X594951Y625240D01*
X595018Y625316D01*
X595088Y625389D01*
X598281Y628582D01*
X598282Y628581D02*
X598368Y628664D01*
X598456Y628744D01*
X598547Y628821D01*
X598641Y628896D01*
X598737Y628967D01*
X598835Y629034D01*
X598936Y629099D01*
X599039Y629160D01*
X599143Y629218D01*
X599250Y629272D01*
X599358Y629323D01*
X599468Y629370D01*
X599579Y629413D01*
X599691Y629453D01*
X599805Y629489D01*
X599920Y629521D01*
X600036Y629549D01*
X600153Y629574D01*
X600271Y629595D01*
X600389Y629611D01*
X600508Y629624D01*
X600627Y629633D01*
X600746Y629638D01*
X600866Y629639D01*
X600985Y629636D01*
X601105Y629629D01*
X601223Y629618D01*
X601342Y629603D01*
X601460Y629585D01*
X601577Y629562D01*
X601694Y629536D01*
X601809Y629505D01*
X601924Y629471D01*
X602037Y629433D01*
X602149Y629392D01*
X602260Y629347D01*
X602369Y629298D01*
X602476Y629245D01*
X602581Y629189D01*
X602685Y629130D01*
X602787Y629067D01*
X602886Y629001D01*
X602983Y628932D01*
X603078Y628859D01*
X603170Y628783D01*
X603260Y628705D01*
X603347Y628623D01*
X603432Y628538D01*
X603514Y628451D01*
X603592Y628361D01*
X603668Y628269D01*
X603741Y628174D01*
X603810Y628077D01*
X603876Y627978D01*
X603939Y627876D01*
X603998Y627772D01*
X604054Y627667D01*
X604107Y627560D01*
X604156Y627451D01*
X604201Y627340D01*
X604242Y627228D01*
X604280Y627115D01*
X604314Y627000D01*
X604345Y626885D01*
X604371Y626768D01*
X604394Y626651D01*
X604412Y626533D01*
X604427Y626414D01*
X604438Y626296D01*
X604445Y626176D01*
X604448Y626057D01*
X604447Y625937D01*
X604442Y625818D01*
X604433Y625699D01*
X604420Y625580D01*
X604404Y625462D01*
X604383Y625344D01*
X604358Y625227D01*
X604330Y625111D01*
X604298Y624996D01*
X604262Y624882D01*
X604222Y624770D01*
X604179Y624659D01*
X604132Y624549D01*
X604081Y624441D01*
X604027Y624334D01*
X603969Y624230D01*
X603908Y624127D01*
X603843Y624026D01*
X603776Y623928D01*
X603705Y623832D01*
X603630Y623738D01*
X603553Y623647D01*
X603473Y623559D01*
X603390Y623473D01*
X602113Y622196D01*
X597004Y627305D01*
X610843Y621128D02*
X603180Y613465D01*
X610843Y621128D02*
X614675Y617297D01*
X613398Y616020D01*
X-762Y120762D02*
X-17018Y120762D01*
X-762Y120762D02*
X-762Y125278D01*
X-764Y125382D01*
X-770Y125485D01*
X-780Y125589D01*
X-794Y125692D01*
X-812Y125794D01*
X-833Y125895D01*
X-859Y125996D01*
X-888Y126095D01*
X-921Y126194D01*
X-958Y126291D01*
X-999Y126386D01*
X-1043Y126480D01*
X-1091Y126572D01*
X-1142Y126662D01*
X-1197Y126751D01*
X-1255Y126837D01*
X-1317Y126920D01*
X-1381Y127002D01*
X-1449Y127080D01*
X-1519Y127156D01*
X-1592Y127230D01*
X-1669Y127300D01*
X-1747Y127368D01*
X-1829Y127432D01*
X-1912Y127494D01*
X-1998Y127552D01*
X-2087Y127607D01*
X-2177Y127658D01*
X-2269Y127706D01*
X-2363Y127750D01*
X-2458Y127791D01*
X-2555Y127828D01*
X-2654Y127861D01*
X-2753Y127890D01*
X-2854Y127916D01*
X-2955Y127937D01*
X-3057Y127955D01*
X-3160Y127969D01*
X-3264Y127979D01*
X-3367Y127985D01*
X-3471Y127987D01*
X-8890Y127987D01*
X-8991Y127985D01*
X-9092Y127979D01*
X-9193Y127970D01*
X-9294Y127957D01*
X-9394Y127940D01*
X-9493Y127919D01*
X-9591Y127895D01*
X-9688Y127867D01*
X-9785Y127835D01*
X-9880Y127800D01*
X-9973Y127761D01*
X-10065Y127719D01*
X-10156Y127673D01*
X-10244Y127624D01*
X-10331Y127572D01*
X-10416Y127516D01*
X-10499Y127458D01*
X-10579Y127396D01*
X-10657Y127331D01*
X-10733Y127264D01*
X-10806Y127194D01*
X-10876Y127121D01*
X-10943Y127045D01*
X-11008Y126967D01*
X-11070Y126887D01*
X-11128Y126804D01*
X-11184Y126719D01*
X-11236Y126633D01*
X-11285Y126544D01*
X-11331Y126453D01*
X-11373Y126361D01*
X-11412Y126268D01*
X-11447Y126173D01*
X-11479Y126076D01*
X-11507Y125979D01*
X-11531Y125881D01*
X-11552Y125782D01*
X-11569Y125682D01*
X-11582Y125581D01*
X-11591Y125480D01*
X-11597Y125379D01*
X-11599Y125278D01*
X-11599Y120762D01*
X-7987Y134236D02*
X-4374Y134236D01*
X-7987Y134236D02*
X-8106Y134238D01*
X-8226Y134244D01*
X-8345Y134254D01*
X-8463Y134268D01*
X-8582Y134285D01*
X-8699Y134307D01*
X-8816Y134332D01*
X-8931Y134362D01*
X-9046Y134395D01*
X-9160Y134432D01*
X-9272Y134472D01*
X-9383Y134517D01*
X-9492Y134565D01*
X-9600Y134616D01*
X-9706Y134671D01*
X-9810Y134730D01*
X-9912Y134792D01*
X-10012Y134857D01*
X-10110Y134926D01*
X-10206Y134998D01*
X-10299Y135073D01*
X-10389Y135150D01*
X-10477Y135231D01*
X-10562Y135315D01*
X-10644Y135402D01*
X-10724Y135491D01*
X-10800Y135583D01*
X-10874Y135677D01*
X-10944Y135774D01*
X-11011Y135872D01*
X-11075Y135973D01*
X-11135Y136077D01*
X-11192Y136182D01*
X-11245Y136289D01*
X-11295Y136397D01*
X-11341Y136507D01*
X-11383Y136619D01*
X-11422Y136732D01*
X-11457Y136846D01*
X-11488Y136961D01*
X-11516Y137078D01*
X-11539Y137195D01*
X-11559Y137312D01*
X-11575Y137431D01*
X-11587Y137550D01*
X-11595Y137669D01*
X-11599Y137788D01*
X-11599Y137908D01*
X-11595Y138027D01*
X-11587Y138146D01*
X-11575Y138265D01*
X-11559Y138384D01*
X-11539Y138501D01*
X-11516Y138618D01*
X-11488Y138735D01*
X-11457Y138850D01*
X-11422Y138964D01*
X-11383Y139077D01*
X-11341Y139189D01*
X-11295Y139299D01*
X-11245Y139407D01*
X-11192Y139514D01*
X-11135Y139619D01*
X-11075Y139723D01*
X-11011Y139824D01*
X-10944Y139922D01*
X-10874Y140019D01*
X-10800Y140113D01*
X-10724Y140205D01*
X-10644Y140294D01*
X-10562Y140381D01*
X-10477Y140465D01*
X-10389Y140546D01*
X-10299Y140623D01*
X-10206Y140698D01*
X-10110Y140770D01*
X-10012Y140839D01*
X-9912Y140904D01*
X-9810Y140966D01*
X-9706Y141025D01*
X-9600Y141080D01*
X-9492Y141131D01*
X-9383Y141179D01*
X-9272Y141224D01*
X-9160Y141264D01*
X-9046Y141301D01*
X-8931Y141334D01*
X-8816Y141364D01*
X-8699Y141389D01*
X-8582Y141411D01*
X-8463Y141428D01*
X-8345Y141442D01*
X-8226Y141452D01*
X-8106Y141458D01*
X-7987Y141460D01*
X-7987Y141461D02*
X-4374Y141461D01*
X-4374Y141460D02*
X-4255Y141458D01*
X-4135Y141452D01*
X-4016Y141442D01*
X-3898Y141428D01*
X-3779Y141411D01*
X-3662Y141389D01*
X-3545Y141364D01*
X-3430Y141334D01*
X-3315Y141301D01*
X-3201Y141264D01*
X-3089Y141224D01*
X-2978Y141179D01*
X-2869Y141131D01*
X-2761Y141080D01*
X-2655Y141025D01*
X-2551Y140966D01*
X-2449Y140904D01*
X-2349Y140839D01*
X-2251Y140770D01*
X-2155Y140698D01*
X-2062Y140623D01*
X-1972Y140546D01*
X-1884Y140465D01*
X-1799Y140381D01*
X-1717Y140294D01*
X-1637Y140205D01*
X-1561Y140113D01*
X-1487Y140019D01*
X-1417Y139922D01*
X-1350Y139824D01*
X-1286Y139723D01*
X-1226Y139619D01*
X-1169Y139514D01*
X-1116Y139407D01*
X-1066Y139299D01*
X-1020Y139189D01*
X-978Y139077D01*
X-939Y138964D01*
X-904Y138850D01*
X-873Y138735D01*
X-845Y138618D01*
X-822Y138501D01*
X-802Y138384D01*
X-786Y138265D01*
X-774Y138146D01*
X-766Y138027D01*
X-762Y137908D01*
X-762Y137788D01*
X-766Y137669D01*
X-774Y137550D01*
X-786Y137431D01*
X-802Y137312D01*
X-822Y137195D01*
X-845Y137078D01*
X-873Y136961D01*
X-904Y136846D01*
X-939Y136732D01*
X-978Y136619D01*
X-1020Y136507D01*
X-1066Y136397D01*
X-1116Y136289D01*
X-1169Y136182D01*
X-1226Y136077D01*
X-1286Y135973D01*
X-1350Y135872D01*
X-1417Y135774D01*
X-1487Y135677D01*
X-1561Y135583D01*
X-1637Y135491D01*
X-1717Y135402D01*
X-1799Y135315D01*
X-1884Y135231D01*
X-1972Y135150D01*
X-2062Y135073D01*
X-2155Y134998D01*
X-2251Y134926D01*
X-2349Y134857D01*
X-2449Y134792D01*
X-2551Y134730D01*
X-2655Y134671D01*
X-2761Y134616D01*
X-2869Y134565D01*
X-2978Y134517D01*
X-3089Y134472D01*
X-3201Y134432D01*
X-3315Y134395D01*
X-3430Y134362D01*
X-3545Y134332D01*
X-3662Y134307D01*
X-3779Y134285D01*
X-3898Y134268D01*
X-4016Y134254D01*
X-4135Y134244D01*
X-4255Y134238D01*
X-4374Y134236D01*
X-4374Y147783D02*
X-7987Y147783D01*
X-8106Y147785D01*
X-8226Y147791D01*
X-8345Y147801D01*
X-8463Y147815D01*
X-8582Y147832D01*
X-8699Y147854D01*
X-8816Y147879D01*
X-8931Y147909D01*
X-9046Y147942D01*
X-9160Y147979D01*
X-9272Y148019D01*
X-9383Y148064D01*
X-9492Y148112D01*
X-9600Y148163D01*
X-9706Y148218D01*
X-9810Y148277D01*
X-9912Y148339D01*
X-10012Y148404D01*
X-10110Y148473D01*
X-10206Y148545D01*
X-10299Y148620D01*
X-10389Y148697D01*
X-10477Y148778D01*
X-10562Y148862D01*
X-10644Y148949D01*
X-10724Y149038D01*
X-10800Y149130D01*
X-10874Y149224D01*
X-10944Y149321D01*
X-11011Y149419D01*
X-11075Y149520D01*
X-11135Y149624D01*
X-11192Y149729D01*
X-11245Y149836D01*
X-11295Y149944D01*
X-11341Y150054D01*
X-11383Y150166D01*
X-11422Y150279D01*
X-11457Y150393D01*
X-11488Y150508D01*
X-11516Y150625D01*
X-11539Y150742D01*
X-11559Y150859D01*
X-11575Y150978D01*
X-11587Y151097D01*
X-11595Y151216D01*
X-11599Y151335D01*
X-11599Y151455D01*
X-11595Y151574D01*
X-11587Y151693D01*
X-11575Y151812D01*
X-11559Y151931D01*
X-11539Y152048D01*
X-11516Y152165D01*
X-11488Y152282D01*
X-11457Y152397D01*
X-11422Y152511D01*
X-11383Y152624D01*
X-11341Y152736D01*
X-11295Y152846D01*
X-11245Y152954D01*
X-11192Y153061D01*
X-11135Y153166D01*
X-11075Y153270D01*
X-11011Y153371D01*
X-10944Y153469D01*
X-10874Y153566D01*
X-10800Y153660D01*
X-10724Y153752D01*
X-10644Y153841D01*
X-10562Y153928D01*
X-10477Y154012D01*
X-10389Y154093D01*
X-10299Y154170D01*
X-10206Y154245D01*
X-10110Y154317D01*
X-10012Y154386D01*
X-9912Y154451D01*
X-9810Y154513D01*
X-9706Y154572D01*
X-9600Y154627D01*
X-9492Y154678D01*
X-9383Y154726D01*
X-9272Y154771D01*
X-9160Y154811D01*
X-9046Y154848D01*
X-8931Y154881D01*
X-8816Y154911D01*
X-8699Y154936D01*
X-8582Y154958D01*
X-8463Y154975D01*
X-8345Y154989D01*
X-8226Y154999D01*
X-8106Y155005D01*
X-7987Y155007D01*
X-7987Y155008D02*
X-4374Y155008D01*
X-4374Y155007D02*
X-4255Y155005D01*
X-4135Y154999D01*
X-4016Y154989D01*
X-3898Y154975D01*
X-3779Y154958D01*
X-3662Y154936D01*
X-3545Y154911D01*
X-3430Y154881D01*
X-3315Y154848D01*
X-3201Y154811D01*
X-3089Y154771D01*
X-2978Y154726D01*
X-2869Y154678D01*
X-2761Y154627D01*
X-2655Y154572D01*
X-2551Y154513D01*
X-2449Y154451D01*
X-2349Y154386D01*
X-2251Y154317D01*
X-2155Y154245D01*
X-2062Y154170D01*
X-1972Y154093D01*
X-1884Y154012D01*
X-1799Y153928D01*
X-1717Y153841D01*
X-1637Y153752D01*
X-1561Y153660D01*
X-1487Y153566D01*
X-1417Y153469D01*
X-1350Y153371D01*
X-1286Y153270D01*
X-1226Y153166D01*
X-1169Y153061D01*
X-1116Y152954D01*
X-1066Y152846D01*
X-1020Y152736D01*
X-978Y152624D01*
X-939Y152511D01*
X-904Y152397D01*
X-873Y152282D01*
X-845Y152165D01*
X-822Y152048D01*
X-802Y151931D01*
X-786Y151812D01*
X-774Y151693D01*
X-766Y151574D01*
X-762Y151455D01*
X-762Y151335D01*
X-766Y151216D01*
X-774Y151097D01*
X-786Y150978D01*
X-802Y150859D01*
X-822Y150742D01*
X-845Y150625D01*
X-873Y150508D01*
X-904Y150393D01*
X-939Y150279D01*
X-978Y150166D01*
X-1020Y150054D01*
X-1066Y149944D01*
X-1116Y149836D01*
X-1169Y149729D01*
X-1226Y149624D01*
X-1286Y149520D01*
X-1350Y149419D01*
X-1417Y149321D01*
X-1487Y149224D01*
X-1561Y149130D01*
X-1637Y149038D01*
X-1717Y148949D01*
X-1799Y148862D01*
X-1884Y148778D01*
X-1972Y148697D01*
X-2062Y148620D01*
X-2155Y148545D01*
X-2251Y148473D01*
X-2349Y148404D01*
X-2449Y148339D01*
X-2551Y148277D01*
X-2655Y148218D01*
X-2761Y148163D01*
X-2869Y148112D01*
X-2978Y148064D01*
X-3089Y148019D01*
X-3201Y147979D01*
X-3315Y147942D01*
X-3430Y147909D01*
X-3545Y147879D01*
X-3662Y147854D01*
X-3779Y147832D01*
X-3898Y147815D01*
X-4016Y147801D01*
X-4135Y147791D01*
X-4255Y147785D01*
X-4374Y147783D01*
X-11599Y160033D02*
X-11599Y165451D01*
X-17018Y161839D02*
X-3471Y161839D01*
X-3370Y161841D01*
X-3269Y161847D01*
X-3168Y161856D01*
X-3067Y161869D01*
X-2967Y161886D01*
X-2868Y161907D01*
X-2770Y161931D01*
X-2673Y161959D01*
X-2576Y161991D01*
X-2481Y162026D01*
X-2388Y162065D01*
X-2296Y162107D01*
X-2205Y162153D01*
X-2117Y162202D01*
X-2030Y162254D01*
X-1945Y162310D01*
X-1862Y162368D01*
X-1782Y162430D01*
X-1704Y162495D01*
X-1628Y162562D01*
X-1555Y162632D01*
X-1485Y162705D01*
X-1418Y162781D01*
X-1353Y162859D01*
X-1291Y162939D01*
X-1233Y163022D01*
X-1177Y163107D01*
X-1125Y163193D01*
X-1076Y163282D01*
X-1030Y163373D01*
X-988Y163465D01*
X-949Y163558D01*
X-914Y163653D01*
X-882Y163750D01*
X-854Y163847D01*
X-830Y163945D01*
X-809Y164044D01*
X-792Y164144D01*
X-779Y164245D01*
X-770Y164346D01*
X-764Y164447D01*
X-762Y164548D01*
X-762Y165451D01*
D10*
X365000Y225000D03*
X495000Y375000D03*
X265000Y545000D03*
D12*
X185000Y400000D02*
X185002Y400141D01*
X185008Y400282D01*
X185018Y400422D01*
X185032Y400562D01*
X185050Y400702D01*
X185071Y400841D01*
X185097Y400980D01*
X185126Y401118D01*
X185160Y401254D01*
X185197Y401390D01*
X185238Y401525D01*
X185283Y401659D01*
X185332Y401791D01*
X185384Y401922D01*
X185440Y402051D01*
X185500Y402178D01*
X185563Y402304D01*
X185629Y402428D01*
X185700Y402551D01*
X185773Y402671D01*
X185850Y402789D01*
X185930Y402905D01*
X186014Y403018D01*
X186100Y403129D01*
X186190Y403238D01*
X186283Y403344D01*
X186378Y403447D01*
X186477Y403548D01*
X186578Y403646D01*
X186682Y403741D01*
X186789Y403833D01*
X186898Y403922D01*
X187010Y404007D01*
X187124Y404090D01*
X187240Y404170D01*
X187359Y404246D01*
X187480Y404318D01*
X187602Y404388D01*
X187727Y404453D01*
X187853Y404516D01*
X187981Y404574D01*
X188111Y404629D01*
X188242Y404681D01*
X188375Y404728D01*
X188509Y404772D01*
X188644Y404813D01*
X188780Y404849D01*
X188917Y404881D01*
X189055Y404910D01*
X189193Y404935D01*
X189333Y404955D01*
X189473Y404972D01*
X189613Y404985D01*
X189754Y404994D01*
X189894Y404999D01*
X190035Y405000D01*
X190176Y404997D01*
X190317Y404990D01*
X190457Y404979D01*
X190597Y404964D01*
X190737Y404945D01*
X190876Y404923D01*
X191014Y404896D01*
X191152Y404866D01*
X191288Y404831D01*
X191424Y404793D01*
X191558Y404751D01*
X191692Y404705D01*
X191824Y404656D01*
X191954Y404602D01*
X192083Y404545D01*
X192210Y404485D01*
X192336Y404421D01*
X192459Y404353D01*
X192581Y404282D01*
X192701Y404208D01*
X192818Y404130D01*
X192933Y404049D01*
X193046Y403965D01*
X193157Y403878D01*
X193265Y403787D01*
X193370Y403694D01*
X193473Y403597D01*
X193573Y403498D01*
X193670Y403396D01*
X193764Y403291D01*
X193855Y403184D01*
X193943Y403074D01*
X194028Y402962D01*
X194110Y402847D01*
X194189Y402730D01*
X194264Y402611D01*
X194336Y402490D01*
X194404Y402367D01*
X194469Y402242D01*
X194531Y402115D01*
X194588Y401986D01*
X194643Y401856D01*
X194693Y401725D01*
X194740Y401592D01*
X194783Y401458D01*
X194822Y401322D01*
X194857Y401186D01*
X194889Y401049D01*
X194916Y400911D01*
X194940Y400772D01*
X194960Y400632D01*
X194976Y400492D01*
X194988Y400352D01*
X194996Y400211D01*
X195000Y400070D01*
X195000Y399930D01*
X194996Y399789D01*
X194988Y399648D01*
X194976Y399508D01*
X194960Y399368D01*
X194940Y399228D01*
X194916Y399089D01*
X194889Y398951D01*
X194857Y398814D01*
X194822Y398678D01*
X194783Y398542D01*
X194740Y398408D01*
X194693Y398275D01*
X194643Y398144D01*
X194588Y398014D01*
X194531Y397885D01*
X194469Y397758D01*
X194404Y397633D01*
X194336Y397510D01*
X194264Y397389D01*
X194189Y397270D01*
X194110Y397153D01*
X194028Y397038D01*
X193943Y396926D01*
X193855Y396816D01*
X193764Y396709D01*
X193670Y396604D01*
X193573Y396502D01*
X193473Y396403D01*
X193370Y396306D01*
X193265Y396213D01*
X193157Y396122D01*
X193046Y396035D01*
X192933Y395951D01*
X192818Y395870D01*
X192701Y395792D01*
X192581Y395718D01*
X192459Y395647D01*
X192336Y395579D01*
X192210Y395515D01*
X192083Y395455D01*
X191954Y395398D01*
X191824Y395344D01*
X191692Y395295D01*
X191558Y395249D01*
X191424Y395207D01*
X191288Y395169D01*
X191152Y395134D01*
X191014Y395104D01*
X190876Y395077D01*
X190737Y395055D01*
X190597Y395036D01*
X190457Y395021D01*
X190317Y395010D01*
X190176Y395003D01*
X190035Y395000D01*
X189894Y395001D01*
X189754Y395006D01*
X189613Y395015D01*
X189473Y395028D01*
X189333Y395045D01*
X189193Y395065D01*
X189055Y395090D01*
X188917Y395119D01*
X188780Y395151D01*
X188644Y395187D01*
X188509Y395228D01*
X188375Y395272D01*
X188242Y395319D01*
X188111Y395371D01*
X187981Y395426D01*
X187853Y395484D01*
X187727Y395547D01*
X187602Y395612D01*
X187480Y395682D01*
X187359Y395754D01*
X187240Y395830D01*
X187124Y395910D01*
X187010Y395993D01*
X186898Y396078D01*
X186789Y396167D01*
X186682Y396259D01*
X186578Y396354D01*
X186477Y396452D01*
X186378Y396553D01*
X186283Y396656D01*
X186190Y396762D01*
X186100Y396871D01*
X186014Y396982D01*
X185930Y397095D01*
X185850Y397211D01*
X185773Y397329D01*
X185700Y397449D01*
X185629Y397572D01*
X185563Y397696D01*
X185500Y397822D01*
X185440Y397949D01*
X185384Y398078D01*
X185332Y398209D01*
X185283Y398341D01*
X185238Y398475D01*
X185197Y398610D01*
X185160Y398746D01*
X185126Y398882D01*
X185097Y399020D01*
X185071Y399159D01*
X185050Y399298D01*
X185032Y399438D01*
X185018Y399578D01*
X185008Y399718D01*
X185002Y399859D01*
X185000Y400000D01*
X185000Y100000D02*
X185002Y100141D01*
X185008Y100282D01*
X185018Y100422D01*
X185032Y100562D01*
X185050Y100702D01*
X185071Y100841D01*
X185097Y100980D01*
X185126Y101118D01*
X185160Y101254D01*
X185197Y101390D01*
X185238Y101525D01*
X185283Y101659D01*
X185332Y101791D01*
X185384Y101922D01*
X185440Y102051D01*
X185500Y102178D01*
X185563Y102304D01*
X185629Y102428D01*
X185700Y102551D01*
X185773Y102671D01*
X185850Y102789D01*
X185930Y102905D01*
X186014Y103018D01*
X186100Y103129D01*
X186190Y103238D01*
X186283Y103344D01*
X186378Y103447D01*
X186477Y103548D01*
X186578Y103646D01*
X186682Y103741D01*
X186789Y103833D01*
X186898Y103922D01*
X187010Y104007D01*
X187124Y104090D01*
X187240Y104170D01*
X187359Y104246D01*
X187480Y104318D01*
X187602Y104388D01*
X187727Y104453D01*
X187853Y104516D01*
X187981Y104574D01*
X188111Y104629D01*
X188242Y104681D01*
X188375Y104728D01*
X188509Y104772D01*
X188644Y104813D01*
X188780Y104849D01*
X188917Y104881D01*
X189055Y104910D01*
X189193Y104935D01*
X189333Y104955D01*
X189473Y104972D01*
X189613Y104985D01*
X189754Y104994D01*
X189894Y104999D01*
X190035Y105000D01*
X190176Y104997D01*
X190317Y104990D01*
X190457Y104979D01*
X190597Y104964D01*
X190737Y104945D01*
X190876Y104923D01*
X191014Y104896D01*
X191152Y104866D01*
X191288Y104831D01*
X191424Y104793D01*
X191558Y104751D01*
X191692Y104705D01*
X191824Y104656D01*
X191954Y104602D01*
X192083Y104545D01*
X192210Y104485D01*
X192336Y104421D01*
X192459Y104353D01*
X192581Y104282D01*
X192701Y104208D01*
X192818Y104130D01*
X192933Y104049D01*
X193046Y103965D01*
X193157Y103878D01*
X193265Y103787D01*
X193370Y103694D01*
X193473Y103597D01*
X193573Y103498D01*
X193670Y103396D01*
X193764Y103291D01*
X193855Y103184D01*
X193943Y103074D01*
X194028Y102962D01*
X194110Y102847D01*
X194189Y102730D01*
X194264Y102611D01*
X194336Y102490D01*
X194404Y102367D01*
X194469Y102242D01*
X194531Y102115D01*
X194588Y101986D01*
X194643Y101856D01*
X194693Y101725D01*
X194740Y101592D01*
X194783Y101458D01*
X194822Y101322D01*
X194857Y101186D01*
X194889Y101049D01*
X194916Y100911D01*
X194940Y100772D01*
X194960Y100632D01*
X194976Y100492D01*
X194988Y100352D01*
X194996Y100211D01*
X195000Y100070D01*
X195000Y99930D01*
X194996Y99789D01*
X194988Y99648D01*
X194976Y99508D01*
X194960Y99368D01*
X194940Y99228D01*
X194916Y99089D01*
X194889Y98951D01*
X194857Y98814D01*
X194822Y98678D01*
X194783Y98542D01*
X194740Y98408D01*
X194693Y98275D01*
X194643Y98144D01*
X194588Y98014D01*
X194531Y97885D01*
X194469Y97758D01*
X194404Y97633D01*
X194336Y97510D01*
X194264Y97389D01*
X194189Y97270D01*
X194110Y97153D01*
X194028Y97038D01*
X193943Y96926D01*
X193855Y96816D01*
X193764Y96709D01*
X193670Y96604D01*
X193573Y96502D01*
X193473Y96403D01*
X193370Y96306D01*
X193265Y96213D01*
X193157Y96122D01*
X193046Y96035D01*
X192933Y95951D01*
X192818Y95870D01*
X192701Y95792D01*
X192581Y95718D01*
X192459Y95647D01*
X192336Y95579D01*
X192210Y95515D01*
X192083Y95455D01*
X191954Y95398D01*
X191824Y95344D01*
X191692Y95295D01*
X191558Y95249D01*
X191424Y95207D01*
X191288Y95169D01*
X191152Y95134D01*
X191014Y95104D01*
X190876Y95077D01*
X190737Y95055D01*
X190597Y95036D01*
X190457Y95021D01*
X190317Y95010D01*
X190176Y95003D01*
X190035Y95000D01*
X189894Y95001D01*
X189754Y95006D01*
X189613Y95015D01*
X189473Y95028D01*
X189333Y95045D01*
X189193Y95065D01*
X189055Y95090D01*
X188917Y95119D01*
X188780Y95151D01*
X188644Y95187D01*
X188509Y95228D01*
X188375Y95272D01*
X188242Y95319D01*
X188111Y95371D01*
X187981Y95426D01*
X187853Y95484D01*
X187727Y95547D01*
X187602Y95612D01*
X187480Y95682D01*
X187359Y95754D01*
X187240Y95830D01*
X187124Y95910D01*
X187010Y95993D01*
X186898Y96078D01*
X186789Y96167D01*
X186682Y96259D01*
X186578Y96354D01*
X186477Y96452D01*
X186378Y96553D01*
X186283Y96656D01*
X186190Y96762D01*
X186100Y96871D01*
X186014Y96982D01*
X185930Y97095D01*
X185850Y97211D01*
X185773Y97329D01*
X185700Y97449D01*
X185629Y97572D01*
X185563Y97696D01*
X185500Y97822D01*
X185440Y97949D01*
X185384Y98078D01*
X185332Y98209D01*
X185283Y98341D01*
X185238Y98475D01*
X185197Y98610D01*
X185160Y98746D01*
X185126Y98882D01*
X185097Y99020D01*
X185071Y99159D01*
X185050Y99298D01*
X185032Y99438D01*
X185018Y99578D01*
X185008Y99718D01*
X185002Y99859D01*
X185000Y100000D01*
X185000Y700000D02*
X185002Y700141D01*
X185008Y700282D01*
X185018Y700422D01*
X185032Y700562D01*
X185050Y700702D01*
X185071Y700841D01*
X185097Y700980D01*
X185126Y701118D01*
X185160Y701254D01*
X185197Y701390D01*
X185238Y701525D01*
X185283Y701659D01*
X185332Y701791D01*
X185384Y701922D01*
X185440Y702051D01*
X185500Y702178D01*
X185563Y702304D01*
X185629Y702428D01*
X185700Y702551D01*
X185773Y702671D01*
X185850Y702789D01*
X185930Y702905D01*
X186014Y703018D01*
X186100Y703129D01*
X186190Y703238D01*
X186283Y703344D01*
X186378Y703447D01*
X186477Y703548D01*
X186578Y703646D01*
X186682Y703741D01*
X186789Y703833D01*
X186898Y703922D01*
X187010Y704007D01*
X187124Y704090D01*
X187240Y704170D01*
X187359Y704246D01*
X187480Y704318D01*
X187602Y704388D01*
X187727Y704453D01*
X187853Y704516D01*
X187981Y704574D01*
X188111Y704629D01*
X188242Y704681D01*
X188375Y704728D01*
X188509Y704772D01*
X188644Y704813D01*
X188780Y704849D01*
X188917Y704881D01*
X189055Y704910D01*
X189193Y704935D01*
X189333Y704955D01*
X189473Y704972D01*
X189613Y704985D01*
X189754Y704994D01*
X189894Y704999D01*
X190035Y705000D01*
X190176Y704997D01*
X190317Y704990D01*
X190457Y704979D01*
X190597Y704964D01*
X190737Y704945D01*
X190876Y704923D01*
X191014Y704896D01*
X191152Y704866D01*
X191288Y704831D01*
X191424Y704793D01*
X191558Y704751D01*
X191692Y704705D01*
X191824Y704656D01*
X191954Y704602D01*
X192083Y704545D01*
X192210Y704485D01*
X192336Y704421D01*
X192459Y704353D01*
X192581Y704282D01*
X192701Y704208D01*
X192818Y704130D01*
X192933Y704049D01*
X193046Y703965D01*
X193157Y703878D01*
X193265Y703787D01*
X193370Y703694D01*
X193473Y703597D01*
X193573Y703498D01*
X193670Y703396D01*
X193764Y703291D01*
X193855Y703184D01*
X193943Y703074D01*
X194028Y702962D01*
X194110Y702847D01*
X194189Y702730D01*
X194264Y702611D01*
X194336Y702490D01*
X194404Y702367D01*
X194469Y702242D01*
X194531Y702115D01*
X194588Y701986D01*
X194643Y701856D01*
X194693Y701725D01*
X194740Y701592D01*
X194783Y701458D01*
X194822Y701322D01*
X194857Y701186D01*
X194889Y701049D01*
X194916Y700911D01*
X194940Y700772D01*
X194960Y700632D01*
X194976Y700492D01*
X194988Y700352D01*
X194996Y700211D01*
X195000Y700070D01*
X195000Y699930D01*
X194996Y699789D01*
X194988Y699648D01*
X194976Y699508D01*
X194960Y699368D01*
X194940Y699228D01*
X194916Y699089D01*
X194889Y698951D01*
X194857Y698814D01*
X194822Y698678D01*
X194783Y698542D01*
X194740Y698408D01*
X194693Y698275D01*
X194643Y698144D01*
X194588Y698014D01*
X194531Y697885D01*
X194469Y697758D01*
X194404Y697633D01*
X194336Y697510D01*
X194264Y697389D01*
X194189Y697270D01*
X194110Y697153D01*
X194028Y697038D01*
X193943Y696926D01*
X193855Y696816D01*
X193764Y696709D01*
X193670Y696604D01*
X193573Y696502D01*
X193473Y696403D01*
X193370Y696306D01*
X193265Y696213D01*
X193157Y696122D01*
X193046Y696035D01*
X192933Y695951D01*
X192818Y695870D01*
X192701Y695792D01*
X192581Y695718D01*
X192459Y695647D01*
X192336Y695579D01*
X192210Y695515D01*
X192083Y695455D01*
X191954Y695398D01*
X191824Y695344D01*
X191692Y695295D01*
X191558Y695249D01*
X191424Y695207D01*
X191288Y695169D01*
X191152Y695134D01*
X191014Y695104D01*
X190876Y695077D01*
X190737Y695055D01*
X190597Y695036D01*
X190457Y695021D01*
X190317Y695010D01*
X190176Y695003D01*
X190035Y695000D01*
X189894Y695001D01*
X189754Y695006D01*
X189613Y695015D01*
X189473Y695028D01*
X189333Y695045D01*
X189193Y695065D01*
X189055Y695090D01*
X188917Y695119D01*
X188780Y695151D01*
X188644Y695187D01*
X188509Y695228D01*
X188375Y695272D01*
X188242Y695319D01*
X188111Y695371D01*
X187981Y695426D01*
X187853Y695484D01*
X187727Y695547D01*
X187602Y695612D01*
X187480Y695682D01*
X187359Y695754D01*
X187240Y695830D01*
X187124Y695910D01*
X187010Y695993D01*
X186898Y696078D01*
X186789Y696167D01*
X186682Y696259D01*
X186578Y696354D01*
X186477Y696452D01*
X186378Y696553D01*
X186283Y696656D01*
X186190Y696762D01*
X186100Y696871D01*
X186014Y696982D01*
X185930Y697095D01*
X185850Y697211D01*
X185773Y697329D01*
X185700Y697449D01*
X185629Y697572D01*
X185563Y697696D01*
X185500Y697822D01*
X185440Y697949D01*
X185384Y698078D01*
X185332Y698209D01*
X185283Y698341D01*
X185238Y698475D01*
X185197Y698610D01*
X185160Y698746D01*
X185126Y698882D01*
X185097Y699020D01*
X185071Y699159D01*
X185050Y699298D01*
X185032Y699438D01*
X185018Y699578D01*
X185008Y699718D01*
X185002Y699859D01*
X185000Y700000D01*
X675000Y400000D02*
X675002Y400141D01*
X675008Y400282D01*
X675018Y400422D01*
X675032Y400562D01*
X675050Y400702D01*
X675071Y400841D01*
X675097Y400980D01*
X675126Y401118D01*
X675160Y401254D01*
X675197Y401390D01*
X675238Y401525D01*
X675283Y401659D01*
X675332Y401791D01*
X675384Y401922D01*
X675440Y402051D01*
X675500Y402178D01*
X675563Y402304D01*
X675629Y402428D01*
X675700Y402551D01*
X675773Y402671D01*
X675850Y402789D01*
X675930Y402905D01*
X676014Y403018D01*
X676100Y403129D01*
X676190Y403238D01*
X676283Y403344D01*
X676378Y403447D01*
X676477Y403548D01*
X676578Y403646D01*
X676682Y403741D01*
X676789Y403833D01*
X676898Y403922D01*
X677010Y404007D01*
X677124Y404090D01*
X677240Y404170D01*
X677359Y404246D01*
X677480Y404318D01*
X677602Y404388D01*
X677727Y404453D01*
X677853Y404516D01*
X677981Y404574D01*
X678111Y404629D01*
X678242Y404681D01*
X678375Y404728D01*
X678509Y404772D01*
X678644Y404813D01*
X678780Y404849D01*
X678917Y404881D01*
X679055Y404910D01*
X679193Y404935D01*
X679333Y404955D01*
X679473Y404972D01*
X679613Y404985D01*
X679754Y404994D01*
X679894Y404999D01*
X680035Y405000D01*
X680176Y404997D01*
X680317Y404990D01*
X680457Y404979D01*
X680597Y404964D01*
X680737Y404945D01*
X680876Y404923D01*
X681014Y404896D01*
X681152Y404866D01*
X681288Y404831D01*
X681424Y404793D01*
X681558Y404751D01*
X681692Y404705D01*
X681824Y404656D01*
X681954Y404602D01*
X682083Y404545D01*
X682210Y404485D01*
X682336Y404421D01*
X682459Y404353D01*
X682581Y404282D01*
X682701Y404208D01*
X682818Y404130D01*
X682933Y404049D01*
X683046Y403965D01*
X683157Y403878D01*
X683265Y403787D01*
X683370Y403694D01*
X683473Y403597D01*
X683573Y403498D01*
X683670Y403396D01*
X683764Y403291D01*
X683855Y403184D01*
X683943Y403074D01*
X684028Y402962D01*
X684110Y402847D01*
X684189Y402730D01*
X684264Y402611D01*
X684336Y402490D01*
X684404Y402367D01*
X684469Y402242D01*
X684531Y402115D01*
X684588Y401986D01*
X684643Y401856D01*
X684693Y401725D01*
X684740Y401592D01*
X684783Y401458D01*
X684822Y401322D01*
X684857Y401186D01*
X684889Y401049D01*
X684916Y400911D01*
X684940Y400772D01*
X684960Y400632D01*
X684976Y400492D01*
X684988Y400352D01*
X684996Y400211D01*
X685000Y400070D01*
X685000Y399930D01*
X684996Y399789D01*
X684988Y399648D01*
X684976Y399508D01*
X684960Y399368D01*
X684940Y399228D01*
X684916Y399089D01*
X684889Y398951D01*
X684857Y398814D01*
X684822Y398678D01*
X684783Y398542D01*
X684740Y398408D01*
X684693Y398275D01*
X684643Y398144D01*
X684588Y398014D01*
X684531Y397885D01*
X684469Y397758D01*
X684404Y397633D01*
X684336Y397510D01*
X684264Y397389D01*
X684189Y397270D01*
X684110Y397153D01*
X684028Y397038D01*
X683943Y396926D01*
X683855Y396816D01*
X683764Y396709D01*
X683670Y396604D01*
X683573Y396502D01*
X683473Y396403D01*
X683370Y396306D01*
X683265Y396213D01*
X683157Y396122D01*
X683046Y396035D01*
X682933Y395951D01*
X682818Y395870D01*
X682701Y395792D01*
X682581Y395718D01*
X682459Y395647D01*
X682336Y395579D01*
X682210Y395515D01*
X682083Y395455D01*
X681954Y395398D01*
X681824Y395344D01*
X681692Y395295D01*
X681558Y395249D01*
X681424Y395207D01*
X681288Y395169D01*
X681152Y395134D01*
X681014Y395104D01*
X680876Y395077D01*
X680737Y395055D01*
X680597Y395036D01*
X680457Y395021D01*
X680317Y395010D01*
X680176Y395003D01*
X680035Y395000D01*
X679894Y395001D01*
X679754Y395006D01*
X679613Y395015D01*
X679473Y395028D01*
X679333Y395045D01*
X679193Y395065D01*
X679055Y395090D01*
X678917Y395119D01*
X678780Y395151D01*
X678644Y395187D01*
X678509Y395228D01*
X678375Y395272D01*
X678242Y395319D01*
X678111Y395371D01*
X677981Y395426D01*
X677853Y395484D01*
X677727Y395547D01*
X677602Y395612D01*
X677480Y395682D01*
X677359Y395754D01*
X677240Y395830D01*
X677124Y395910D01*
X677010Y395993D01*
X676898Y396078D01*
X676789Y396167D01*
X676682Y396259D01*
X676578Y396354D01*
X676477Y396452D01*
X676378Y396553D01*
X676283Y396656D01*
X676190Y396762D01*
X676100Y396871D01*
X676014Y396982D01*
X675930Y397095D01*
X675850Y397211D01*
X675773Y397329D01*
X675700Y397449D01*
X675629Y397572D01*
X675563Y397696D01*
X675500Y397822D01*
X675440Y397949D01*
X675384Y398078D01*
X675332Y398209D01*
X675283Y398341D01*
X675238Y398475D01*
X675197Y398610D01*
X675160Y398746D01*
X675126Y398882D01*
X675097Y399020D01*
X675071Y399159D01*
X675050Y399298D01*
X675032Y399438D01*
X675018Y399578D01*
X675008Y399718D01*
X675002Y399859D01*
X675000Y400000D01*
X565000Y760000D02*
X565002Y760141D01*
X565008Y760282D01*
X565018Y760422D01*
X565032Y760562D01*
X565050Y760702D01*
X565071Y760841D01*
X565097Y760980D01*
X565126Y761118D01*
X565160Y761254D01*
X565197Y761390D01*
X565238Y761525D01*
X565283Y761659D01*
X565332Y761791D01*
X565384Y761922D01*
X565440Y762051D01*
X565500Y762178D01*
X565563Y762304D01*
X565629Y762428D01*
X565700Y762551D01*
X565773Y762671D01*
X565850Y762789D01*
X565930Y762905D01*
X566014Y763018D01*
X566100Y763129D01*
X566190Y763238D01*
X566283Y763344D01*
X566378Y763447D01*
X566477Y763548D01*
X566578Y763646D01*
X566682Y763741D01*
X566789Y763833D01*
X566898Y763922D01*
X567010Y764007D01*
X567124Y764090D01*
X567240Y764170D01*
X567359Y764246D01*
X567480Y764318D01*
X567602Y764388D01*
X567727Y764453D01*
X567853Y764516D01*
X567981Y764574D01*
X568111Y764629D01*
X568242Y764681D01*
X568375Y764728D01*
X568509Y764772D01*
X568644Y764813D01*
X568780Y764849D01*
X568917Y764881D01*
X569055Y764910D01*
X569193Y764935D01*
X569333Y764955D01*
X569473Y764972D01*
X569613Y764985D01*
X569754Y764994D01*
X569894Y764999D01*
X570035Y765000D01*
X570176Y764997D01*
X570317Y764990D01*
X570457Y764979D01*
X570597Y764964D01*
X570737Y764945D01*
X570876Y764923D01*
X571014Y764896D01*
X571152Y764866D01*
X571288Y764831D01*
X571424Y764793D01*
X571558Y764751D01*
X571692Y764705D01*
X571824Y764656D01*
X571954Y764602D01*
X572083Y764545D01*
X572210Y764485D01*
X572336Y764421D01*
X572459Y764353D01*
X572581Y764282D01*
X572701Y764208D01*
X572818Y764130D01*
X572933Y764049D01*
X573046Y763965D01*
X573157Y763878D01*
X573265Y763787D01*
X573370Y763694D01*
X573473Y763597D01*
X573573Y763498D01*
X573670Y763396D01*
X573764Y763291D01*
X573855Y763184D01*
X573943Y763074D01*
X574028Y762962D01*
X574110Y762847D01*
X574189Y762730D01*
X574264Y762611D01*
X574336Y762490D01*
X574404Y762367D01*
X574469Y762242D01*
X574531Y762115D01*
X574588Y761986D01*
X574643Y761856D01*
X574693Y761725D01*
X574740Y761592D01*
X574783Y761458D01*
X574822Y761322D01*
X574857Y761186D01*
X574889Y761049D01*
X574916Y760911D01*
X574940Y760772D01*
X574960Y760632D01*
X574976Y760492D01*
X574988Y760352D01*
X574996Y760211D01*
X575000Y760070D01*
X575000Y759930D01*
X574996Y759789D01*
X574988Y759648D01*
X574976Y759508D01*
X574960Y759368D01*
X574940Y759228D01*
X574916Y759089D01*
X574889Y758951D01*
X574857Y758814D01*
X574822Y758678D01*
X574783Y758542D01*
X574740Y758408D01*
X574693Y758275D01*
X574643Y758144D01*
X574588Y758014D01*
X574531Y757885D01*
X574469Y757758D01*
X574404Y757633D01*
X574336Y757510D01*
X574264Y757389D01*
X574189Y757270D01*
X574110Y757153D01*
X574028Y757038D01*
X573943Y756926D01*
X573855Y756816D01*
X573764Y756709D01*
X573670Y756604D01*
X573573Y756502D01*
X573473Y756403D01*
X573370Y756306D01*
X573265Y756213D01*
X573157Y756122D01*
X573046Y756035D01*
X572933Y755951D01*
X572818Y755870D01*
X572701Y755792D01*
X572581Y755718D01*
X572459Y755647D01*
X572336Y755579D01*
X572210Y755515D01*
X572083Y755455D01*
X571954Y755398D01*
X571824Y755344D01*
X571692Y755295D01*
X571558Y755249D01*
X571424Y755207D01*
X571288Y755169D01*
X571152Y755134D01*
X571014Y755104D01*
X570876Y755077D01*
X570737Y755055D01*
X570597Y755036D01*
X570457Y755021D01*
X570317Y755010D01*
X570176Y755003D01*
X570035Y755000D01*
X569894Y755001D01*
X569754Y755006D01*
X569613Y755015D01*
X569473Y755028D01*
X569333Y755045D01*
X569193Y755065D01*
X569055Y755090D01*
X568917Y755119D01*
X568780Y755151D01*
X568644Y755187D01*
X568509Y755228D01*
X568375Y755272D01*
X568242Y755319D01*
X568111Y755371D01*
X567981Y755426D01*
X567853Y755484D01*
X567727Y755547D01*
X567602Y755612D01*
X567480Y755682D01*
X567359Y755754D01*
X567240Y755830D01*
X567124Y755910D01*
X567010Y755993D01*
X566898Y756078D01*
X566789Y756167D01*
X566682Y756259D01*
X566578Y756354D01*
X566477Y756452D01*
X566378Y756553D01*
X566283Y756656D01*
X566190Y756762D01*
X566100Y756871D01*
X566014Y756982D01*
X565930Y757095D01*
X565850Y757211D01*
X565773Y757329D01*
X565700Y757449D01*
X565629Y757572D01*
X565563Y757696D01*
X565500Y757822D01*
X565440Y757949D01*
X565384Y758078D01*
X565332Y758209D01*
X565283Y758341D01*
X565238Y758475D01*
X565197Y758610D01*
X565160Y758746D01*
X565126Y758882D01*
X565097Y759020D01*
X565071Y759159D01*
X565050Y759298D01*
X565032Y759438D01*
X565018Y759578D01*
X565008Y759718D01*
X565002Y759859D01*
X565000Y760000D01*
X585000Y40000D02*
X585002Y40141D01*
X585008Y40282D01*
X585018Y40422D01*
X585032Y40562D01*
X585050Y40702D01*
X585071Y40841D01*
X585097Y40980D01*
X585126Y41118D01*
X585160Y41254D01*
X585197Y41390D01*
X585238Y41525D01*
X585283Y41659D01*
X585332Y41791D01*
X585384Y41922D01*
X585440Y42051D01*
X585500Y42178D01*
X585563Y42304D01*
X585629Y42428D01*
X585700Y42551D01*
X585773Y42671D01*
X585850Y42789D01*
X585930Y42905D01*
X586014Y43018D01*
X586100Y43129D01*
X586190Y43238D01*
X586283Y43344D01*
X586378Y43447D01*
X586477Y43548D01*
X586578Y43646D01*
X586682Y43741D01*
X586789Y43833D01*
X586898Y43922D01*
X587010Y44007D01*
X587124Y44090D01*
X587240Y44170D01*
X587359Y44246D01*
X587480Y44318D01*
X587602Y44388D01*
X587727Y44453D01*
X587853Y44516D01*
X587981Y44574D01*
X588111Y44629D01*
X588242Y44681D01*
X588375Y44728D01*
X588509Y44772D01*
X588644Y44813D01*
X588780Y44849D01*
X588917Y44881D01*
X589055Y44910D01*
X589193Y44935D01*
X589333Y44955D01*
X589473Y44972D01*
X589613Y44985D01*
X589754Y44994D01*
X589894Y44999D01*
X590035Y45000D01*
X590176Y44997D01*
X590317Y44990D01*
X590457Y44979D01*
X590597Y44964D01*
X590737Y44945D01*
X590876Y44923D01*
X591014Y44896D01*
X591152Y44866D01*
X591288Y44831D01*
X591424Y44793D01*
X591558Y44751D01*
X591692Y44705D01*
X591824Y44656D01*
X591954Y44602D01*
X592083Y44545D01*
X592210Y44485D01*
X592336Y44421D01*
X592459Y44353D01*
X592581Y44282D01*
X592701Y44208D01*
X592818Y44130D01*
X592933Y44049D01*
X593046Y43965D01*
X593157Y43878D01*
X593265Y43787D01*
X593370Y43694D01*
X593473Y43597D01*
X593573Y43498D01*
X593670Y43396D01*
X593764Y43291D01*
X593855Y43184D01*
X593943Y43074D01*
X594028Y42962D01*
X594110Y42847D01*
X594189Y42730D01*
X594264Y42611D01*
X594336Y42490D01*
X594404Y42367D01*
X594469Y42242D01*
X594531Y42115D01*
X594588Y41986D01*
X594643Y41856D01*
X594693Y41725D01*
X594740Y41592D01*
X594783Y41458D01*
X594822Y41322D01*
X594857Y41186D01*
X594889Y41049D01*
X594916Y40911D01*
X594940Y40772D01*
X594960Y40632D01*
X594976Y40492D01*
X594988Y40352D01*
X594996Y40211D01*
X595000Y40070D01*
X595000Y39930D01*
X594996Y39789D01*
X594988Y39648D01*
X594976Y39508D01*
X594960Y39368D01*
X594940Y39228D01*
X594916Y39089D01*
X594889Y38951D01*
X594857Y38814D01*
X594822Y38678D01*
X594783Y38542D01*
X594740Y38408D01*
X594693Y38275D01*
X594643Y38144D01*
X594588Y38014D01*
X594531Y37885D01*
X594469Y37758D01*
X594404Y37633D01*
X594336Y37510D01*
X594264Y37389D01*
X594189Y37270D01*
X594110Y37153D01*
X594028Y37038D01*
X593943Y36926D01*
X593855Y36816D01*
X593764Y36709D01*
X593670Y36604D01*
X593573Y36502D01*
X593473Y36403D01*
X593370Y36306D01*
X593265Y36213D01*
X593157Y36122D01*
X593046Y36035D01*
X592933Y35951D01*
X592818Y35870D01*
X592701Y35792D01*
X592581Y35718D01*
X592459Y35647D01*
X592336Y35579D01*
X592210Y35515D01*
X592083Y35455D01*
X591954Y35398D01*
X591824Y35344D01*
X591692Y35295D01*
X591558Y35249D01*
X591424Y35207D01*
X591288Y35169D01*
X591152Y35134D01*
X591014Y35104D01*
X590876Y35077D01*
X590737Y35055D01*
X590597Y35036D01*
X590457Y35021D01*
X590317Y35010D01*
X590176Y35003D01*
X590035Y35000D01*
X589894Y35001D01*
X589754Y35006D01*
X589613Y35015D01*
X589473Y35028D01*
X589333Y35045D01*
X589193Y35065D01*
X589055Y35090D01*
X588917Y35119D01*
X588780Y35151D01*
X588644Y35187D01*
X588509Y35228D01*
X588375Y35272D01*
X588242Y35319D01*
X588111Y35371D01*
X587981Y35426D01*
X587853Y35484D01*
X587727Y35547D01*
X587602Y35612D01*
X587480Y35682D01*
X587359Y35754D01*
X587240Y35830D01*
X587124Y35910D01*
X587010Y35993D01*
X586898Y36078D01*
X586789Y36167D01*
X586682Y36259D01*
X586578Y36354D01*
X586477Y36452D01*
X586378Y36553D01*
X586283Y36656D01*
X586190Y36762D01*
X586100Y36871D01*
X586014Y36982D01*
X585930Y37095D01*
X585850Y37211D01*
X585773Y37329D01*
X585700Y37449D01*
X585629Y37572D01*
X585563Y37696D01*
X585500Y37822D01*
X585440Y37949D01*
X585384Y38078D01*
X585332Y38209D01*
X585283Y38341D01*
X585238Y38475D01*
X585197Y38610D01*
X585160Y38746D01*
X585126Y38882D01*
X585097Y39020D01*
X585071Y39159D01*
X585050Y39298D01*
X585032Y39438D01*
X585018Y39578D01*
X585008Y39718D01*
X585002Y39859D01*
X585000Y40000D01*
D13*
X497500Y385000D02*
X497500Y392500D01*
X497500Y415000D01*
X522500Y415000D01*
X522500Y385000D01*
X505000Y385000D01*
X497500Y385000D01*
X505000Y385000D02*
X497500Y392500D01*
X437122Y703598D02*
X427160Y704469D01*
X437122Y703598D02*
X496893Y698368D01*
X516817Y696625D01*
X512460Y646815D01*
X492536Y648558D01*
X432764Y653788D01*
X422802Y654659D01*
X427160Y704469D01*
X437122Y703598D02*
X437558Y708579D01*
X412653Y710757D01*
X407423Y650986D01*
X432328Y648807D01*
X432764Y653788D01*
X437122Y703598D01*
X496894Y698368D02*
X497492Y698185D01*
X498085Y697988D01*
X498673Y697775D01*
X499256Y697549D01*
X499833Y697308D01*
X500404Y697054D01*
X500969Y696785D01*
X501527Y696503D01*
X502077Y696207D01*
X502621Y695897D01*
X503156Y695575D01*
X503684Y695239D01*
X504203Y694891D01*
X504713Y694529D01*
X505215Y694156D01*
X505707Y693770D01*
X506189Y693373D01*
X506662Y692963D01*
X507124Y692542D01*
X507576Y692110D01*
X508017Y691667D01*
X508448Y691214D01*
X508867Y690749D01*
X509274Y690275D01*
X509670Y689791D01*
X510054Y689297D01*
X510425Y688795D01*
X510784Y688283D01*
X511130Y687762D01*
X511464Y687233D01*
X511784Y686696D01*
X512092Y686152D01*
X512385Y685600D01*
X512666Y685041D01*
X512932Y684475D01*
X513184Y683903D01*
X513422Y683325D01*
X513647Y682741D01*
X513856Y682152D01*
X514051Y681558D01*
X514232Y680960D01*
X514398Y680357D01*
X514549Y679750D01*
X514685Y679140D01*
X514806Y678526D01*
X514911Y677910D01*
X515002Y677291D01*
X515078Y676671D01*
X515138Y676048D01*
X515183Y675425D01*
X515213Y674800D01*
X515228Y674175D01*
X515227Y673550D01*
X515210Y672925D01*
X515179Y672300D01*
X515132Y671677D01*
X515070Y671055D01*
X514992Y670434D01*
X514900Y669816D01*
X514792Y669200D01*
X514669Y668587D01*
X514532Y667977D01*
X514379Y667371D01*
X514212Y666768D01*
X514029Y666170D01*
X513832Y665577D01*
X513621Y664988D01*
X513395Y664405D01*
X513156Y663828D01*
X512902Y663257D01*
X512634Y662692D01*
X512352Y662133D01*
X512057Y661582D01*
X511748Y661039D01*
X511426Y660503D01*
X511091Y659975D01*
X510743Y659455D01*
X510382Y658944D01*
X510009Y658443D01*
X509624Y657950D01*
X509227Y657467D01*
X508818Y656994D01*
X508398Y656531D01*
X507967Y656079D01*
X507524Y655637D01*
X507071Y655206D01*
X506607Y654787D01*
X506134Y654378D01*
X505650Y653982D01*
X505157Y653598D01*
X504654Y653226D01*
X504143Y652866D01*
X503623Y652519D01*
X503094Y652185D01*
X502558Y651864D01*
X502014Y651556D01*
X501462Y651262D01*
X500903Y650981D01*
X500338Y650714D01*
X499766Y650461D01*
X499188Y650222D01*
X498605Y649997D01*
X498016Y649787D01*
X497422Y649591D01*
X496824Y649410D01*
X496221Y649243D01*
X495615Y649091D01*
X495005Y648955D01*
X494391Y648833D01*
X493775Y648726D01*
X493157Y648635D01*
X492536Y648558D01*
D14*
X438798Y691158D02*
X440681Y695502D01*
X441781Y690897D01*
X441506Y692048D02*
X439269Y692244D01*
D15*
G36*
X432328Y648808D02*
X407424Y650986D01*
X407860Y655966D01*
X432764Y653788D01*
X432328Y648808D01*
G37*
D13*
X437122Y773598D02*
X427160Y774469D01*
X437122Y773598D02*
X496893Y768368D01*
X516817Y766625D01*
X512460Y716815D01*
X492536Y718558D01*
X432764Y723788D01*
X422802Y724659D01*
X427160Y774469D01*
X437122Y773598D02*
X437558Y778579D01*
X412653Y780757D01*
X407423Y720986D01*
X432328Y718807D01*
X432764Y723788D01*
X437122Y773598D01*
X496894Y768368D02*
X497492Y768185D01*
X498085Y767988D01*
X498673Y767775D01*
X499256Y767549D01*
X499833Y767308D01*
X500404Y767054D01*
X500969Y766785D01*
X501527Y766503D01*
X502077Y766207D01*
X502621Y765897D01*
X503156Y765575D01*
X503684Y765239D01*
X504203Y764891D01*
X504713Y764529D01*
X505215Y764156D01*
X505707Y763770D01*
X506189Y763373D01*
X506662Y762963D01*
X507124Y762542D01*
X507576Y762110D01*
X508017Y761667D01*
X508448Y761214D01*
X508867Y760749D01*
X509274Y760275D01*
X509670Y759791D01*
X510054Y759297D01*
X510425Y758795D01*
X510784Y758283D01*
X511130Y757762D01*
X511464Y757233D01*
X511784Y756696D01*
X512092Y756152D01*
X512385Y755600D01*
X512666Y755041D01*
X512932Y754475D01*
X513184Y753903D01*
X513422Y753325D01*
X513647Y752741D01*
X513856Y752152D01*
X514051Y751558D01*
X514232Y750960D01*
X514398Y750357D01*
X514549Y749750D01*
X514685Y749140D01*
X514806Y748526D01*
X514911Y747910D01*
X515002Y747291D01*
X515078Y746671D01*
X515138Y746048D01*
X515183Y745425D01*
X515213Y744800D01*
X515228Y744175D01*
X515227Y743550D01*
X515210Y742925D01*
X515179Y742300D01*
X515132Y741677D01*
X515070Y741055D01*
X514992Y740434D01*
X514900Y739816D01*
X514792Y739200D01*
X514669Y738587D01*
X514532Y737977D01*
X514379Y737371D01*
X514212Y736768D01*
X514029Y736170D01*
X513832Y735577D01*
X513621Y734988D01*
X513395Y734405D01*
X513156Y733828D01*
X512902Y733257D01*
X512634Y732692D01*
X512352Y732133D01*
X512057Y731582D01*
X511748Y731039D01*
X511426Y730503D01*
X511091Y729975D01*
X510743Y729455D01*
X510382Y728944D01*
X510009Y728443D01*
X509624Y727950D01*
X509227Y727467D01*
X508818Y726994D01*
X508398Y726531D01*
X507967Y726079D01*
X507524Y725637D01*
X507071Y725206D01*
X506607Y724787D01*
X506134Y724378D01*
X505650Y723982D01*
X505157Y723598D01*
X504654Y723226D01*
X504143Y722866D01*
X503623Y722519D01*
X503094Y722185D01*
X502558Y721864D01*
X502014Y721556D01*
X501462Y721262D01*
X500903Y720981D01*
X500338Y720714D01*
X499766Y720461D01*
X499188Y720222D01*
X498605Y719997D01*
X498016Y719787D01*
X497422Y719591D01*
X496824Y719410D01*
X496221Y719243D01*
X495615Y719091D01*
X495005Y718955D01*
X494391Y718833D01*
X493775Y718726D01*
X493157Y718635D01*
X492536Y718558D01*
D14*
X438798Y761158D02*
X440681Y765502D01*
X441781Y760897D01*
X441506Y762048D02*
X439269Y762244D01*
D15*
G36*
X432328Y718808D02*
X407424Y720986D01*
X407860Y725966D01*
X432764Y723788D01*
X432328Y718808D01*
G37*
D13*
X432764Y146212D02*
X422802Y145341D01*
X432764Y146212D02*
X492536Y151442D01*
X512460Y153185D01*
X516817Y103375D01*
X496893Y101632D01*
X437122Y96402D01*
X427160Y95531D01*
X422802Y145341D01*
X432764Y146212D02*
X432328Y151193D01*
X407423Y149014D01*
X412653Y89243D01*
X437558Y91421D01*
X437122Y96402D01*
X432764Y146212D01*
X492536Y151442D02*
X493157Y151365D01*
X493775Y151274D01*
X494391Y151167D01*
X495005Y151045D01*
X495615Y150909D01*
X496221Y150757D01*
X496824Y150590D01*
X497422Y150409D01*
X498016Y150213D01*
X498605Y150003D01*
X499188Y149778D01*
X499766Y149539D01*
X500338Y149286D01*
X500903Y149019D01*
X501462Y148738D01*
X502014Y148444D01*
X502558Y148136D01*
X503094Y147815D01*
X503623Y147481D01*
X504143Y147134D01*
X504654Y146774D01*
X505157Y146402D01*
X505650Y146018D01*
X506134Y145622D01*
X506607Y145213D01*
X507071Y144794D01*
X507524Y144363D01*
X507967Y143921D01*
X508398Y143469D01*
X508818Y143006D01*
X509227Y142533D01*
X509624Y142050D01*
X510009Y141557D01*
X510382Y141056D01*
X510743Y140545D01*
X511091Y140025D01*
X511426Y139497D01*
X511748Y138961D01*
X512057Y138418D01*
X512352Y137867D01*
X512634Y137308D01*
X512902Y136743D01*
X513156Y136172D01*
X513395Y135595D01*
X513621Y135012D01*
X513832Y134423D01*
X514029Y133830D01*
X514212Y133232D01*
X514379Y132629D01*
X514532Y132023D01*
X514669Y131413D01*
X514792Y130800D01*
X514900Y130184D01*
X514992Y129566D01*
X515070Y128945D01*
X515132Y128323D01*
X515179Y127700D01*
X515210Y127075D01*
X515227Y126450D01*
X515228Y125825D01*
X515213Y125200D01*
X515183Y124575D01*
X515138Y123952D01*
X515078Y123329D01*
X515002Y122709D01*
X514911Y122090D01*
X514806Y121474D01*
X514685Y120860D01*
X514549Y120250D01*
X514398Y119643D01*
X514232Y119040D01*
X514051Y118442D01*
X513856Y117848D01*
X513647Y117259D01*
X513422Y116675D01*
X513184Y116097D01*
X512932Y115525D01*
X512666Y114959D01*
X512385Y114400D01*
X512092Y113848D01*
X511784Y113304D01*
X511464Y112767D01*
X511130Y112238D01*
X510784Y111717D01*
X510425Y111205D01*
X510054Y110703D01*
X509670Y110209D01*
X509274Y109725D01*
X508867Y109251D01*
X508448Y108786D01*
X508017Y108333D01*
X507576Y107890D01*
X507124Y107458D01*
X506662Y107037D01*
X506189Y106627D01*
X505707Y106230D01*
X505215Y105844D01*
X504713Y105471D01*
X504203Y105109D01*
X503684Y104761D01*
X503156Y104425D01*
X502621Y104103D01*
X502077Y103793D01*
X501527Y103497D01*
X500969Y103215D01*
X500404Y102946D01*
X499833Y102692D01*
X499256Y102451D01*
X498673Y102225D01*
X498085Y102012D01*
X497492Y101815D01*
X496894Y101632D01*
D14*
X436575Y134253D02*
X437675Y138858D01*
X439558Y134514D01*
X439087Y135600D02*
X436850Y135404D01*
D15*
G36*
X437557Y91422D02*
X412653Y89244D01*
X412217Y94224D01*
X437121Y96402D01*
X437557Y91422D01*
G37*
D13*
X432764Y76212D02*
X422802Y75341D01*
X432764Y76212D02*
X492536Y81442D01*
X512460Y83185D01*
X516817Y33375D01*
X496893Y31632D01*
X437122Y26402D01*
X427160Y25531D01*
X422802Y75341D01*
X432764Y76212D02*
X432328Y81193D01*
X407423Y79014D01*
X412653Y19243D01*
X437558Y21421D01*
X437122Y26402D01*
X432764Y76212D01*
X492536Y81442D02*
X493157Y81365D01*
X493775Y81274D01*
X494391Y81167D01*
X495005Y81045D01*
X495615Y80909D01*
X496221Y80757D01*
X496824Y80590D01*
X497422Y80409D01*
X498016Y80213D01*
X498605Y80003D01*
X499188Y79778D01*
X499766Y79539D01*
X500338Y79286D01*
X500903Y79019D01*
X501462Y78738D01*
X502014Y78444D01*
X502558Y78136D01*
X503094Y77815D01*
X503623Y77481D01*
X504143Y77134D01*
X504654Y76774D01*
X505157Y76402D01*
X505650Y76018D01*
X506134Y75622D01*
X506607Y75213D01*
X507071Y74794D01*
X507524Y74363D01*
X507967Y73921D01*
X508398Y73469D01*
X508818Y73006D01*
X509227Y72533D01*
X509624Y72050D01*
X510009Y71557D01*
X510382Y71056D01*
X510743Y70545D01*
X511091Y70025D01*
X511426Y69497D01*
X511748Y68961D01*
X512057Y68418D01*
X512352Y67867D01*
X512634Y67308D01*
X512902Y66743D01*
X513156Y66172D01*
X513395Y65595D01*
X513621Y65012D01*
X513832Y64423D01*
X514029Y63830D01*
X514212Y63232D01*
X514379Y62629D01*
X514532Y62023D01*
X514669Y61413D01*
X514792Y60800D01*
X514900Y60184D01*
X514992Y59566D01*
X515070Y58945D01*
X515132Y58323D01*
X515179Y57700D01*
X515210Y57075D01*
X515227Y56450D01*
X515228Y55825D01*
X515213Y55200D01*
X515183Y54575D01*
X515138Y53952D01*
X515078Y53329D01*
X515002Y52709D01*
X514911Y52090D01*
X514806Y51474D01*
X514685Y50860D01*
X514549Y50250D01*
X514398Y49643D01*
X514232Y49040D01*
X514051Y48442D01*
X513856Y47848D01*
X513647Y47259D01*
X513422Y46675D01*
X513184Y46097D01*
X512932Y45525D01*
X512666Y44959D01*
X512385Y44400D01*
X512092Y43848D01*
X511784Y43304D01*
X511464Y42767D01*
X511130Y42238D01*
X510784Y41717D01*
X510425Y41205D01*
X510054Y40703D01*
X509670Y40209D01*
X509274Y39725D01*
X508867Y39251D01*
X508448Y38786D01*
X508017Y38333D01*
X507576Y37890D01*
X507124Y37458D01*
X506662Y37037D01*
X506189Y36627D01*
X505707Y36230D01*
X505215Y35844D01*
X504713Y35471D01*
X504203Y35109D01*
X503684Y34761D01*
X503156Y34425D01*
X502621Y34103D01*
X502077Y33793D01*
X501527Y33497D01*
X500969Y33215D01*
X500404Y32946D01*
X499833Y32692D01*
X499256Y32451D01*
X498673Y32225D01*
X498085Y32012D01*
X497492Y31815D01*
X496894Y31632D01*
D14*
X436575Y64253D02*
X437675Y68858D01*
X439558Y64514D01*
X439087Y65600D02*
X436850Y65404D01*
D15*
G36*
X437557Y21422D02*
X412653Y19244D01*
X412217Y24224D01*
X437121Y26402D01*
X437557Y21422D01*
G37*
D13*
X525858Y511213D02*
X532929Y518284D01*
X575355Y560711D01*
X589497Y574853D01*
X624853Y539497D01*
X610711Y525355D01*
X568284Y482929D01*
X561213Y475858D01*
X525858Y511213D01*
X532929Y518284D02*
X529393Y521820D01*
X511716Y504142D01*
X554142Y461716D01*
X571820Y479393D01*
X568284Y482929D01*
X532929Y518284D01*
X575355Y560710D02*
X575879Y561051D01*
X576412Y561378D01*
X576953Y561692D01*
X577501Y561993D01*
X578056Y562281D01*
X578618Y562554D01*
X579187Y562814D01*
X579762Y563060D01*
X580342Y563292D01*
X580929Y563509D01*
X581520Y563712D01*
X582116Y563900D01*
X582717Y564074D01*
X583322Y564233D01*
X583930Y564377D01*
X584542Y564506D01*
X585157Y564620D01*
X585774Y564719D01*
X586394Y564802D01*
X587015Y564871D01*
X587638Y564924D01*
X588262Y564962D01*
X588887Y564985D01*
X589512Y564992D01*
X590137Y564984D01*
X590762Y564961D01*
X591386Y564922D01*
X592009Y564868D01*
X592631Y564799D01*
X593250Y564714D01*
X593867Y564615D01*
X594482Y564500D01*
X595094Y564370D01*
X595702Y564225D01*
X596306Y564066D01*
X596907Y563891D01*
X597503Y563702D01*
X598094Y563499D01*
X598680Y563281D01*
X599261Y563048D01*
X599835Y562802D01*
X600404Y562541D01*
X600965Y562267D01*
X601520Y561979D01*
X602068Y561677D01*
X602608Y561362D01*
X603140Y561034D01*
X603664Y560693D01*
X604180Y560339D01*
X604687Y559973D01*
X605184Y559594D01*
X605672Y559204D01*
X606151Y558801D01*
X606619Y558387D01*
X607077Y557961D01*
X607525Y557525D01*
X607961Y557077D01*
X608387Y556619D01*
X608801Y556151D01*
X609204Y555672D01*
X609594Y555184D01*
X609973Y554687D01*
X610339Y554180D01*
X610693Y553664D01*
X611034Y553140D01*
X611362Y552608D01*
X611677Y552068D01*
X611979Y551520D01*
X612267Y550965D01*
X612541Y550404D01*
X612802Y549835D01*
X613048Y549261D01*
X613281Y548680D01*
X613499Y548094D01*
X613702Y547503D01*
X613891Y546907D01*
X614066Y546306D01*
X614225Y545702D01*
X614370Y545094D01*
X614500Y544482D01*
X614615Y543867D01*
X614714Y543250D01*
X614799Y542631D01*
X614868Y542009D01*
X614922Y541386D01*
X614961Y540762D01*
X614984Y540137D01*
X614992Y539512D01*
X614985Y538887D01*
X614962Y538262D01*
X614924Y537638D01*
X614871Y537015D01*
X614802Y536394D01*
X614719Y535774D01*
X614620Y535157D01*
X614506Y534542D01*
X614377Y533930D01*
X614233Y533322D01*
X614074Y532717D01*
X613900Y532116D01*
X613712Y531520D01*
X613509Y530929D01*
X613292Y530342D01*
X613060Y529762D01*
X612814Y529187D01*
X612554Y528618D01*
X612281Y528056D01*
X611993Y527501D01*
X611692Y526953D01*
X611378Y526412D01*
X611051Y525879D01*
X610710Y525355D01*
D14*
X543536Y511572D02*
X541418Y515807D01*
X545653Y513690D01*
X544594Y514219D02*
X543006Y512631D01*
D15*
G36*
X571819Y479393D02*
X554142Y461716D01*
X550607Y465251D01*
X568284Y482928D01*
X571819Y479393D01*
G37*
D13*
X592929Y458284D02*
X585858Y451213D01*
X592929Y458284D02*
X635355Y500711D01*
X649497Y514853D01*
X684853Y479497D01*
X670711Y465355D01*
X628284Y422929D01*
X621213Y415858D01*
X585858Y451213D01*
X592929Y458284D02*
X589393Y461820D01*
X571716Y444142D01*
X614142Y401716D01*
X631820Y419393D01*
X628284Y422929D01*
X592929Y458284D01*
X635355Y500710D02*
X635879Y501051D01*
X636412Y501378D01*
X636953Y501692D01*
X637501Y501993D01*
X638056Y502281D01*
X638618Y502554D01*
X639187Y502814D01*
X639762Y503060D01*
X640342Y503292D01*
X640929Y503509D01*
X641520Y503712D01*
X642116Y503900D01*
X642717Y504074D01*
X643322Y504233D01*
X643930Y504377D01*
X644542Y504506D01*
X645157Y504620D01*
X645774Y504719D01*
X646394Y504802D01*
X647015Y504871D01*
X647638Y504924D01*
X648262Y504962D01*
X648887Y504985D01*
X649512Y504992D01*
X650137Y504984D01*
X650762Y504961D01*
X651386Y504922D01*
X652009Y504868D01*
X652631Y504799D01*
X653250Y504714D01*
X653867Y504615D01*
X654482Y504500D01*
X655094Y504370D01*
X655702Y504225D01*
X656306Y504066D01*
X656907Y503891D01*
X657503Y503702D01*
X658094Y503499D01*
X658680Y503281D01*
X659261Y503048D01*
X659835Y502802D01*
X660404Y502541D01*
X660965Y502267D01*
X661520Y501979D01*
X662068Y501677D01*
X662608Y501362D01*
X663140Y501034D01*
X663664Y500693D01*
X664180Y500339D01*
X664687Y499973D01*
X665184Y499594D01*
X665672Y499204D01*
X666151Y498801D01*
X666619Y498387D01*
X667077Y497961D01*
X667525Y497525D01*
X667961Y497077D01*
X668387Y496619D01*
X668801Y496151D01*
X669204Y495672D01*
X669594Y495184D01*
X669973Y494687D01*
X670339Y494180D01*
X670693Y493664D01*
X671034Y493140D01*
X671362Y492608D01*
X671677Y492068D01*
X671979Y491520D01*
X672267Y490965D01*
X672541Y490404D01*
X672802Y489835D01*
X673048Y489261D01*
X673281Y488680D01*
X673499Y488094D01*
X673702Y487503D01*
X673891Y486907D01*
X674066Y486306D01*
X674225Y485702D01*
X674370Y485094D01*
X674500Y484482D01*
X674615Y483867D01*
X674714Y483250D01*
X674799Y482631D01*
X674868Y482009D01*
X674922Y481386D01*
X674961Y480762D01*
X674984Y480137D01*
X674992Y479512D01*
X674985Y478887D01*
X674962Y478262D01*
X674924Y477638D01*
X674871Y477015D01*
X674802Y476394D01*
X674719Y475774D01*
X674620Y475157D01*
X674506Y474542D01*
X674377Y473930D01*
X674233Y473322D01*
X674074Y472717D01*
X673900Y472116D01*
X673712Y471520D01*
X673509Y470929D01*
X673292Y470342D01*
X673060Y469762D01*
X672814Y469187D01*
X672554Y468618D01*
X672281Y468056D01*
X671993Y467501D01*
X671692Y466953D01*
X671378Y466412D01*
X671051Y465879D01*
X670710Y465355D01*
D14*
X603536Y451572D02*
X601418Y455807D01*
X605653Y453690D01*
X604594Y454219D02*
X603006Y452631D01*
D15*
G36*
X631819Y419393D02*
X614142Y401716D01*
X610607Y405251D01*
X628284Y422928D01*
X631819Y419393D01*
G37*
D13*
X621213Y384142D02*
X628284Y377071D01*
X670711Y334645D01*
X684853Y320503D01*
X649497Y285147D01*
X635355Y299289D01*
X592929Y341716D01*
X585858Y348787D01*
X621213Y384142D01*
X628284Y377071D02*
X631820Y380607D01*
X614142Y398284D01*
X571716Y355858D01*
X589393Y338180D01*
X592929Y341716D01*
X628284Y377071D01*
X670710Y334645D02*
X671051Y334121D01*
X671378Y333588D01*
X671692Y333047D01*
X671993Y332499D01*
X672281Y331944D01*
X672554Y331382D01*
X672814Y330813D01*
X673060Y330238D01*
X673292Y329658D01*
X673509Y329071D01*
X673712Y328480D01*
X673900Y327884D01*
X674074Y327283D01*
X674233Y326678D01*
X674377Y326070D01*
X674506Y325458D01*
X674620Y324843D01*
X674719Y324226D01*
X674802Y323606D01*
X674871Y322985D01*
X674924Y322362D01*
X674962Y321738D01*
X674985Y321113D01*
X674992Y320488D01*
X674984Y319863D01*
X674961Y319238D01*
X674922Y318614D01*
X674868Y317991D01*
X674799Y317369D01*
X674714Y316750D01*
X674615Y316133D01*
X674500Y315518D01*
X674370Y314906D01*
X674225Y314298D01*
X674066Y313694D01*
X673891Y313093D01*
X673702Y312497D01*
X673499Y311906D01*
X673281Y311320D01*
X673048Y310739D01*
X672802Y310165D01*
X672541Y309596D01*
X672267Y309035D01*
X671979Y308480D01*
X671677Y307932D01*
X671362Y307392D01*
X671034Y306860D01*
X670693Y306336D01*
X670339Y305820D01*
X669973Y305313D01*
X669594Y304816D01*
X669204Y304328D01*
X668801Y303849D01*
X668387Y303381D01*
X667961Y302923D01*
X667525Y302475D01*
X667077Y302039D01*
X666619Y301613D01*
X666151Y301199D01*
X665672Y300796D01*
X665184Y300406D01*
X664687Y300027D01*
X664180Y299661D01*
X663664Y299307D01*
X663140Y298966D01*
X662608Y298638D01*
X662068Y298323D01*
X661520Y298021D01*
X660965Y297733D01*
X660404Y297459D01*
X659835Y297198D01*
X659261Y296952D01*
X658680Y296719D01*
X658094Y296501D01*
X657503Y296298D01*
X656907Y296109D01*
X656306Y295934D01*
X655702Y295775D01*
X655094Y295630D01*
X654482Y295500D01*
X653867Y295385D01*
X653250Y295286D01*
X652631Y295201D01*
X652009Y295132D01*
X651386Y295078D01*
X650762Y295039D01*
X650137Y295016D01*
X649512Y295008D01*
X648887Y295015D01*
X648262Y295038D01*
X647638Y295076D01*
X647015Y295129D01*
X646394Y295198D01*
X645774Y295281D01*
X645157Y295380D01*
X644542Y295494D01*
X643930Y295623D01*
X643322Y295767D01*
X642717Y295926D01*
X642116Y296100D01*
X641520Y296288D01*
X640929Y296491D01*
X640342Y296708D01*
X639762Y296940D01*
X639187Y297186D01*
X638618Y297446D01*
X638056Y297719D01*
X637501Y298007D01*
X636953Y298308D01*
X636412Y298622D01*
X635879Y298949D01*
X635355Y299290D01*
D14*
X621572Y366464D02*
X625807Y368582D01*
X623690Y364347D01*
X624219Y365406D02*
X622631Y366994D01*
D15*
G36*
X589393Y338181D02*
X571716Y355858D01*
X575251Y359393D01*
X592928Y341716D01*
X589393Y338181D01*
G37*
D13*
X568284Y317071D02*
X561213Y324142D01*
X568284Y317071D02*
X610711Y274645D01*
X624853Y260503D01*
X589497Y225147D01*
X575355Y239289D01*
X532929Y281716D01*
X525858Y288787D01*
X561213Y324142D01*
X568284Y317071D02*
X571820Y320607D01*
X554142Y338284D01*
X511716Y295858D01*
X529393Y278180D01*
X532929Y281716D01*
X568284Y317071D01*
X610710Y274645D02*
X611051Y274121D01*
X611378Y273588D01*
X611692Y273047D01*
X611993Y272499D01*
X612281Y271944D01*
X612554Y271382D01*
X612814Y270813D01*
X613060Y270238D01*
X613292Y269658D01*
X613509Y269071D01*
X613712Y268480D01*
X613900Y267884D01*
X614074Y267283D01*
X614233Y266678D01*
X614377Y266070D01*
X614506Y265458D01*
X614620Y264843D01*
X614719Y264226D01*
X614802Y263606D01*
X614871Y262985D01*
X614924Y262362D01*
X614962Y261738D01*
X614985Y261113D01*
X614992Y260488D01*
X614984Y259863D01*
X614961Y259238D01*
X614922Y258614D01*
X614868Y257991D01*
X614799Y257369D01*
X614714Y256750D01*
X614615Y256133D01*
X614500Y255518D01*
X614370Y254906D01*
X614225Y254298D01*
X614066Y253694D01*
X613891Y253093D01*
X613702Y252497D01*
X613499Y251906D01*
X613281Y251320D01*
X613048Y250739D01*
X612802Y250165D01*
X612541Y249596D01*
X612267Y249035D01*
X611979Y248480D01*
X611677Y247932D01*
X611362Y247392D01*
X611034Y246860D01*
X610693Y246336D01*
X610339Y245820D01*
X609973Y245313D01*
X609594Y244816D01*
X609204Y244328D01*
X608801Y243849D01*
X608387Y243381D01*
X607961Y242923D01*
X607525Y242475D01*
X607077Y242039D01*
X606619Y241613D01*
X606151Y241199D01*
X605672Y240796D01*
X605184Y240406D01*
X604687Y240027D01*
X604180Y239661D01*
X603664Y239307D01*
X603140Y238966D01*
X602608Y238638D01*
X602068Y238323D01*
X601520Y238021D01*
X600965Y237733D01*
X600404Y237459D01*
X599835Y237198D01*
X599261Y236952D01*
X598680Y236719D01*
X598094Y236501D01*
X597503Y236298D01*
X596907Y236109D01*
X596306Y235934D01*
X595702Y235775D01*
X595094Y235630D01*
X594482Y235500D01*
X593867Y235385D01*
X593250Y235286D01*
X592631Y235201D01*
X592009Y235132D01*
X591386Y235078D01*
X590762Y235039D01*
X590137Y235016D01*
X589512Y235008D01*
X588887Y235015D01*
X588262Y235038D01*
X587638Y235076D01*
X587015Y235129D01*
X586394Y235198D01*
X585774Y235281D01*
X585157Y235380D01*
X584542Y235494D01*
X583930Y235623D01*
X583322Y235767D01*
X582717Y235926D01*
X582116Y236100D01*
X581520Y236288D01*
X580929Y236491D01*
X580342Y236708D01*
X579762Y236940D01*
X579187Y237186D01*
X578618Y237446D01*
X578056Y237719D01*
X577501Y238007D01*
X576953Y238308D01*
X576412Y238622D01*
X575879Y238949D01*
X575355Y239290D01*
D14*
X561572Y306464D02*
X565807Y308582D01*
X563690Y304347D01*
X564219Y305406D02*
X562631Y306994D01*
D15*
G36*
X529393Y278181D02*
X511716Y295858D01*
X515251Y299393D01*
X532928Y281716D01*
X529393Y278181D01*
G37*
D16*
X48000Y443200D02*
X30000Y443200D01*
X30000Y356800D02*
X48000Y356800D01*
D14*
X46576Y397655D02*
X41044Y397655D01*
X46576Y397654D02*
X46654Y397652D01*
X46731Y397646D01*
X46808Y397637D01*
X46884Y397624D01*
X46960Y397607D01*
X47035Y397586D01*
X47108Y397562D01*
X47181Y397534D01*
X47252Y397502D01*
X47321Y397467D01*
X47388Y397429D01*
X47454Y397388D01*
X47517Y397343D01*
X47578Y397295D01*
X47637Y397245D01*
X47693Y397191D01*
X47747Y397135D01*
X47797Y397076D01*
X47845Y397015D01*
X47890Y396952D01*
X47931Y396886D01*
X47969Y396819D01*
X48004Y396750D01*
X48036Y396679D01*
X48064Y396606D01*
X48088Y396533D01*
X48109Y396458D01*
X48126Y396382D01*
X48139Y396306D01*
X48148Y396229D01*
X48154Y396152D01*
X48156Y396074D01*
X48156Y395284D01*
X42624Y400765D02*
X41044Y402740D01*
X48156Y402740D01*
X48156Y400765D02*
X48156Y404716D01*
D16*
X11500Y592000D02*
X94000Y592000D01*
X108500Y577500D02*
X108500Y564500D01*
X108500Y535500D02*
X108500Y522500D01*
X94000Y508000D02*
X11500Y508000D01*
X11500Y535500D01*
X11500Y564500D02*
X11500Y592000D01*
X94000Y592000D02*
X108500Y577500D01*
X108500Y522500D02*
X94000Y508000D01*
X96500Y564000D02*
X96149Y564884D01*
X95776Y565759D01*
X95382Y566625D01*
X94967Y567481D01*
X94531Y568327D01*
X94075Y569161D01*
X93599Y569985D01*
X93102Y570796D01*
X92587Y571596D01*
X92052Y572382D01*
X91497Y573155D01*
X90925Y573915D01*
X90334Y574660D01*
X89725Y575391D01*
X89098Y576107D01*
X88454Y576807D01*
X87793Y577492D01*
X87116Y578160D01*
X86423Y578811D01*
X85714Y579445D01*
X84990Y580062D01*
X84251Y580662D01*
X83498Y581243D01*
X82731Y581805D01*
X81950Y582349D01*
X81157Y582873D01*
X80351Y583378D01*
X79532Y583864D01*
X78703Y584329D01*
X77862Y584774D01*
X77011Y585198D01*
X76149Y585602D01*
X75278Y585984D01*
X74398Y586345D01*
X73509Y586685D01*
X72613Y587002D01*
X71709Y587298D01*
X70798Y587572D01*
X69880Y587824D01*
X68957Y588053D01*
X68028Y588260D01*
X67095Y588444D01*
X66158Y588605D01*
X65217Y588743D01*
X64272Y588859D01*
X63326Y588951D01*
X62377Y589021D01*
X61427Y589067D01*
X60476Y589090D01*
X59524Y589090D01*
X58573Y589067D01*
X57623Y589021D01*
X56674Y588951D01*
X55728Y588859D01*
X54783Y588743D01*
X53842Y588605D01*
X52905Y588444D01*
X51972Y588260D01*
X51043Y588053D01*
X50120Y587824D01*
X49202Y587572D01*
X48291Y587298D01*
X47387Y587002D01*
X46491Y586685D01*
X45602Y586345D01*
X44722Y585984D01*
X43851Y585602D01*
X42989Y585198D01*
X42138Y584774D01*
X41297Y584329D01*
X40468Y583864D01*
X39649Y583378D01*
X38843Y582873D01*
X38050Y582349D01*
X37269Y581805D01*
X36502Y581243D01*
X35749Y580662D01*
X35010Y580062D01*
X34286Y579445D01*
X33577Y578811D01*
X32884Y578160D01*
X32207Y577492D01*
X31546Y576807D01*
X30902Y576107D01*
X30275Y575391D01*
X29666Y574660D01*
X29075Y573915D01*
X28503Y573155D01*
X27948Y572382D01*
X27413Y571596D01*
X26898Y570796D01*
X26401Y569985D01*
X25925Y569161D01*
X25469Y568327D01*
X25033Y567481D01*
X24618Y566625D01*
X24224Y565759D01*
X23851Y564884D01*
X23500Y564000D01*
X23500Y536000D02*
X23851Y535116D01*
X24224Y534241D01*
X24618Y533375D01*
X25033Y532519D01*
X25469Y531673D01*
X25925Y530839D01*
X26401Y530015D01*
X26898Y529204D01*
X27413Y528404D01*
X27948Y527618D01*
X28503Y526845D01*
X29075Y526085D01*
X29666Y525340D01*
X30275Y524609D01*
X30902Y523893D01*
X31546Y523193D01*
X32207Y522508D01*
X32884Y521840D01*
X33577Y521189D01*
X34286Y520555D01*
X35010Y519938D01*
X35749Y519338D01*
X36502Y518757D01*
X37269Y518195D01*
X38050Y517651D01*
X38843Y517127D01*
X39649Y516622D01*
X40468Y516136D01*
X41297Y515671D01*
X42138Y515226D01*
X42989Y514802D01*
X43851Y514398D01*
X44722Y514016D01*
X45602Y513655D01*
X46491Y513315D01*
X47387Y512998D01*
X48291Y512702D01*
X49202Y512428D01*
X50120Y512176D01*
X51043Y511947D01*
X51972Y511740D01*
X52905Y511556D01*
X53842Y511395D01*
X54783Y511257D01*
X55728Y511141D01*
X56674Y511049D01*
X57623Y510979D01*
X58573Y510933D01*
X59524Y510910D01*
X60476Y510910D01*
X61427Y510933D01*
X62377Y510979D01*
X63326Y511049D01*
X64272Y511141D01*
X65217Y511257D01*
X66158Y511395D01*
X67095Y511556D01*
X68028Y511740D01*
X68957Y511947D01*
X69880Y512176D01*
X70798Y512428D01*
X71709Y512702D01*
X72613Y512998D01*
X73509Y513315D01*
X74398Y513655D01*
X75278Y514016D01*
X76149Y514398D01*
X77011Y514802D01*
X77862Y515226D01*
X78703Y515671D01*
X79532Y516136D01*
X80351Y516622D01*
X81157Y517127D01*
X81950Y517651D01*
X82731Y518195D01*
X83498Y518757D01*
X84251Y519338D01*
X84990Y519938D01*
X85714Y520555D01*
X86423Y521189D01*
X87116Y521840D01*
X87793Y522508D01*
X88454Y523193D01*
X89098Y523893D01*
X89725Y524609D01*
X90334Y525340D01*
X90925Y526085D01*
X91497Y526845D01*
X92052Y527618D01*
X92587Y528404D01*
X93102Y529204D01*
X93599Y530015D01*
X94075Y530839D01*
X94531Y531673D01*
X94967Y532519D01*
X95382Y533375D01*
X95776Y534241D01*
X96149Y535116D01*
X96500Y536000D01*
X94000Y292000D02*
X11500Y292000D01*
X108500Y277500D02*
X108500Y264500D01*
X108500Y235500D02*
X108500Y222500D01*
X94000Y208000D02*
X11500Y208000D01*
X11500Y235500D01*
X11500Y264500D02*
X11500Y292000D01*
X94000Y292000D02*
X108500Y277500D01*
X108500Y222500D02*
X94000Y208000D01*
X96500Y264000D02*
X96149Y264884D01*
X95776Y265759D01*
X95382Y266625D01*
X94967Y267481D01*
X94531Y268327D01*
X94075Y269161D01*
X93599Y269985D01*
X93102Y270796D01*
X92587Y271596D01*
X92052Y272382D01*
X91497Y273155D01*
X90925Y273915D01*
X90334Y274660D01*
X89725Y275391D01*
X89098Y276107D01*
X88454Y276807D01*
X87793Y277492D01*
X87116Y278160D01*
X86423Y278811D01*
X85714Y279445D01*
X84990Y280062D01*
X84251Y280662D01*
X83498Y281243D01*
X82731Y281805D01*
X81950Y282349D01*
X81157Y282873D01*
X80351Y283378D01*
X79532Y283864D01*
X78703Y284329D01*
X77862Y284774D01*
X77011Y285198D01*
X76149Y285602D01*
X75278Y285984D01*
X74398Y286345D01*
X73509Y286685D01*
X72613Y287002D01*
X71709Y287298D01*
X70798Y287572D01*
X69880Y287824D01*
X68957Y288053D01*
X68028Y288260D01*
X67095Y288444D01*
X66158Y288605D01*
X65217Y288743D01*
X64272Y288859D01*
X63326Y288951D01*
X62377Y289021D01*
X61427Y289067D01*
X60476Y289090D01*
X59524Y289090D01*
X58573Y289067D01*
X57623Y289021D01*
X56674Y288951D01*
X55728Y288859D01*
X54783Y288743D01*
X53842Y288605D01*
X52905Y288444D01*
X51972Y288260D01*
X51043Y288053D01*
X50120Y287824D01*
X49202Y287572D01*
X48291Y287298D01*
X47387Y287002D01*
X46491Y286685D01*
X45602Y286345D01*
X44722Y285984D01*
X43851Y285602D01*
X42989Y285198D01*
X42138Y284774D01*
X41297Y284329D01*
X40468Y283864D01*
X39649Y283378D01*
X38843Y282873D01*
X38050Y282349D01*
X37269Y281805D01*
X36502Y281243D01*
X35749Y280662D01*
X35010Y280062D01*
X34286Y279445D01*
X33577Y278811D01*
X32884Y278160D01*
X32207Y277492D01*
X31546Y276807D01*
X30902Y276107D01*
X30275Y275391D01*
X29666Y274660D01*
X29075Y273915D01*
X28503Y273155D01*
X27948Y272382D01*
X27413Y271596D01*
X26898Y270796D01*
X26401Y269985D01*
X25925Y269161D01*
X25469Y268327D01*
X25033Y267481D01*
X24618Y266625D01*
X24224Y265759D01*
X23851Y264884D01*
X23500Y264000D01*
X23500Y236000D02*
X23851Y235116D01*
X24224Y234241D01*
X24618Y233375D01*
X25033Y232519D01*
X25469Y231673D01*
X25925Y230839D01*
X26401Y230015D01*
X26898Y229204D01*
X27413Y228404D01*
X27948Y227618D01*
X28503Y226845D01*
X29075Y226085D01*
X29666Y225340D01*
X30275Y224609D01*
X30902Y223893D01*
X31546Y223193D01*
X32207Y222508D01*
X32884Y221840D01*
X33577Y221189D01*
X34286Y220555D01*
X35010Y219938D01*
X35749Y219338D01*
X36502Y218757D01*
X37269Y218195D01*
X38050Y217651D01*
X38843Y217127D01*
X39649Y216622D01*
X40468Y216136D01*
X41297Y215671D01*
X42138Y215226D01*
X42989Y214802D01*
X43851Y214398D01*
X44722Y214016D01*
X45602Y213655D01*
X46491Y213315D01*
X47387Y212998D01*
X48291Y212702D01*
X49202Y212428D01*
X50120Y212176D01*
X51043Y211947D01*
X51972Y211740D01*
X52905Y211556D01*
X53842Y211395D01*
X54783Y211257D01*
X55728Y211141D01*
X56674Y211049D01*
X57623Y210979D01*
X58573Y210933D01*
X59524Y210910D01*
X60476Y210910D01*
X61427Y210933D01*
X62377Y210979D01*
X63326Y211049D01*
X64272Y211141D01*
X65217Y211257D01*
X66158Y211395D01*
X67095Y211556D01*
X68028Y211740D01*
X68957Y211947D01*
X69880Y212176D01*
X70798Y212428D01*
X71709Y212702D01*
X72613Y212998D01*
X73509Y213315D01*
X74398Y213655D01*
X75278Y214016D01*
X76149Y214398D01*
X77011Y214802D01*
X77862Y215226D01*
X78703Y215671D01*
X79532Y216136D01*
X80351Y216622D01*
X81157Y217127D01*
X81950Y217651D01*
X82731Y218195D01*
X83498Y218757D01*
X84251Y219338D01*
X84990Y219938D01*
X85714Y220555D01*
X86423Y221189D01*
X87116Y221840D01*
X87793Y222508D01*
X88454Y223193D01*
X89098Y223893D01*
X89725Y224609D01*
X90334Y225340D01*
X90925Y226085D01*
X91497Y226845D01*
X92052Y227618D01*
X92587Y228404D01*
X93102Y229204D01*
X93599Y230015D01*
X94075Y230839D01*
X94531Y231673D01*
X94967Y232519D01*
X95382Y233375D01*
X95776Y234241D01*
X96149Y235116D01*
X96500Y236000D01*
X14760Y658890D02*
X14760Y666510D01*
X14760Y639840D02*
X14760Y637300D01*
X4854Y637300D01*
X2060Y640094D01*
X14760Y637300D02*
X24666Y637300D01*
X27460Y640094D01*
X14760Y685560D02*
X14760Y688100D01*
X24666Y688100D01*
X27460Y685306D01*
X14760Y688100D02*
X4854Y688100D01*
X2060Y685306D01*
X276000Y505750D02*
X304000Y505750D01*
X304000Y534250D02*
X276000Y534250D01*
D17*
X272500Y535500D03*
D16*
X332728Y212438D02*
X332728Y203850D01*
X361176Y203850D02*
X361176Y212438D01*
X362016Y218144D02*
X362018Y218219D01*
X362024Y218294D01*
X362034Y218369D01*
X362047Y218443D01*
X362065Y218516D01*
X362086Y218588D01*
X362111Y218659D01*
X362140Y218728D01*
X362173Y218796D01*
X362208Y218862D01*
X362248Y218926D01*
X362290Y218988D01*
X362336Y219048D01*
X362385Y219105D01*
X362437Y219159D01*
X362491Y219211D01*
X362548Y219260D01*
X362608Y219306D01*
X362670Y219348D01*
X362734Y219388D01*
X362800Y219423D01*
X362868Y219456D01*
X362937Y219485D01*
X363008Y219510D01*
X363080Y219531D01*
X363153Y219549D01*
X363227Y219562D01*
X363302Y219572D01*
X363377Y219578D01*
X363452Y219580D01*
X363527Y219578D01*
X363602Y219572D01*
X363677Y219562D01*
X363751Y219549D01*
X363824Y219531D01*
X363896Y219510D01*
X363967Y219485D01*
X364036Y219456D01*
X364104Y219423D01*
X364170Y219388D01*
X364234Y219348D01*
X364296Y219306D01*
X364356Y219260D01*
X364413Y219211D01*
X364467Y219159D01*
X364519Y219105D01*
X364568Y219048D01*
X364614Y218988D01*
X364656Y218926D01*
X364696Y218862D01*
X364731Y218796D01*
X364764Y218728D01*
X364793Y218659D01*
X364818Y218588D01*
X364839Y218516D01*
X364857Y218443D01*
X364870Y218369D01*
X364880Y218294D01*
X364886Y218219D01*
X364888Y218144D01*
X364886Y218069D01*
X364880Y217994D01*
X364870Y217919D01*
X364857Y217845D01*
X364839Y217772D01*
X364818Y217700D01*
X364793Y217629D01*
X364764Y217560D01*
X364731Y217492D01*
X364696Y217426D01*
X364656Y217362D01*
X364614Y217300D01*
X364568Y217240D01*
X364519Y217183D01*
X364467Y217129D01*
X364413Y217077D01*
X364356Y217028D01*
X364296Y216982D01*
X364234Y216940D01*
X364170Y216900D01*
X364104Y216865D01*
X364036Y216832D01*
X363967Y216803D01*
X363896Y216778D01*
X363824Y216757D01*
X363751Y216739D01*
X363677Y216726D01*
X363602Y216716D01*
X363527Y216710D01*
X363452Y216708D01*
X363377Y216710D01*
X363302Y216716D01*
X363227Y216726D01*
X363153Y216739D01*
X363080Y216757D01*
X363008Y216778D01*
X362937Y216803D01*
X362868Y216832D01*
X362800Y216865D01*
X362734Y216900D01*
X362670Y216940D01*
X362608Y216982D01*
X362548Y217028D01*
X362491Y217077D01*
X362437Y217129D01*
X362385Y217183D01*
X362336Y217240D01*
X362290Y217300D01*
X362248Y217362D01*
X362208Y217426D01*
X362173Y217492D01*
X362140Y217560D01*
X362111Y217629D01*
X362086Y217700D01*
X362065Y217772D01*
X362047Y217845D01*
X362034Y217919D01*
X362024Y217994D01*
X362018Y218069D01*
X362016Y218144D01*
X425652Y234144D02*
X425652Y182144D01*
X422952Y236844D02*
X370952Y236844D01*
X368252Y234144D02*
X368252Y182144D01*
X370952Y179444D02*
X422952Y179444D01*
X425652Y234144D02*
X422952Y236844D01*
X370952Y236844D02*
X368252Y234144D01*
X422952Y179444D02*
X425652Y182144D01*
X370952Y179444D02*
X368252Y182144D01*
D11*
X730790Y400000D02*
X730799Y400717D01*
X730825Y401433D01*
X730869Y402149D01*
X730931Y402863D01*
X731010Y403576D01*
X731106Y404286D01*
X731220Y404994D01*
X731351Y405699D01*
X731500Y406400D01*
X731665Y407097D01*
X731848Y407791D01*
X732048Y408479D01*
X732264Y409163D01*
X732497Y409841D01*
X732747Y410513D01*
X733013Y411178D01*
X733296Y411837D01*
X733594Y412489D01*
X733909Y413133D01*
X734239Y413769D01*
X734585Y414398D01*
X734946Y415017D01*
X735322Y415627D01*
X735713Y416228D01*
X736118Y416819D01*
X736538Y417400D01*
X736972Y417971D01*
X737420Y418531D01*
X737882Y419079D01*
X738357Y419616D01*
X738845Y420141D01*
X739345Y420655D01*
X739859Y421155D01*
X740384Y421643D01*
X740921Y422118D01*
X741469Y422580D01*
X742029Y423028D01*
X742600Y423462D01*
X743181Y423882D01*
X743772Y424287D01*
X744373Y424678D01*
X744983Y425054D01*
X745602Y425415D01*
X746231Y425761D01*
X746867Y426091D01*
X747511Y426406D01*
X748163Y426704D01*
X748822Y426987D01*
X749487Y427253D01*
X750159Y427503D01*
X750837Y427736D01*
X751521Y427952D01*
X752209Y428152D01*
X752903Y428335D01*
X753600Y428500D01*
X754301Y428649D01*
X755006Y428780D01*
X755714Y428894D01*
X756424Y428990D01*
X757137Y429069D01*
X757851Y429131D01*
X758567Y429175D01*
X759283Y429201D01*
X760000Y429210D01*
X760717Y429201D01*
X761433Y429175D01*
X762149Y429131D01*
X762863Y429069D01*
X763576Y428990D01*
X764286Y428894D01*
X764994Y428780D01*
X765699Y428649D01*
X766400Y428500D01*
X767097Y428335D01*
X767791Y428152D01*
X768479Y427952D01*
X769163Y427736D01*
X769841Y427503D01*
X770513Y427253D01*
X771178Y426987D01*
X771837Y426704D01*
X772489Y426406D01*
X773133Y426091D01*
X773769Y425761D01*
X774398Y425415D01*
X775017Y425054D01*
X775627Y424678D01*
X776228Y424287D01*
X776819Y423882D01*
X777400Y423462D01*
X777971Y423028D01*
X778531Y422580D01*
X779079Y422118D01*
X779616Y421643D01*
X780141Y421155D01*
X780655Y420655D01*
X781155Y420141D01*
X781643Y419616D01*
X782118Y419079D01*
X782580Y418531D01*
X783028Y417971D01*
X783462Y417400D01*
X783882Y416819D01*
X784287Y416228D01*
X784678Y415627D01*
X785054Y415017D01*
X785415Y414398D01*
X785761Y413769D01*
X786091Y413133D01*
X786406Y412489D01*
X786704Y411837D01*
X786987Y411178D01*
X787253Y410513D01*
X787503Y409841D01*
X787736Y409163D01*
X787952Y408479D01*
X788152Y407791D01*
X788335Y407097D01*
X788500Y406400D01*
X788649Y405699D01*
X788780Y404994D01*
X788894Y404286D01*
X788990Y403576D01*
X789069Y402863D01*
X789131Y402149D01*
X789175Y401433D01*
X789201Y400717D01*
X789210Y400000D01*
X789201Y399283D01*
X789175Y398567D01*
X789131Y397851D01*
X789069Y397137D01*
X788990Y396424D01*
X788894Y395714D01*
X788780Y395006D01*
X788649Y394301D01*
X788500Y393600D01*
X788335Y392903D01*
X788152Y392209D01*
X787952Y391521D01*
X787736Y390837D01*
X787503Y390159D01*
X787253Y389487D01*
X786987Y388822D01*
X786704Y388163D01*
X786406Y387511D01*
X786091Y386867D01*
X785761Y386231D01*
X785415Y385602D01*
X785054Y384983D01*
X784678Y384373D01*
X784287Y383772D01*
X783882Y383181D01*
X783462Y382600D01*
X783028Y382029D01*
X782580Y381469D01*
X782118Y380921D01*
X781643Y380384D01*
X781155Y379859D01*
X780655Y379345D01*
X780141Y378845D01*
X779616Y378357D01*
X779079Y377882D01*
X778531Y377420D01*
X777971Y376972D01*
X777400Y376538D01*
X776819Y376118D01*
X776228Y375713D01*
X775627Y375322D01*
X775017Y374946D01*
X774398Y374585D01*
X773769Y374239D01*
X773133Y373909D01*
X772489Y373594D01*
X771837Y373296D01*
X771178Y373013D01*
X770513Y372747D01*
X769841Y372497D01*
X769163Y372264D01*
X768479Y372048D01*
X767791Y371848D01*
X767097Y371665D01*
X766400Y371500D01*
X765699Y371351D01*
X764994Y371220D01*
X764286Y371106D01*
X763576Y371010D01*
X762863Y370931D01*
X762149Y370869D01*
X761433Y370825D01*
X760717Y370799D01*
X760000Y370790D01*
X759283Y370799D01*
X758567Y370825D01*
X757851Y370869D01*
X757137Y370931D01*
X756424Y371010D01*
X755714Y371106D01*
X755006Y371220D01*
X754301Y371351D01*
X753600Y371500D01*
X752903Y371665D01*
X752209Y371848D01*
X751521Y372048D01*
X750837Y372264D01*
X750159Y372497D01*
X749487Y372747D01*
X748822Y373013D01*
X748163Y373296D01*
X747511Y373594D01*
X746867Y373909D01*
X746231Y374239D01*
X745602Y374585D01*
X744983Y374946D01*
X744373Y375322D01*
X743772Y375713D01*
X743181Y376118D01*
X742600Y376538D01*
X742029Y376972D01*
X741469Y377420D01*
X740921Y377882D01*
X740384Y378357D01*
X739859Y378845D01*
X739345Y379345D01*
X738845Y379859D01*
X738357Y380384D01*
X737882Y380921D01*
X737420Y381469D01*
X736972Y382029D01*
X736538Y382600D01*
X736118Y383181D01*
X735713Y383772D01*
X735322Y384373D01*
X734946Y384983D01*
X734585Y385602D01*
X734239Y386231D01*
X733909Y386867D01*
X733594Y387511D01*
X733296Y388163D01*
X733013Y388822D01*
X732747Y389487D01*
X732497Y390159D01*
X732264Y390837D01*
X732048Y391521D01*
X731848Y392209D01*
X731665Y392903D01*
X731500Y393600D01*
X731351Y394301D01*
X731220Y395006D01*
X731106Y395714D01*
X731010Y396424D01*
X730931Y397137D01*
X730869Y397851D01*
X730825Y398567D01*
X730799Y399283D01*
X730790Y400000D01*
D16*
X745000Y400000D02*
X745005Y400368D01*
X745018Y400736D01*
X745041Y401103D01*
X745072Y401470D01*
X745113Y401836D01*
X745162Y402201D01*
X745221Y402564D01*
X745288Y402926D01*
X745364Y403287D01*
X745450Y403645D01*
X745543Y404001D01*
X745646Y404354D01*
X745757Y404705D01*
X745877Y405053D01*
X746005Y405398D01*
X746142Y405740D01*
X746287Y406079D01*
X746440Y406413D01*
X746602Y406744D01*
X746771Y407071D01*
X746949Y407393D01*
X747134Y407712D01*
X747327Y408025D01*
X747528Y408334D01*
X747736Y408637D01*
X747952Y408935D01*
X748175Y409228D01*
X748405Y409516D01*
X748642Y409798D01*
X748886Y410073D01*
X749136Y410343D01*
X749393Y410607D01*
X749657Y410864D01*
X749927Y411114D01*
X750202Y411358D01*
X750484Y411595D01*
X750772Y411825D01*
X751065Y412048D01*
X751363Y412264D01*
X751666Y412472D01*
X751975Y412673D01*
X752288Y412866D01*
X752607Y413051D01*
X752929Y413229D01*
X753256Y413398D01*
X753587Y413560D01*
X753921Y413713D01*
X754260Y413858D01*
X754602Y413995D01*
X754947Y414123D01*
X755295Y414243D01*
X755646Y414354D01*
X755999Y414457D01*
X756355Y414550D01*
X756713Y414636D01*
X757074Y414712D01*
X757436Y414779D01*
X757799Y414838D01*
X758164Y414887D01*
X758530Y414928D01*
X758897Y414959D01*
X759264Y414982D01*
X759632Y414995D01*
X760000Y415000D01*
X760368Y414995D01*
X760736Y414982D01*
X761103Y414959D01*
X761470Y414928D01*
X761836Y414887D01*
X762201Y414838D01*
X762564Y414779D01*
X762926Y414712D01*
X763287Y414636D01*
X763645Y414550D01*
X764001Y414457D01*
X764354Y414354D01*
X764705Y414243D01*
X765053Y414123D01*
X765398Y413995D01*
X765740Y413858D01*
X766079Y413713D01*
X766413Y413560D01*
X766744Y413398D01*
X767071Y413229D01*
X767393Y413051D01*
X767712Y412866D01*
X768025Y412673D01*
X768334Y412472D01*
X768637Y412264D01*
X768935Y412048D01*
X769228Y411825D01*
X769516Y411595D01*
X769798Y411358D01*
X770073Y411114D01*
X770343Y410864D01*
X770607Y410607D01*
X770864Y410343D01*
X771114Y410073D01*
X771358Y409798D01*
X771595Y409516D01*
X771825Y409228D01*
X772048Y408935D01*
X772264Y408637D01*
X772472Y408334D01*
X772673Y408025D01*
X772866Y407712D01*
X773051Y407393D01*
X773229Y407071D01*
X773398Y406744D01*
X773560Y406413D01*
X773713Y406079D01*
X773858Y405740D01*
X773995Y405398D01*
X774123Y405053D01*
X774243Y404705D01*
X774354Y404354D01*
X774457Y404001D01*
X774550Y403645D01*
X774636Y403287D01*
X774712Y402926D01*
X774779Y402564D01*
X774838Y402201D01*
X774887Y401836D01*
X774928Y401470D01*
X774959Y401103D01*
X774982Y400736D01*
X774995Y400368D01*
X775000Y400000D01*
X774995Y399632D01*
X774982Y399264D01*
X774959Y398897D01*
X774928Y398530D01*
X774887Y398164D01*
X774838Y397799D01*
X774779Y397436D01*
X774712Y397074D01*
X774636Y396713D01*
X774550Y396355D01*
X774457Y395999D01*
X774354Y395646D01*
X774243Y395295D01*
X774123Y394947D01*
X773995Y394602D01*
X773858Y394260D01*
X773713Y393921D01*
X773560Y393587D01*
X773398Y393256D01*
X773229Y392929D01*
X773051Y392607D01*
X772866Y392288D01*
X772673Y391975D01*
X772472Y391666D01*
X772264Y391363D01*
X772048Y391065D01*
X771825Y390772D01*
X771595Y390484D01*
X771358Y390202D01*
X771114Y389927D01*
X770864Y389657D01*
X770607Y389393D01*
X770343Y389136D01*
X770073Y388886D01*
X769798Y388642D01*
X769516Y388405D01*
X769228Y388175D01*
X768935Y387952D01*
X768637Y387736D01*
X768334Y387528D01*
X768025Y387327D01*
X767712Y387134D01*
X767393Y386949D01*
X767071Y386771D01*
X766744Y386602D01*
X766413Y386440D01*
X766079Y386287D01*
X765740Y386142D01*
X765398Y386005D01*
X765053Y385877D01*
X764705Y385757D01*
X764354Y385646D01*
X764001Y385543D01*
X763645Y385450D01*
X763287Y385364D01*
X762926Y385288D01*
X762564Y385221D01*
X762201Y385162D01*
X761836Y385113D01*
X761470Y385072D01*
X761103Y385041D01*
X760736Y385018D01*
X760368Y385005D01*
X760000Y385000D01*
X759632Y385005D01*
X759264Y385018D01*
X758897Y385041D01*
X758530Y385072D01*
X758164Y385113D01*
X757799Y385162D01*
X757436Y385221D01*
X757074Y385288D01*
X756713Y385364D01*
X756355Y385450D01*
X755999Y385543D01*
X755646Y385646D01*
X755295Y385757D01*
X754947Y385877D01*
X754602Y386005D01*
X754260Y386142D01*
X753921Y386287D01*
X753587Y386440D01*
X753256Y386602D01*
X752929Y386771D01*
X752607Y386949D01*
X752288Y387134D01*
X751975Y387327D01*
X751666Y387528D01*
X751363Y387736D01*
X751065Y387952D01*
X750772Y388175D01*
X750484Y388405D01*
X750202Y388642D01*
X749927Y388886D01*
X749657Y389136D01*
X749393Y389393D01*
X749136Y389657D01*
X748886Y389927D01*
X748642Y390202D01*
X748405Y390484D01*
X748175Y390772D01*
X747952Y391065D01*
X747736Y391363D01*
X747528Y391666D01*
X747327Y391975D01*
X747134Y392288D01*
X746949Y392607D01*
X746771Y392929D01*
X746602Y393256D01*
X746440Y393587D01*
X746287Y393921D01*
X746142Y394260D01*
X746005Y394602D01*
X745877Y394947D01*
X745757Y395295D01*
X745646Y395646D01*
X745543Y395999D01*
X745450Y396355D01*
X745364Y396713D01*
X745288Y397074D01*
X745221Y397436D01*
X745162Y397799D01*
X745113Y398164D01*
X745072Y398530D01*
X745041Y398897D01*
X745018Y399264D01*
X745005Y399632D01*
X745000Y400000D01*
D18*
G36*
X512284Y177333D02*
X514582Y179631D01*
X517586Y176627D01*
X515288Y174329D01*
X512284Y177333D01*
G37*
G36*
X502561Y167610D02*
X504859Y169908D01*
X507863Y166904D01*
X505565Y164606D01*
X502561Y167610D01*
G37*
D19*
G36*
X504859Y174859D02*
X507333Y177333D01*
X509807Y174859D01*
X507333Y172385D01*
X504859Y174859D01*
G37*
D18*
G36*
X507051Y633140D02*
X504753Y635438D01*
X507757Y638442D01*
X510055Y636144D01*
X507051Y633140D01*
G37*
G36*
X516774Y623417D02*
X514476Y625715D01*
X517480Y628719D01*
X519778Y626421D01*
X516774Y623417D01*
G37*
D19*
G36*
X509525Y625715D02*
X507051Y628189D01*
X509525Y630663D01*
X511999Y628189D01*
X509525Y625715D01*
G37*
D16*
X20000Y151110D02*
X20000Y143490D01*
X20000Y170160D02*
X20000Y172700D01*
X29906Y172700D01*
X32700Y169906D01*
X20000Y172700D02*
X10094Y172700D01*
X7300Y169906D01*
X20000Y124440D02*
X20000Y121900D01*
X10094Y121900D01*
X7300Y124694D01*
X20000Y121900D02*
X29906Y121900D01*
X32700Y124694D01*
X441452Y570230D02*
X447802Y576580D01*
X441452Y557530D02*
X447802Y551180D01*
X441452Y544830D01*
X441452Y532130D02*
X447802Y525780D01*
X441452Y519430D01*
X441452Y506730D02*
X447802Y500380D01*
X447802Y576580D02*
X485902Y576580D01*
X492252Y570230D01*
X492252Y557530D01*
X485902Y551180D01*
X492252Y544830D01*
X492252Y532130D01*
X485902Y525780D01*
X492252Y519430D01*
X492252Y506730D01*
X485902Y500380D01*
X485902Y551180D02*
X447802Y551180D01*
X447802Y525780D02*
X485902Y525780D01*
X485902Y500380D02*
X447802Y500380D01*
X441452Y506730D02*
X441452Y519430D01*
X441452Y532130D02*
X441452Y544830D01*
X441452Y557530D02*
X441452Y570230D01*
X438102Y570230D02*
X438102Y557530D01*
D11*
X501650Y515456D02*
X508254Y515456D01*
X501650Y515456D02*
X501650Y517291D01*
X501652Y517376D01*
X501658Y517460D01*
X501668Y517544D01*
X501681Y517628D01*
X501699Y517711D01*
X501720Y517793D01*
X501745Y517874D01*
X501774Y517954D01*
X501806Y518032D01*
X501842Y518108D01*
X501882Y518183D01*
X501925Y518256D01*
X501971Y518327D01*
X502020Y518396D01*
X502073Y518463D01*
X502129Y518527D01*
X502187Y518588D01*
X502248Y518646D01*
X502312Y518702D01*
X502379Y518755D01*
X502448Y518804D01*
X502519Y518850D01*
X502592Y518893D01*
X502667Y518933D01*
X502743Y518969D01*
X502822Y519001D01*
X502901Y519030D01*
X502982Y519055D01*
X503064Y519076D01*
X503147Y519094D01*
X503231Y519107D01*
X503315Y519117D01*
X503399Y519123D01*
X503484Y519125D01*
X506420Y519125D01*
X506505Y519123D01*
X506589Y519117D01*
X506673Y519107D01*
X506757Y519094D01*
X506840Y519076D01*
X506922Y519055D01*
X507003Y519030D01*
X507083Y519001D01*
X507161Y518969D01*
X507237Y518933D01*
X507312Y518893D01*
X507385Y518850D01*
X507456Y518804D01*
X507525Y518755D01*
X507592Y518702D01*
X507656Y518646D01*
X507717Y518588D01*
X507775Y518527D01*
X507831Y518463D01*
X507884Y518396D01*
X507933Y518327D01*
X507979Y518256D01*
X508022Y518183D01*
X508062Y518108D01*
X508098Y518032D01*
X508130Y517954D01*
X508159Y517874D01*
X508184Y517793D01*
X508205Y517711D01*
X508223Y517628D01*
X508236Y517544D01*
X508246Y517460D01*
X508252Y517376D01*
X508254Y517291D01*
X508254Y515456D01*
X508254Y523283D02*
X508254Y526219D01*
X508254Y523283D02*
X501650Y523283D01*
X501650Y526219D01*
X504585Y525485D02*
X504585Y523283D01*
X504585Y529780D02*
X504585Y531615D01*
X504586Y531615D02*
X504588Y531700D01*
X504594Y531784D01*
X504604Y531868D01*
X504617Y531952D01*
X504635Y532035D01*
X504656Y532117D01*
X504681Y532198D01*
X504710Y532278D01*
X504742Y532356D01*
X504778Y532432D01*
X504818Y532507D01*
X504861Y532580D01*
X504907Y532651D01*
X504956Y532720D01*
X505009Y532787D01*
X505065Y532851D01*
X505123Y532912D01*
X505184Y532970D01*
X505248Y533026D01*
X505315Y533079D01*
X505384Y533128D01*
X505455Y533174D01*
X505528Y533217D01*
X505603Y533257D01*
X505679Y533293D01*
X505757Y533325D01*
X505837Y533354D01*
X505918Y533379D01*
X506000Y533400D01*
X506083Y533418D01*
X506167Y533431D01*
X506251Y533441D01*
X506335Y533447D01*
X506420Y533449D01*
X506505Y533447D01*
X506589Y533441D01*
X506673Y533431D01*
X506757Y533418D01*
X506840Y533400D01*
X506922Y533379D01*
X507003Y533354D01*
X507083Y533325D01*
X507161Y533293D01*
X507237Y533257D01*
X507312Y533217D01*
X507385Y533174D01*
X507456Y533128D01*
X507525Y533079D01*
X507592Y533026D01*
X507656Y532970D01*
X507717Y532912D01*
X507775Y532851D01*
X507831Y532787D01*
X507884Y532720D01*
X507933Y532651D01*
X507979Y532580D01*
X508022Y532507D01*
X508062Y532432D01*
X508098Y532356D01*
X508130Y532278D01*
X508159Y532198D01*
X508184Y532117D01*
X508205Y532035D01*
X508223Y531952D01*
X508236Y531868D01*
X508246Y531784D01*
X508252Y531700D01*
X508254Y531615D01*
X508254Y529780D01*
X501650Y529780D01*
X501650Y531615D01*
X501652Y531691D01*
X501658Y531766D01*
X501667Y531841D01*
X501681Y531915D01*
X501698Y531989D01*
X501720Y532061D01*
X501744Y532133D01*
X501773Y532203D01*
X501805Y532271D01*
X501840Y532338D01*
X501879Y532403D01*
X501922Y532466D01*
X501967Y532526D01*
X502015Y532584D01*
X502067Y532640D01*
X502121Y532692D01*
X502178Y532742D01*
X502237Y532789D01*
X502298Y532833D01*
X502362Y532874D01*
X502428Y532911D01*
X502496Y532945D01*
X502565Y532975D01*
X502636Y533002D01*
X502708Y533025D01*
X502781Y533044D01*
X502855Y533059D01*
X502930Y533071D01*
X503005Y533079D01*
X503080Y533083D01*
X503156Y533083D01*
X503231Y533079D01*
X503306Y533071D01*
X503381Y533059D01*
X503455Y533044D01*
X503528Y533025D01*
X503600Y533002D01*
X503671Y532975D01*
X503740Y532945D01*
X503808Y532911D01*
X503874Y532874D01*
X503938Y532833D01*
X503999Y532789D01*
X504058Y532742D01*
X504115Y532692D01*
X504169Y532640D01*
X504221Y532584D01*
X504269Y532526D01*
X504314Y532466D01*
X504357Y532403D01*
X504396Y532338D01*
X504431Y532271D01*
X504463Y532203D01*
X504492Y532133D01*
X504516Y532061D01*
X504538Y531989D01*
X504555Y531915D01*
X504569Y531841D01*
X504578Y531766D01*
X504584Y531691D01*
X504586Y531615D01*
X506420Y536914D02*
X501650Y536914D01*
X506420Y536915D02*
X506505Y536917D01*
X506589Y536923D01*
X506673Y536933D01*
X506757Y536946D01*
X506840Y536964D01*
X506922Y536985D01*
X507003Y537010D01*
X507083Y537039D01*
X507161Y537071D01*
X507237Y537107D01*
X507312Y537147D01*
X507385Y537190D01*
X507456Y537236D01*
X507525Y537285D01*
X507592Y537338D01*
X507656Y537394D01*
X507717Y537452D01*
X507775Y537513D01*
X507831Y537577D01*
X507884Y537644D01*
X507933Y537713D01*
X507979Y537784D01*
X508022Y537857D01*
X508062Y537932D01*
X508098Y538008D01*
X508130Y538086D01*
X508159Y538166D01*
X508184Y538247D01*
X508205Y538329D01*
X508223Y538412D01*
X508236Y538496D01*
X508246Y538580D01*
X508252Y538664D01*
X508254Y538749D01*
X508252Y538834D01*
X508246Y538918D01*
X508236Y539002D01*
X508223Y539086D01*
X508205Y539169D01*
X508184Y539251D01*
X508159Y539332D01*
X508130Y539412D01*
X508098Y539490D01*
X508062Y539566D01*
X508022Y539641D01*
X507979Y539714D01*
X507933Y539785D01*
X507884Y539854D01*
X507831Y539921D01*
X507775Y539985D01*
X507717Y540046D01*
X507656Y540104D01*
X507592Y540160D01*
X507525Y540213D01*
X507456Y540262D01*
X507385Y540308D01*
X507312Y540351D01*
X507237Y540391D01*
X507161Y540427D01*
X507083Y540459D01*
X507003Y540488D01*
X506922Y540513D01*
X506840Y540534D01*
X506757Y540552D01*
X506673Y540565D01*
X506589Y540575D01*
X506505Y540581D01*
X506420Y540583D01*
X501650Y540583D01*
X504585Y547285D02*
X504585Y548386D01*
X508254Y548386D01*
X508254Y546185D01*
X508252Y546111D01*
X508246Y546036D01*
X508237Y545963D01*
X508224Y545889D01*
X508207Y545817D01*
X508187Y545746D01*
X508163Y545675D01*
X508135Y545606D01*
X508104Y545539D01*
X508070Y545473D01*
X508032Y545408D01*
X507991Y545346D01*
X507947Y545286D01*
X507900Y545229D01*
X507850Y545174D01*
X507797Y545121D01*
X507742Y545071D01*
X507685Y545024D01*
X507625Y544980D01*
X507563Y544939D01*
X507498Y544901D01*
X507433Y544867D01*
X507365Y544836D01*
X507296Y544808D01*
X507225Y544784D01*
X507154Y544764D01*
X507082Y544747D01*
X507008Y544734D01*
X506935Y544725D01*
X506860Y544719D01*
X506786Y544717D01*
X503118Y544717D01*
X503044Y544719D01*
X502969Y544725D01*
X502896Y544734D01*
X502822Y544747D01*
X502750Y544764D01*
X502679Y544784D01*
X502608Y544808D01*
X502539Y544836D01*
X502472Y544867D01*
X502406Y544901D01*
X502341Y544939D01*
X502279Y544980D01*
X502219Y545024D01*
X502162Y545071D01*
X502107Y545121D01*
X502054Y545174D01*
X502004Y545229D01*
X501957Y545286D01*
X501913Y545346D01*
X501872Y545408D01*
X501834Y545473D01*
X501800Y545538D01*
X501769Y545606D01*
X501741Y545675D01*
X501717Y545746D01*
X501697Y545817D01*
X501680Y545889D01*
X501667Y545963D01*
X501658Y546036D01*
X501652Y546111D01*
X501650Y546185D01*
X501650Y548386D01*
D16*
X48922Y314532D02*
X36422Y314532D01*
X36422Y323232D02*
X36422Y341232D01*
X48922Y341232D02*
X48922Y323232D01*
X402568Y293382D02*
X410568Y293382D01*
X423838Y305652D02*
X423838Y308652D01*
X389298Y308652D02*
X389298Y305652D01*
X402568Y320922D02*
X410568Y320922D01*
X540000Y252426D02*
X582426Y210000D01*
X540000Y252426D02*
X497574Y210000D01*
X540000Y167574D01*
X582426Y210000D01*
X522500Y210000D02*
X522505Y210429D01*
X522521Y210859D01*
X522547Y211287D01*
X522584Y211715D01*
X522632Y212142D01*
X522689Y212568D01*
X522758Y212992D01*
X522836Y213414D01*
X522925Y213834D01*
X523024Y214252D01*
X523134Y214667D01*
X523254Y215080D01*
X523383Y215489D01*
X523523Y215896D01*
X523673Y216298D01*
X523832Y216697D01*
X524001Y217092D01*
X524180Y217482D01*
X524369Y217868D01*
X524566Y218249D01*
X524773Y218626D01*
X524990Y218997D01*
X525215Y219362D01*
X525449Y219722D01*
X525692Y220077D01*
X525944Y220425D01*
X526204Y220767D01*
X526472Y221102D01*
X526749Y221431D01*
X527033Y221752D01*
X527326Y222067D01*
X527626Y222374D01*
X527933Y222674D01*
X528248Y222967D01*
X528569Y223251D01*
X528898Y223528D01*
X529233Y223796D01*
X529575Y224056D01*
X529923Y224308D01*
X530278Y224551D01*
X530638Y224785D01*
X531003Y225010D01*
X531374Y225227D01*
X531751Y225434D01*
X532132Y225631D01*
X532518Y225820D01*
X532908Y225999D01*
X533303Y226168D01*
X533702Y226327D01*
X534104Y226477D01*
X534511Y226617D01*
X534920Y226746D01*
X535333Y226866D01*
X535748Y226976D01*
X536166Y227075D01*
X536586Y227164D01*
X537008Y227242D01*
X537432Y227311D01*
X537858Y227368D01*
X538285Y227416D01*
X538713Y227453D01*
X539141Y227479D01*
X539571Y227495D01*
X540000Y227500D01*
X540429Y227495D01*
X540859Y227479D01*
X541287Y227453D01*
X541715Y227416D01*
X542142Y227368D01*
X542568Y227311D01*
X542992Y227242D01*
X543414Y227164D01*
X543834Y227075D01*
X544252Y226976D01*
X544667Y226866D01*
X545080Y226746D01*
X545489Y226617D01*
X545896Y226477D01*
X546298Y226327D01*
X546697Y226168D01*
X547092Y225999D01*
X547482Y225820D01*
X547868Y225631D01*
X548249Y225434D01*
X548626Y225227D01*
X548997Y225010D01*
X549362Y224785D01*
X549722Y224551D01*
X550077Y224308D01*
X550425Y224056D01*
X550767Y223796D01*
X551102Y223528D01*
X551431Y223251D01*
X551752Y222967D01*
X552067Y222674D01*
X552374Y222374D01*
X552674Y222067D01*
X552967Y221752D01*
X553251Y221431D01*
X553528Y221102D01*
X553796Y220767D01*
X554056Y220425D01*
X554308Y220077D01*
X554551Y219722D01*
X554785Y219362D01*
X555010Y218997D01*
X555227Y218626D01*
X555434Y218249D01*
X555631Y217868D01*
X555820Y217482D01*
X555999Y217092D01*
X556168Y216697D01*
X556327Y216298D01*
X556477Y215896D01*
X556617Y215489D01*
X556746Y215080D01*
X556866Y214667D01*
X556976Y214252D01*
X557075Y213834D01*
X557164Y213414D01*
X557242Y212992D01*
X557311Y212568D01*
X557368Y212142D01*
X557416Y211715D01*
X557453Y211287D01*
X557479Y210859D01*
X557495Y210429D01*
X557500Y210000D01*
X557495Y209571D01*
X557479Y209141D01*
X557453Y208713D01*
X557416Y208285D01*
X557368Y207858D01*
X557311Y207432D01*
X557242Y207008D01*
X557164Y206586D01*
X557075Y206166D01*
X556976Y205748D01*
X556866Y205333D01*
X556746Y204920D01*
X556617Y204511D01*
X556477Y204104D01*
X556327Y203702D01*
X556168Y203303D01*
X555999Y202908D01*
X555820Y202518D01*
X555631Y202132D01*
X555434Y201751D01*
X555227Y201374D01*
X555010Y201003D01*
X554785Y200638D01*
X554551Y200278D01*
X554308Y199923D01*
X554056Y199575D01*
X553796Y199233D01*
X553528Y198898D01*
X553251Y198569D01*
X552967Y198248D01*
X552674Y197933D01*
X552374Y197626D01*
X552067Y197326D01*
X551752Y197033D01*
X551431Y196749D01*
X551102Y196472D01*
X550767Y196204D01*
X550425Y195944D01*
X550077Y195692D01*
X549722Y195449D01*
X549362Y195215D01*
X548997Y194990D01*
X548626Y194773D01*
X548249Y194566D01*
X547868Y194369D01*
X547482Y194180D01*
X547092Y194001D01*
X546697Y193832D01*
X546298Y193673D01*
X545896Y193523D01*
X545489Y193383D01*
X545080Y193254D01*
X544667Y193134D01*
X544252Y193024D01*
X543834Y192925D01*
X543414Y192836D01*
X542992Y192758D01*
X542568Y192689D01*
X542142Y192632D01*
X541715Y192584D01*
X541287Y192547D01*
X540859Y192521D01*
X540429Y192505D01*
X540000Y192500D01*
X539571Y192505D01*
X539141Y192521D01*
X538713Y192547D01*
X538285Y192584D01*
X537858Y192632D01*
X537432Y192689D01*
X537008Y192758D01*
X536586Y192836D01*
X536166Y192925D01*
X535748Y193024D01*
X535333Y193134D01*
X534920Y193254D01*
X534511Y193383D01*
X534104Y193523D01*
X533702Y193673D01*
X533303Y193832D01*
X532908Y194001D01*
X532518Y194180D01*
X532132Y194369D01*
X531751Y194566D01*
X531374Y194773D01*
X531003Y194990D01*
X530638Y195215D01*
X530278Y195449D01*
X529923Y195692D01*
X529575Y195944D01*
X529233Y196204D01*
X528898Y196472D01*
X528569Y196749D01*
X528248Y197033D01*
X527933Y197326D01*
X527626Y197626D01*
X527326Y197933D01*
X527033Y198248D01*
X526749Y198569D01*
X526472Y198898D01*
X526204Y199233D01*
X525944Y199575D01*
X525692Y199923D01*
X525449Y200278D01*
X525215Y200638D01*
X524990Y201003D01*
X524773Y201374D01*
X524566Y201751D01*
X524369Y202132D01*
X524180Y202518D01*
X524001Y202908D01*
X523832Y203303D01*
X523673Y203702D01*
X523523Y204104D01*
X523383Y204511D01*
X523254Y204920D01*
X523134Y205333D01*
X523024Y205748D01*
X522925Y206166D01*
X522836Y206586D01*
X522758Y207008D01*
X522689Y207432D01*
X522632Y207858D01*
X522584Y208285D01*
X522547Y208713D01*
X522521Y209141D01*
X522505Y209571D01*
X522500Y210000D01*
X507574Y590000D02*
X550000Y632426D01*
X507574Y590000D02*
X550000Y547574D01*
X592426Y590000D01*
X550000Y632426D01*
X532500Y590000D02*
X532505Y590429D01*
X532521Y590859D01*
X532547Y591287D01*
X532584Y591715D01*
X532632Y592142D01*
X532689Y592568D01*
X532758Y592992D01*
X532836Y593414D01*
X532925Y593834D01*
X533024Y594252D01*
X533134Y594667D01*
X533254Y595080D01*
X533383Y595489D01*
X533523Y595896D01*
X533673Y596298D01*
X533832Y596697D01*
X534001Y597092D01*
X534180Y597482D01*
X534369Y597868D01*
X534566Y598249D01*
X534773Y598626D01*
X534990Y598997D01*
X535215Y599362D01*
X535449Y599722D01*
X535692Y600077D01*
X535944Y600425D01*
X536204Y600767D01*
X536472Y601102D01*
X536749Y601431D01*
X537033Y601752D01*
X537326Y602067D01*
X537626Y602374D01*
X537933Y602674D01*
X538248Y602967D01*
X538569Y603251D01*
X538898Y603528D01*
X539233Y603796D01*
X539575Y604056D01*
X539923Y604308D01*
X540278Y604551D01*
X540638Y604785D01*
X541003Y605010D01*
X541374Y605227D01*
X541751Y605434D01*
X542132Y605631D01*
X542518Y605820D01*
X542908Y605999D01*
X543303Y606168D01*
X543702Y606327D01*
X544104Y606477D01*
X544511Y606617D01*
X544920Y606746D01*
X545333Y606866D01*
X545748Y606976D01*
X546166Y607075D01*
X546586Y607164D01*
X547008Y607242D01*
X547432Y607311D01*
X547858Y607368D01*
X548285Y607416D01*
X548713Y607453D01*
X549141Y607479D01*
X549571Y607495D01*
X550000Y607500D01*
X550429Y607495D01*
X550859Y607479D01*
X551287Y607453D01*
X551715Y607416D01*
X552142Y607368D01*
X552568Y607311D01*
X552992Y607242D01*
X553414Y607164D01*
X553834Y607075D01*
X554252Y606976D01*
X554667Y606866D01*
X555080Y606746D01*
X555489Y606617D01*
X555896Y606477D01*
X556298Y606327D01*
X556697Y606168D01*
X557092Y605999D01*
X557482Y605820D01*
X557868Y605631D01*
X558249Y605434D01*
X558626Y605227D01*
X558997Y605010D01*
X559362Y604785D01*
X559722Y604551D01*
X560077Y604308D01*
X560425Y604056D01*
X560767Y603796D01*
X561102Y603528D01*
X561431Y603251D01*
X561752Y602967D01*
X562067Y602674D01*
X562374Y602374D01*
X562674Y602067D01*
X562967Y601752D01*
X563251Y601431D01*
X563528Y601102D01*
X563796Y600767D01*
X564056Y600425D01*
X564308Y600077D01*
X564551Y599722D01*
X564785Y599362D01*
X565010Y598997D01*
X565227Y598626D01*
X565434Y598249D01*
X565631Y597868D01*
X565820Y597482D01*
X565999Y597092D01*
X566168Y596697D01*
X566327Y596298D01*
X566477Y595896D01*
X566617Y595489D01*
X566746Y595080D01*
X566866Y594667D01*
X566976Y594252D01*
X567075Y593834D01*
X567164Y593414D01*
X567242Y592992D01*
X567311Y592568D01*
X567368Y592142D01*
X567416Y591715D01*
X567453Y591287D01*
X567479Y590859D01*
X567495Y590429D01*
X567500Y590000D01*
X567495Y589571D01*
X567479Y589141D01*
X567453Y588713D01*
X567416Y588285D01*
X567368Y587858D01*
X567311Y587432D01*
X567242Y587008D01*
X567164Y586586D01*
X567075Y586166D01*
X566976Y585748D01*
X566866Y585333D01*
X566746Y584920D01*
X566617Y584511D01*
X566477Y584104D01*
X566327Y583702D01*
X566168Y583303D01*
X565999Y582908D01*
X565820Y582518D01*
X565631Y582132D01*
X565434Y581751D01*
X565227Y581374D01*
X565010Y581003D01*
X564785Y580638D01*
X564551Y580278D01*
X564308Y579923D01*
X564056Y579575D01*
X563796Y579233D01*
X563528Y578898D01*
X563251Y578569D01*
X562967Y578248D01*
X562674Y577933D01*
X562374Y577626D01*
X562067Y577326D01*
X561752Y577033D01*
X561431Y576749D01*
X561102Y576472D01*
X560767Y576204D01*
X560425Y575944D01*
X560077Y575692D01*
X559722Y575449D01*
X559362Y575215D01*
X558997Y574990D01*
X558626Y574773D01*
X558249Y574566D01*
X557868Y574369D01*
X557482Y574180D01*
X557092Y574001D01*
X556697Y573832D01*
X556298Y573673D01*
X555896Y573523D01*
X555489Y573383D01*
X555080Y573254D01*
X554667Y573134D01*
X554252Y573024D01*
X553834Y572925D01*
X553414Y572836D01*
X552992Y572758D01*
X552568Y572689D01*
X552142Y572632D01*
X551715Y572584D01*
X551287Y572547D01*
X550859Y572521D01*
X550429Y572505D01*
X550000Y572500D01*
X549571Y572505D01*
X549141Y572521D01*
X548713Y572547D01*
X548285Y572584D01*
X547858Y572632D01*
X547432Y572689D01*
X547008Y572758D01*
X546586Y572836D01*
X546166Y572925D01*
X545748Y573024D01*
X545333Y573134D01*
X544920Y573254D01*
X544511Y573383D01*
X544104Y573523D01*
X543702Y573673D01*
X543303Y573832D01*
X542908Y574001D01*
X542518Y574180D01*
X542132Y574369D01*
X541751Y574566D01*
X541374Y574773D01*
X541003Y574990D01*
X540638Y575215D01*
X540278Y575449D01*
X539923Y575692D01*
X539575Y575944D01*
X539233Y576204D01*
X538898Y576472D01*
X538569Y576749D01*
X538248Y577033D01*
X537933Y577326D01*
X537626Y577626D01*
X537326Y577933D01*
X537033Y578248D01*
X536749Y578569D01*
X536472Y578898D01*
X536204Y579233D01*
X535944Y579575D01*
X535692Y579923D01*
X535449Y580278D01*
X535215Y580638D01*
X534990Y581003D01*
X534773Y581374D01*
X534566Y581751D01*
X534369Y582132D01*
X534180Y582518D01*
X534001Y582908D01*
X533832Y583303D01*
X533673Y583702D01*
X533523Y584104D01*
X533383Y584511D01*
X533254Y584920D01*
X533134Y585333D01*
X533024Y585748D01*
X532925Y586166D01*
X532836Y586586D01*
X532758Y587008D01*
X532689Y587432D01*
X532632Y587858D01*
X532584Y588285D01*
X532547Y588713D01*
X532521Y589141D01*
X532505Y589571D01*
X532500Y590000D01*
D11*
X416986Y407046D02*
X423272Y400760D01*
X350712Y473320D02*
X344426Y467034D01*
X278152Y400760D02*
X284438Y394474D01*
X350712Y328200D02*
X356998Y334486D01*
X416986Y394474D02*
X423272Y400760D01*
X356998Y467034D02*
X350712Y473320D01*
X284438Y407046D02*
X278152Y400760D01*
X344426Y334486D02*
X350712Y328200D01*
X372085Y326224D02*
X372125Y326261D01*
X372167Y326295D01*
X372212Y326326D01*
X372259Y326354D01*
X372307Y326378D01*
X372358Y326399D01*
X372409Y326416D01*
X372462Y326430D01*
X372516Y326439D01*
X372570Y326445D01*
X372624Y326447D01*
X372678Y326445D01*
X372732Y326439D01*
X372786Y326430D01*
X372839Y326416D01*
X372890Y326399D01*
X372941Y326378D01*
X372989Y326354D01*
X373036Y326326D01*
X373081Y326295D01*
X373123Y326261D01*
X373163Y326224D01*
X373200Y326184D01*
X373234Y326142D01*
X373265Y326097D01*
X373293Y326050D01*
X373317Y326002D01*
X373338Y325951D01*
X373355Y325900D01*
X373369Y325847D01*
X373378Y325793D01*
X373384Y325739D01*
X373386Y325685D01*
X373384Y325631D01*
X373378Y325577D01*
X373369Y325523D01*
X373355Y325470D01*
X373338Y325419D01*
X373317Y325368D01*
X373293Y325320D01*
X373265Y325273D01*
X373234Y325228D01*
X373200Y325186D01*
X373163Y325146D01*
X373123Y325109D01*
X373081Y325075D01*
X373036Y325044D01*
X372989Y325016D01*
X372941Y324992D01*
X372890Y324971D01*
X372839Y324954D01*
X372786Y324940D01*
X372732Y324931D01*
X372678Y324925D01*
X372624Y324923D01*
X372570Y324925D01*
X372516Y324931D01*
X372462Y324940D01*
X372409Y324954D01*
X372358Y324971D01*
X372307Y324992D01*
X372259Y325016D01*
X372212Y325044D01*
X372167Y325075D01*
X372125Y325109D01*
X372085Y325146D01*
X372048Y325186D01*
X372014Y325228D01*
X371983Y325273D01*
X371955Y325320D01*
X371931Y325368D01*
X371910Y325419D01*
X371893Y325470D01*
X371879Y325523D01*
X371870Y325577D01*
X371864Y325631D01*
X371862Y325685D01*
X371864Y325739D01*
X371870Y325793D01*
X371879Y325847D01*
X371893Y325900D01*
X371910Y325951D01*
X371931Y326002D01*
X371955Y326050D01*
X371983Y326097D01*
X372014Y326142D01*
X372048Y326184D01*
X372085Y326224D01*
D13*
X219500Y539500D02*
X160500Y539500D01*
X219500Y539500D02*
X219500Y480500D01*
X160500Y480500D01*
X160500Y539500D01*
X160750Y532750D02*
X167250Y539250D01*
X330000Y610000D02*
X330000Y710000D01*
X330000Y610000D02*
X230000Y610000D01*
X150000Y610000D01*
X50000Y610000D01*
X50000Y710000D01*
X330000Y710000D01*
X330000Y840000D01*
X50000Y840000D01*
X50000Y710000D01*
X330000Y710000D02*
X335000Y710000D01*
X340000Y710000D01*
X340000Y840000D01*
X330000Y840000D01*
X50000Y840000D02*
X40000Y840000D01*
X40000Y710000D01*
X45000Y710000D01*
X50000Y710000D01*
X45000Y710000D02*
X45000Y605000D01*
X335000Y605000D01*
X335000Y710000D01*
X230000Y610000D02*
X230000Y560000D01*
X150000Y560000D01*
X150000Y610000D01*
D20*
X264892Y529906D02*
X264892Y527309D01*
X264890Y527210D01*
X264884Y527110D01*
X264875Y527011D01*
X264862Y526913D01*
X264845Y526815D01*
X264824Y526717D01*
X264799Y526621D01*
X264771Y526526D01*
X264739Y526432D01*
X264704Y526339D01*
X264665Y526247D01*
X264622Y526157D01*
X264577Y526069D01*
X264527Y525982D01*
X264475Y525898D01*
X264419Y525815D01*
X264361Y525735D01*
X264299Y525657D01*
X264234Y525582D01*
X264166Y525509D01*
X264096Y525439D01*
X264023Y525371D01*
X263948Y525306D01*
X263870Y525244D01*
X263790Y525186D01*
X263707Y525130D01*
X263623Y525078D01*
X263536Y525028D01*
X263448Y524983D01*
X263358Y524940D01*
X263266Y524901D01*
X263173Y524866D01*
X263079Y524834D01*
X262984Y524806D01*
X262888Y524781D01*
X262790Y524760D01*
X262692Y524743D01*
X262594Y524730D01*
X262495Y524721D01*
X262395Y524715D01*
X262296Y524713D01*
X255804Y524713D01*
X255804Y524712D02*
X255705Y524714D01*
X255605Y524720D01*
X255506Y524729D01*
X255408Y524742D01*
X255310Y524760D01*
X255212Y524780D01*
X255116Y524805D01*
X255020Y524833D01*
X254926Y524865D01*
X254833Y524900D01*
X254742Y524939D01*
X254652Y524982D01*
X254563Y525027D01*
X254477Y525077D01*
X254392Y525129D01*
X254310Y525185D01*
X254230Y525244D01*
X254152Y525305D01*
X254076Y525370D01*
X254003Y525438D01*
X253933Y525508D01*
X253865Y525581D01*
X253800Y525657D01*
X253739Y525735D01*
X253680Y525815D01*
X253624Y525897D01*
X253572Y525982D01*
X253523Y526068D01*
X253477Y526157D01*
X253434Y526247D01*
X253395Y526338D01*
X253360Y526431D01*
X253328Y526525D01*
X253300Y526621D01*
X253275Y526717D01*
X253255Y526815D01*
X253237Y526913D01*
X253224Y527011D01*
X253215Y527110D01*
X253209Y527209D01*
X253207Y527309D01*
X253208Y527309D02*
X253208Y529906D01*
X253208Y537841D02*
X253210Y537948D01*
X253216Y538054D01*
X253226Y538160D01*
X253239Y538266D01*
X253257Y538372D01*
X253278Y538476D01*
X253303Y538580D01*
X253332Y538683D01*
X253364Y538784D01*
X253401Y538884D01*
X253441Y538983D01*
X253484Y539081D01*
X253531Y539177D01*
X253582Y539271D01*
X253636Y539363D01*
X253693Y539453D01*
X253753Y539541D01*
X253817Y539626D01*
X253884Y539709D01*
X253954Y539790D01*
X254026Y539868D01*
X254102Y539944D01*
X254180Y540016D01*
X254261Y540086D01*
X254344Y540153D01*
X254429Y540217D01*
X254517Y540277D01*
X254607Y540334D01*
X254699Y540388D01*
X254793Y540439D01*
X254889Y540486D01*
X254987Y540529D01*
X255086Y540569D01*
X255186Y540606D01*
X255287Y540638D01*
X255390Y540667D01*
X255494Y540692D01*
X255598Y540713D01*
X255704Y540731D01*
X255810Y540744D01*
X255916Y540754D01*
X256022Y540760D01*
X256129Y540762D01*
X253208Y537841D02*
X253210Y537720D01*
X253216Y537599D01*
X253226Y537479D01*
X253239Y537358D01*
X253257Y537239D01*
X253278Y537119D01*
X253303Y537001D01*
X253332Y536884D01*
X253365Y536767D01*
X253401Y536652D01*
X253442Y536538D01*
X253485Y536425D01*
X253533Y536313D01*
X253584Y536204D01*
X253639Y536096D01*
X253697Y535989D01*
X253758Y535885D01*
X253823Y535783D01*
X253891Y535683D01*
X253962Y535585D01*
X254036Y535489D01*
X254113Y535396D01*
X254194Y535306D01*
X254277Y535218D01*
X254363Y535133D01*
X254452Y535050D01*
X254543Y534971D01*
X254637Y534894D01*
X254733Y534821D01*
X254831Y534751D01*
X254932Y534684D01*
X255035Y534620D01*
X255140Y534560D01*
X255247Y534502D01*
X255355Y534449D01*
X255465Y534399D01*
X255577Y534353D01*
X255690Y534310D01*
X255805Y534271D01*
X258401Y539788D02*
X258323Y539867D01*
X258243Y539943D01*
X258160Y540016D01*
X258074Y540086D01*
X257987Y540153D01*
X257896Y540217D01*
X257804Y540277D01*
X257710Y540335D01*
X257613Y540389D01*
X257515Y540439D01*
X257415Y540486D01*
X257314Y540530D01*
X257211Y540570D01*
X257106Y540606D01*
X257001Y540638D01*
X256894Y540667D01*
X256787Y540692D01*
X256678Y540714D01*
X256569Y540731D01*
X256460Y540745D01*
X256350Y540754D01*
X256239Y540760D01*
X256129Y540762D01*
X258401Y539788D02*
X264892Y534271D01*
X264892Y540762D01*
X264892Y545701D02*
X264892Y548946D01*
X264890Y549059D01*
X264884Y549172D01*
X264874Y549285D01*
X264860Y549398D01*
X264843Y549510D01*
X264821Y549621D01*
X264796Y549731D01*
X264766Y549841D01*
X264733Y549949D01*
X264696Y550056D01*
X264656Y550162D01*
X264611Y550266D01*
X264563Y550369D01*
X264512Y550470D01*
X264457Y550569D01*
X264399Y550666D01*
X264337Y550761D01*
X264272Y550854D01*
X264204Y550944D01*
X264133Y551032D01*
X264058Y551118D01*
X263981Y551201D01*
X263901Y551281D01*
X263818Y551358D01*
X263732Y551433D01*
X263644Y551504D01*
X263554Y551572D01*
X263461Y551637D01*
X263366Y551699D01*
X263269Y551757D01*
X263170Y551812D01*
X263069Y551863D01*
X262966Y551911D01*
X262862Y551956D01*
X262756Y551996D01*
X262649Y552033D01*
X262541Y552066D01*
X262431Y552096D01*
X262321Y552121D01*
X262210Y552143D01*
X262098Y552160D01*
X261985Y552174D01*
X261872Y552184D01*
X261759Y552190D01*
X261646Y552192D01*
X261533Y552190D01*
X261420Y552184D01*
X261307Y552174D01*
X261194Y552160D01*
X261082Y552143D01*
X260971Y552121D01*
X260861Y552096D01*
X260751Y552066D01*
X260643Y552033D01*
X260536Y551996D01*
X260430Y551956D01*
X260326Y551911D01*
X260223Y551863D01*
X260122Y551812D01*
X260023Y551757D01*
X259926Y551699D01*
X259831Y551637D01*
X259738Y551572D01*
X259648Y551504D01*
X259560Y551433D01*
X259474Y551358D01*
X259391Y551281D01*
X259311Y551201D01*
X259234Y551118D01*
X259159Y551032D01*
X259088Y550944D01*
X259020Y550854D01*
X258955Y550761D01*
X258893Y550666D01*
X258835Y550569D01*
X258780Y550470D01*
X258729Y550369D01*
X258681Y550266D01*
X258636Y550162D01*
X258596Y550056D01*
X258559Y549949D01*
X258526Y549841D01*
X258496Y549731D01*
X258471Y549621D01*
X258449Y549510D01*
X258432Y549398D01*
X258418Y549285D01*
X258408Y549172D01*
X258402Y549059D01*
X258400Y548946D01*
X253208Y549596D02*
X253208Y545701D01*
X253208Y549596D02*
X253210Y549697D01*
X253216Y549797D01*
X253226Y549897D01*
X253239Y549997D01*
X253257Y550096D01*
X253278Y550195D01*
X253303Y550292D01*
X253332Y550389D01*
X253365Y550484D01*
X253401Y550578D01*
X253441Y550670D01*
X253484Y550761D01*
X253531Y550850D01*
X253581Y550937D01*
X253635Y551023D01*
X253692Y551106D01*
X253752Y551186D01*
X253815Y551265D01*
X253882Y551341D01*
X253951Y551414D01*
X254023Y551484D01*
X254097Y551552D01*
X254174Y551617D01*
X254254Y551678D01*
X254336Y551737D01*
X254420Y551792D01*
X254506Y551844D01*
X254594Y551893D01*
X254684Y551938D01*
X254776Y551980D01*
X254869Y552018D01*
X254964Y552052D01*
X255059Y552083D01*
X255156Y552110D01*
X255254Y552133D01*
X255353Y552153D01*
X255453Y552168D01*
X255553Y552180D01*
X255653Y552188D01*
X255754Y552192D01*
X255854Y552192D01*
X255955Y552188D01*
X256055Y552180D01*
X256155Y552168D01*
X256255Y552153D01*
X256354Y552133D01*
X256452Y552110D01*
X256549Y552083D01*
X256644Y552052D01*
X256739Y552018D01*
X256832Y551980D01*
X256924Y551938D01*
X257014Y551893D01*
X257102Y551844D01*
X257188Y551792D01*
X257272Y551737D01*
X257354Y551678D01*
X257434Y551617D01*
X257511Y551552D01*
X257585Y551484D01*
X257657Y551414D01*
X257726Y551341D01*
X257793Y551265D01*
X257856Y551186D01*
X257916Y551106D01*
X257973Y551023D01*
X258027Y550937D01*
X258077Y550850D01*
X258124Y550761D01*
X258167Y550670D01*
X258207Y550578D01*
X258243Y550484D01*
X258276Y550389D01*
X258305Y550292D01*
X258330Y550195D01*
X258351Y550096D01*
X258369Y549997D01*
X258382Y549897D01*
X258392Y549797D01*
X258398Y549697D01*
X258400Y549596D01*
X258401Y549596D02*
X258401Y546999D01*
D13*
X219500Y260500D02*
X160500Y260500D01*
X160500Y319500D01*
X219500Y319500D01*
X219500Y260500D01*
X219250Y267250D02*
X212750Y260750D01*
X50000Y190000D02*
X50000Y90000D01*
X50000Y190000D02*
X150000Y190000D01*
X230000Y190000D01*
X330000Y190000D01*
X330000Y90000D01*
X50000Y90000D01*
X50000Y-40000D01*
X330000Y-40000D01*
X330000Y90000D01*
X50000Y90000D02*
X45000Y90000D01*
X40000Y90000D01*
X40000Y-40000D01*
X50000Y-40000D01*
X330000Y-40000D02*
X340000Y-40000D01*
X340000Y90000D01*
X335000Y90000D01*
X330000Y90000D01*
X335000Y90000D02*
X335000Y195000D01*
X45000Y195000D01*
X45000Y90000D01*
X150000Y190000D02*
X150000Y240000D01*
X230000Y240000D01*
X230000Y190000D01*
D16*
X137300Y423650D02*
X137300Y436350D01*
X238900Y436350D02*
X238900Y423650D01*
X137300Y376350D02*
X137300Y363650D01*
X238900Y363650D02*
X238900Y376350D01*
M02*
