G04 EAGLE Gerber RS-274X export*
G75*
%MOMM*%
%FSLAX34Y34*%
%LPD*%
%INSoldermask Top*%
%IPPOS*%
%AMOC8*
5,1,8,0,0,1.08239X$1,22.5*%
G01*
%ADD10R,1.503200X1.703200*%
%ADD11R,1.703200X1.503200*%
%ADD12R,0.453200X1.453200*%
%ADD13R,1.453200X0.453200*%
%ADD14C,1.511200*%
%ADD15R,1.203200X0.503200*%
%ADD16R,1.203200X0.803200*%
%ADD17C,0.853200*%
%ADD18R,1.803200X1.503200*%
%ADD19R,1.503200X1.803200*%
%ADD20R,3.703200X2.703200*%
%ADD21C,1.727200*%
%ADD22R,0.753200X1.553200*%
%ADD23R,4.403200X1.603200*%
%ADD24R,1.203200X1.603200*%
%ADD25R,1.003200X1.603200*%
%ADD26R,1.000000X1.600000*%
%ADD27C,1.473200*%
%ADD28C,3.003200*%
%ADD29R,1.703200X1.703200*%
%ADD30C,2.082800*%
%ADD31R,1.033200X0.833200*%
%ADD32R,1.403200X1.303200*%
%ADD33R,1.503200X1.753200*%
%ADD34R,1.397000X0.508000*%
%ADD35R,1.403200X0.553200*%
%ADD36R,1.453200X0.553200*%
%ADD37R,0.653200X3.753200*%
%ADD38C,3.203200*%
%ADD39C,1.711200*%
%ADD40C,2.082800*%
%ADD41R,0.503200X1.053200*%
%ADD42R,1.053200X0.503200*%
%ADD43R,2.753200X2.753200*%
%ADD44C,0.959600*%

G36*
X374690Y627049D02*
X374690Y627049D01*
X375024Y627059D01*
X375101Y627069D01*
X375179Y627073D01*
X375510Y627121D01*
X375842Y627164D01*
X375918Y627181D01*
X375995Y627192D01*
X376320Y627273D01*
X376645Y627347D01*
X376719Y627372D01*
X376795Y627390D01*
X377111Y627502D01*
X377428Y627607D01*
X377499Y627639D01*
X377572Y627665D01*
X377876Y627806D01*
X378181Y627942D01*
X378249Y627980D01*
X378319Y628013D01*
X378608Y628184D01*
X378898Y628348D01*
X378962Y628393D01*
X379029Y628433D01*
X379300Y628630D01*
X379573Y628822D01*
X379632Y628873D01*
X379695Y628919D01*
X379945Y629142D01*
X380198Y629359D01*
X380252Y629415D01*
X380311Y629467D01*
X380538Y629713D01*
X380769Y629954D01*
X380817Y630015D01*
X380870Y630073D01*
X381072Y630338D01*
X381279Y630602D01*
X381321Y630667D01*
X381368Y630729D01*
X381543Y631014D01*
X381724Y631295D01*
X381760Y631365D01*
X381801Y631431D01*
X381947Y631731D01*
X382100Y632029D01*
X382129Y632102D01*
X382163Y632172D01*
X382280Y632485D01*
X382403Y632796D01*
X382424Y632871D01*
X382452Y632944D01*
X382538Y633267D01*
X382630Y633588D01*
X382644Y633665D01*
X382664Y633740D01*
X382719Y634070D01*
X382779Y634399D01*
X382784Y634462D01*
X382799Y634554D01*
X382854Y635376D01*
X382851Y635469D01*
X382855Y635532D01*
X382855Y657282D01*
X382839Y657616D01*
X382829Y657950D01*
X382819Y658027D01*
X382815Y658105D01*
X382767Y658436D01*
X382724Y658768D01*
X382707Y658844D01*
X382696Y658921D01*
X382615Y659246D01*
X382541Y659571D01*
X382516Y659645D01*
X382498Y659721D01*
X382386Y660037D01*
X382281Y660354D01*
X382249Y660425D01*
X382223Y660498D01*
X382082Y660802D01*
X381946Y661107D01*
X381908Y661175D01*
X381875Y661245D01*
X381704Y661534D01*
X381540Y661824D01*
X381495Y661888D01*
X381455Y661955D01*
X381258Y662226D01*
X381066Y662499D01*
X381015Y662558D01*
X380969Y662621D01*
X380746Y662871D01*
X380529Y663124D01*
X380473Y663178D01*
X380421Y663237D01*
X380175Y663464D01*
X379934Y663695D01*
X379873Y663743D01*
X379815Y663796D01*
X379550Y663998D01*
X379287Y664205D01*
X379221Y664247D01*
X379159Y664294D01*
X378874Y664469D01*
X378593Y664650D01*
X378523Y664686D01*
X378457Y664727D01*
X378157Y664873D01*
X377859Y665026D01*
X377786Y665055D01*
X377716Y665089D01*
X377403Y665206D01*
X377092Y665329D01*
X377017Y665350D01*
X376944Y665378D01*
X376621Y665464D01*
X376300Y665556D01*
X376223Y665570D01*
X376148Y665590D01*
X375818Y665645D01*
X375489Y665705D01*
X375426Y665710D01*
X375334Y665725D01*
X374512Y665780D01*
X374419Y665777D01*
X374356Y665781D01*
X369106Y665781D01*
X368772Y665765D01*
X368438Y665755D01*
X368361Y665745D01*
X368283Y665741D01*
X367952Y665693D01*
X367620Y665650D01*
X367544Y665633D01*
X367467Y665622D01*
X367142Y665541D01*
X366817Y665467D01*
X366743Y665442D01*
X366667Y665424D01*
X366351Y665312D01*
X366034Y665207D01*
X365963Y665175D01*
X365890Y665149D01*
X365586Y665008D01*
X365281Y664872D01*
X365213Y664834D01*
X365143Y664801D01*
X364854Y664630D01*
X364564Y664466D01*
X364500Y664421D01*
X364433Y664381D01*
X364162Y664184D01*
X363889Y663992D01*
X363830Y663941D01*
X363767Y663895D01*
X363517Y663672D01*
X363264Y663455D01*
X363210Y663399D01*
X363152Y663347D01*
X362924Y663101D01*
X362693Y662860D01*
X362645Y662799D01*
X362592Y662741D01*
X362390Y662476D01*
X362183Y662213D01*
X362141Y662147D01*
X362094Y662085D01*
X361919Y661800D01*
X361738Y661519D01*
X361702Y661449D01*
X361661Y661383D01*
X361515Y661083D01*
X361362Y660785D01*
X361334Y660712D01*
X361299Y660642D01*
X361182Y660329D01*
X361059Y660018D01*
X361038Y659943D01*
X361010Y659870D01*
X360924Y659547D01*
X360832Y659226D01*
X360818Y659149D01*
X360798Y659074D01*
X360743Y658744D01*
X360683Y658415D01*
X360678Y658352D01*
X360663Y658260D01*
X360608Y657438D01*
X360611Y657345D01*
X360607Y657282D01*
X360607Y635532D01*
X360623Y635198D01*
X360633Y634864D01*
X360643Y634787D01*
X360647Y634709D01*
X360695Y634378D01*
X360738Y634046D01*
X360755Y633970D01*
X360766Y633893D01*
X360847Y633568D01*
X360921Y633243D01*
X360946Y633169D01*
X360964Y633093D01*
X361076Y632777D01*
X361181Y632460D01*
X361213Y632389D01*
X361239Y632316D01*
X361380Y632012D01*
X361516Y631707D01*
X361554Y631639D01*
X361587Y631569D01*
X361758Y631280D01*
X361922Y630990D01*
X361967Y630926D01*
X362007Y630859D01*
X362204Y630588D01*
X362396Y630315D01*
X362447Y630256D01*
X362493Y630193D01*
X362716Y629943D01*
X362933Y629690D01*
X362989Y629636D01*
X363041Y629578D01*
X363287Y629350D01*
X363528Y629119D01*
X363589Y629071D01*
X363647Y629018D01*
X363912Y628816D01*
X364176Y628609D01*
X364241Y628567D01*
X364303Y628520D01*
X364588Y628345D01*
X364869Y628164D01*
X364939Y628128D01*
X365005Y628087D01*
X365305Y627941D01*
X365603Y627788D01*
X365676Y627760D01*
X365746Y627725D01*
X366059Y627608D01*
X366370Y627485D01*
X366445Y627464D01*
X366518Y627436D01*
X366841Y627350D01*
X367162Y627258D01*
X367239Y627244D01*
X367314Y627224D01*
X367644Y627169D01*
X367973Y627109D01*
X368036Y627104D01*
X368128Y627089D01*
X368950Y627034D01*
X369043Y627037D01*
X369106Y627033D01*
X374356Y627033D01*
X374690Y627049D01*
G37*
G36*
X66805Y437154D02*
X66805Y437154D01*
X66807Y437151D01*
X68087Y437346D01*
X68093Y437352D01*
X68097Y437349D01*
X69301Y437824D01*
X69306Y437831D01*
X69311Y437829D01*
X70379Y438560D01*
X70382Y438567D01*
X70388Y438567D01*
X71267Y439517D01*
X71267Y439525D01*
X71273Y439526D01*
X71918Y440647D01*
X71917Y440656D01*
X71923Y440658D01*
X72302Y441895D01*
X72300Y441903D01*
X72304Y441906D01*
X72399Y443196D01*
X72396Y443201D01*
X72399Y443203D01*
X72332Y444334D01*
X72327Y444339D01*
X72331Y444343D01*
X72044Y445440D01*
X72038Y445444D01*
X72041Y445449D01*
X71546Y446468D01*
X71540Y446471D01*
X71541Y446476D01*
X70857Y447379D01*
X70850Y447381D01*
X70850Y447386D01*
X70003Y448139D01*
X69996Y448139D01*
X69995Y448144D01*
X69018Y448717D01*
X69011Y448716D01*
X69009Y448721D01*
X67938Y449092D01*
X67932Y449089D01*
X67929Y449094D01*
X66807Y449249D01*
X66802Y449246D01*
X66800Y449249D01*
X54800Y449249D01*
X54795Y449246D01*
X54792Y449249D01*
X53525Y449044D01*
X53519Y449038D01*
X53515Y449041D01*
X52325Y448559D01*
X52321Y448552D01*
X52315Y448554D01*
X51262Y447820D01*
X51260Y447812D01*
X51254Y447813D01*
X50391Y446863D01*
X50390Y446854D01*
X50385Y446854D01*
X49755Y445735D01*
X49756Y445727D01*
X49750Y445725D01*
X49385Y444495D01*
X49388Y444487D01*
X49383Y444484D01*
X49301Y443203D01*
X49304Y443199D01*
X49301Y443197D01*
X49383Y441916D01*
X49389Y441910D01*
X49385Y441905D01*
X49750Y440675D01*
X49757Y440670D01*
X49755Y440665D01*
X50385Y439546D01*
X50392Y439543D01*
X50391Y439537D01*
X51254Y438587D01*
X51262Y438586D01*
X51262Y438580D01*
X52315Y437846D01*
X52323Y437846D01*
X52325Y437841D01*
X53515Y437359D01*
X53522Y437361D01*
X53525Y437356D01*
X54792Y437151D01*
X54797Y437154D01*
X54800Y437151D01*
X66800Y437151D01*
X66805Y437154D01*
G37*
G36*
X66805Y350754D02*
X66805Y350754D01*
X66807Y350751D01*
X68087Y350946D01*
X68093Y350952D01*
X68097Y350949D01*
X69301Y351424D01*
X69306Y351431D01*
X69311Y351429D01*
X70379Y352160D01*
X70382Y352167D01*
X70388Y352167D01*
X71267Y353117D01*
X71267Y353125D01*
X71273Y353126D01*
X71918Y354247D01*
X71917Y354256D01*
X71923Y354258D01*
X72302Y355495D01*
X72300Y355503D01*
X72304Y355506D01*
X72399Y356796D01*
X72396Y356801D01*
X72399Y356803D01*
X72332Y357934D01*
X72327Y357939D01*
X72331Y357943D01*
X72044Y359040D01*
X72038Y359044D01*
X72041Y359049D01*
X71546Y360068D01*
X71540Y360071D01*
X71541Y360076D01*
X70857Y360979D01*
X70850Y360981D01*
X70850Y360986D01*
X70003Y361739D01*
X69996Y361739D01*
X69995Y361744D01*
X69018Y362317D01*
X69011Y362316D01*
X69009Y362321D01*
X67938Y362692D01*
X67932Y362689D01*
X67929Y362694D01*
X66807Y362849D01*
X66802Y362846D01*
X66800Y362849D01*
X54800Y362849D01*
X54795Y362846D01*
X54792Y362849D01*
X53525Y362644D01*
X53519Y362638D01*
X53515Y362641D01*
X52325Y362159D01*
X52321Y362152D01*
X52315Y362154D01*
X51262Y361420D01*
X51260Y361412D01*
X51254Y361413D01*
X50391Y360463D01*
X50390Y360454D01*
X50385Y360454D01*
X49755Y359335D01*
X49756Y359327D01*
X49750Y359325D01*
X49385Y358095D01*
X49388Y358087D01*
X49383Y358084D01*
X49301Y356803D01*
X49304Y356799D01*
X49301Y356797D01*
X49383Y355516D01*
X49389Y355510D01*
X49385Y355505D01*
X49750Y354275D01*
X49757Y354270D01*
X49755Y354265D01*
X50385Y353146D01*
X50392Y353143D01*
X50391Y353137D01*
X51254Y352187D01*
X51262Y352186D01*
X51262Y352180D01*
X52315Y351446D01*
X52323Y351446D01*
X52325Y351441D01*
X53515Y350959D01*
X53522Y350961D01*
X53525Y350956D01*
X54792Y350751D01*
X54797Y350754D01*
X54800Y350751D01*
X66800Y350751D01*
X66805Y350754D01*
G37*
G36*
X22003Y437153D02*
X22003Y437153D01*
X22005Y437151D01*
X23181Y437262D01*
X23186Y437267D01*
X23190Y437264D01*
X24322Y437602D01*
X24326Y437608D01*
X24331Y437606D01*
X25375Y438158D01*
X25378Y438165D01*
X25383Y438163D01*
X26299Y438909D01*
X26300Y438916D01*
X26306Y438916D01*
X27059Y439826D01*
X27059Y439833D01*
X27064Y439834D01*
X27625Y440873D01*
X27624Y440878D01*
X27628Y440880D01*
X27627Y440881D01*
X27629Y440882D01*
X27976Y442011D01*
X27976Y442012D01*
X27977Y442013D01*
X27974Y442017D01*
X27978Y442020D01*
X28099Y443195D01*
X28095Y443202D01*
X28099Y443206D01*
X27942Y444546D01*
X27937Y444552D01*
X27940Y444557D01*
X27489Y445828D01*
X27482Y445833D01*
X27484Y445838D01*
X26762Y446977D01*
X26754Y446980D01*
X26755Y446986D01*
X25797Y447936D01*
X25789Y447937D01*
X25788Y447943D01*
X24643Y448656D01*
X24635Y448655D01*
X24633Y448661D01*
X23357Y449101D01*
X23350Y449099D01*
X23347Y449103D01*
X22005Y449249D01*
X22002Y449247D01*
X22000Y449249D01*
X16000Y449249D01*
X15997Y449247D01*
X15994Y449249D01*
X14665Y449094D01*
X14659Y449088D01*
X14655Y449091D01*
X13394Y448644D01*
X13389Y448637D01*
X13384Y448639D01*
X12254Y447922D01*
X12251Y447915D01*
X12245Y447916D01*
X11303Y446966D01*
X11302Y446957D01*
X11296Y446957D01*
X10589Y445821D01*
X10590Y445813D01*
X10584Y445811D01*
X10148Y444546D01*
X10150Y444538D01*
X10145Y444536D01*
X10001Y443205D01*
X10005Y443199D01*
X10001Y443195D01*
X10111Y442029D01*
X10116Y442024D01*
X10113Y442020D01*
X10448Y440897D01*
X10454Y440893D01*
X10452Y440889D01*
X11000Y439853D01*
X11006Y439850D01*
X11005Y439845D01*
X11744Y438937D01*
X11751Y438935D01*
X11751Y438930D01*
X12653Y438183D01*
X12661Y438183D01*
X12661Y438178D01*
X13692Y437621D01*
X13699Y437622D01*
X13701Y437617D01*
X14820Y437273D01*
X14827Y437275D01*
X14830Y437271D01*
X15995Y437151D01*
X15998Y437153D01*
X16000Y437151D01*
X22000Y437151D01*
X22003Y437153D01*
G37*
G36*
X22003Y350753D02*
X22003Y350753D01*
X22005Y350751D01*
X23181Y350862D01*
X23186Y350867D01*
X23190Y350864D01*
X24322Y351202D01*
X24326Y351208D01*
X24331Y351206D01*
X25375Y351758D01*
X25378Y351765D01*
X25383Y351763D01*
X26299Y352509D01*
X26300Y352516D01*
X26306Y352516D01*
X27059Y353426D01*
X27059Y353433D01*
X27064Y353434D01*
X27625Y354473D01*
X27624Y354478D01*
X27628Y354480D01*
X27627Y354481D01*
X27629Y354482D01*
X27976Y355611D01*
X27976Y355612D01*
X27977Y355613D01*
X27974Y355617D01*
X27978Y355620D01*
X28099Y356795D01*
X28095Y356802D01*
X28099Y356806D01*
X27942Y358146D01*
X27937Y358152D01*
X27940Y358157D01*
X27489Y359428D01*
X27482Y359433D01*
X27484Y359438D01*
X26762Y360577D01*
X26754Y360580D01*
X26755Y360586D01*
X25797Y361536D01*
X25789Y361537D01*
X25788Y361543D01*
X24643Y362256D01*
X24635Y362255D01*
X24633Y362261D01*
X23357Y362701D01*
X23350Y362699D01*
X23347Y362703D01*
X22005Y362849D01*
X22002Y362847D01*
X22000Y362849D01*
X16000Y362849D01*
X15997Y362847D01*
X15994Y362849D01*
X14665Y362694D01*
X14659Y362688D01*
X14655Y362691D01*
X13394Y362244D01*
X13389Y362237D01*
X13384Y362239D01*
X12254Y361522D01*
X12251Y361515D01*
X12245Y361516D01*
X11303Y360566D01*
X11302Y360557D01*
X11296Y360557D01*
X10589Y359421D01*
X10590Y359413D01*
X10584Y359411D01*
X10148Y358146D01*
X10150Y358138D01*
X10145Y358136D01*
X10001Y356805D01*
X10005Y356799D01*
X10001Y356795D01*
X10111Y355629D01*
X10116Y355624D01*
X10113Y355620D01*
X10448Y354497D01*
X10454Y354493D01*
X10452Y354489D01*
X11000Y353453D01*
X11006Y353450D01*
X11005Y353445D01*
X11744Y352537D01*
X11751Y352535D01*
X11751Y352530D01*
X12653Y351783D01*
X12661Y351783D01*
X12661Y351778D01*
X13692Y351221D01*
X13699Y351222D01*
X13701Y351217D01*
X14820Y350873D01*
X14827Y350875D01*
X14830Y350871D01*
X15995Y350751D01*
X15998Y350753D01*
X16000Y350751D01*
X22000Y350751D01*
X22003Y350753D01*
G37*
D10*
X330020Y495240D03*
X349020Y495240D03*
X477036Y591272D03*
X458036Y591272D03*
D11*
X484192Y281964D03*
X484192Y262964D03*
X140000Y539500D03*
X140000Y520500D03*
X120000Y539500D03*
X120000Y520500D03*
D12*
X502500Y385000D03*
X507500Y385000D03*
X512500Y385000D03*
X517500Y385000D03*
D13*
X522500Y395000D03*
X522500Y400000D03*
X522500Y405000D03*
D12*
X517500Y415000D03*
X512500Y415000D03*
X507500Y415000D03*
X502500Y415000D03*
D13*
X497500Y405000D03*
X497500Y400000D03*
X497500Y395000D03*
D14*
X421307Y694943D03*
X418693Y665057D03*
X421307Y764943D03*
X418693Y735057D03*
X418693Y134943D03*
X421307Y105057D03*
X418693Y64943D03*
X421307Y35057D03*
X529393Y500607D03*
X550607Y479393D03*
X589393Y440607D03*
X610607Y419393D03*
X610607Y380607D03*
X589393Y359393D03*
X550607Y320607D03*
X529393Y299393D03*
D15*
X66600Y392500D03*
X66600Y397500D03*
D16*
X66600Y367750D03*
X66600Y375500D03*
D15*
X66600Y382500D03*
X66600Y387500D03*
X66600Y407500D03*
X66600Y402500D03*
D16*
X66600Y432250D03*
X66600Y424500D03*
D15*
X66600Y417500D03*
X66600Y412500D03*
D17*
X55550Y428900D03*
X55550Y371100D03*
D18*
X387808Y120980D03*
X387808Y139980D03*
D19*
X484148Y307888D03*
X503148Y307888D03*
X529500Y466096D03*
X510500Y466096D03*
X427748Y627176D03*
X408748Y627176D03*
D18*
X394280Y97204D03*
X394280Y78204D03*
D19*
X559644Y386096D03*
X578644Y386096D03*
X559644Y413904D03*
X578644Y413904D03*
D18*
X392000Y666860D03*
X392000Y685860D03*
D10*
X261524Y486384D03*
X280524Y486384D03*
X261524Y464568D03*
X280524Y464568D03*
D20*
X92500Y550000D03*
X27500Y550000D03*
X92500Y250000D03*
X27500Y250000D03*
D21*
X22380Y648730D02*
X7140Y648730D01*
X7140Y676670D02*
X22380Y676670D01*
D22*
X356452Y221895D03*
X346952Y221895D03*
X337452Y221895D03*
X337452Y194393D03*
X346952Y194393D03*
X356452Y194393D03*
D10*
X366452Y168144D03*
X347452Y168144D03*
D11*
X310000Y213884D03*
X310000Y232884D03*
X283048Y213884D03*
X283048Y232884D03*
D10*
X337452Y272048D03*
X356452Y272048D03*
X337260Y296592D03*
X356260Y296592D03*
X337452Y248144D03*
X356452Y248144D03*
D23*
X396952Y189644D03*
X396952Y226644D03*
D19*
X368452Y591312D03*
X387452Y591312D03*
D24*
X377952Y552880D03*
X368452Y574880D03*
X387452Y574880D03*
D25*
X356866Y617222D03*
X386846Y617222D03*
D26*
X371856Y617232D03*
D19*
X377596Y533400D03*
X396596Y533400D03*
D27*
X411480Y164592D03*
X405384Y579120D03*
X276160Y194216D03*
D28*
X760000Y400000D03*
D18*
X506888Y263836D03*
X506888Y282836D03*
D11*
X473840Y219828D03*
X473840Y238828D03*
D29*
G36*
X506427Y163722D02*
X518470Y175765D01*
X530513Y163722D01*
X518470Y151679D01*
X506427Y163722D01*
G37*
G36*
X481679Y188470D02*
X493722Y200513D01*
X505765Y188470D01*
X493722Y176427D01*
X481679Y188470D01*
G37*
G36*
X520662Y627283D02*
X508619Y639326D01*
X520662Y651369D01*
X532705Y639326D01*
X520662Y627283D01*
G37*
G36*
X495914Y602535D02*
X483871Y614578D01*
X495914Y626621D01*
X507957Y614578D01*
X495914Y602535D01*
G37*
D18*
X473544Y188788D03*
X473544Y169788D03*
D19*
X482340Y635088D03*
X463340Y635088D03*
D21*
X27620Y161270D02*
X12380Y161270D01*
X12380Y133330D02*
X27620Y133330D01*
D19*
X297724Y285240D03*
X316724Y285240D03*
D11*
X537176Y432460D03*
X537176Y413460D03*
D18*
X480000Y382836D03*
X480000Y363836D03*
X453320Y401604D03*
X453320Y382604D03*
D30*
X454152Y563880D03*
X479552Y563880D03*
X454152Y538480D03*
X479552Y538480D03*
X454152Y513080D03*
X479552Y513080D03*
D18*
X94488Y362356D03*
X94488Y381356D03*
X94488Y439268D03*
X94488Y420268D03*
D31*
X42672Y320732D03*
X42672Y343732D03*
D32*
X418318Y315902D03*
X394818Y315902D03*
X394818Y298402D03*
X418318Y298402D03*
D11*
X395624Y277724D03*
X395624Y258724D03*
X418192Y277724D03*
X418192Y258724D03*
D33*
G36*
X572504Y198685D02*
X583134Y209315D01*
X595530Y196919D01*
X584900Y186289D01*
X572504Y198685D01*
G37*
G36*
X516289Y254900D02*
X526919Y265530D01*
X539315Y253134D01*
X528685Y242504D01*
X516289Y254900D01*
G37*
G36*
X540685Y166866D02*
X551315Y177496D01*
X563711Y165100D01*
X553081Y154470D01*
X540685Y166866D01*
G37*
G36*
X484470Y223081D02*
X495100Y233711D01*
X507496Y221315D01*
X496866Y210685D01*
X484470Y223081D01*
G37*
G36*
X561315Y622504D02*
X550685Y633134D01*
X563081Y645530D01*
X573711Y634900D01*
X561315Y622504D01*
G37*
G36*
X505100Y566289D02*
X494470Y576919D01*
X506866Y589315D01*
X517496Y578685D01*
X505100Y566289D01*
G37*
G36*
X593134Y590685D02*
X582504Y601315D01*
X594900Y613711D01*
X605530Y603081D01*
X593134Y590685D01*
G37*
G36*
X536919Y534470D02*
X526289Y545100D01*
X538685Y557496D01*
X549315Y546866D01*
X536919Y534470D01*
G37*
D34*
G36*
X361711Y340320D02*
X371589Y330442D01*
X367997Y326850D01*
X358119Y336728D01*
X361711Y340320D01*
G37*
G36*
X365247Y343855D02*
X375125Y333977D01*
X371533Y330385D01*
X361655Y340263D01*
X365247Y343855D01*
G37*
G36*
X368782Y347391D02*
X378660Y337513D01*
X375068Y333921D01*
X365190Y343799D01*
X368782Y347391D01*
G37*
G36*
X372318Y350926D02*
X382196Y341048D01*
X378604Y337456D01*
X368726Y347334D01*
X372318Y350926D01*
G37*
G36*
X375853Y354462D02*
X385731Y344584D01*
X382139Y340992D01*
X372261Y350870D01*
X375853Y354462D01*
G37*
G36*
X379389Y357998D02*
X389267Y348120D01*
X385675Y344528D01*
X375797Y354406D01*
X379389Y357998D01*
G37*
G36*
X382924Y361533D02*
X392802Y351655D01*
X389210Y348063D01*
X379332Y357941D01*
X382924Y361533D01*
G37*
G36*
X386460Y365069D02*
X396338Y355191D01*
X392746Y351599D01*
X382868Y361477D01*
X386460Y365069D01*
G37*
G36*
X389995Y368604D02*
X399873Y358726D01*
X396281Y355134D01*
X386403Y365012D01*
X389995Y368604D01*
G37*
G36*
X393531Y372140D02*
X403409Y362262D01*
X399817Y358670D01*
X389939Y368548D01*
X393531Y372140D01*
G37*
G36*
X397066Y375675D02*
X406944Y365797D01*
X403352Y362205D01*
X393474Y372083D01*
X397066Y375675D01*
G37*
G36*
X400602Y379211D02*
X410480Y369333D01*
X406888Y365741D01*
X397010Y375619D01*
X400602Y379211D01*
G37*
G36*
X404138Y382746D02*
X414016Y372868D01*
X410424Y369276D01*
X400546Y379154D01*
X404138Y382746D01*
G37*
G36*
X407673Y386282D02*
X417551Y376404D01*
X413959Y372812D01*
X404081Y382690D01*
X407673Y386282D01*
G37*
G36*
X411209Y389817D02*
X421087Y379939D01*
X417495Y376347D01*
X407617Y386225D01*
X411209Y389817D01*
G37*
G36*
X414744Y393353D02*
X424622Y383475D01*
X421030Y379883D01*
X411152Y389761D01*
X414744Y393353D01*
G37*
G36*
X411152Y411759D02*
X421030Y421637D01*
X424622Y418045D01*
X414744Y408167D01*
X411152Y411759D01*
G37*
G36*
X407617Y415295D02*
X417495Y425173D01*
X421087Y421581D01*
X411209Y411703D01*
X407617Y415295D01*
G37*
G36*
X404081Y418830D02*
X413959Y428708D01*
X417551Y425116D01*
X407673Y415238D01*
X404081Y418830D01*
G37*
G36*
X400546Y422366D02*
X410424Y432244D01*
X414016Y428652D01*
X404138Y418774D01*
X400546Y422366D01*
G37*
G36*
X397010Y425901D02*
X406888Y435779D01*
X410480Y432187D01*
X400602Y422309D01*
X397010Y425901D01*
G37*
G36*
X393474Y429437D02*
X403352Y439315D01*
X406944Y435723D01*
X397066Y425845D01*
X393474Y429437D01*
G37*
G36*
X389939Y432972D02*
X399817Y442850D01*
X403409Y439258D01*
X393531Y429380D01*
X389939Y432972D01*
G37*
G36*
X386403Y436508D02*
X396281Y446386D01*
X399873Y442794D01*
X389995Y432916D01*
X386403Y436508D01*
G37*
G36*
X382868Y440043D02*
X392746Y449921D01*
X396338Y446329D01*
X386460Y436451D01*
X382868Y440043D01*
G37*
G36*
X379332Y443579D02*
X389210Y453457D01*
X392802Y449865D01*
X382924Y439987D01*
X379332Y443579D01*
G37*
G36*
X375797Y447114D02*
X385675Y456992D01*
X389267Y453400D01*
X379389Y443522D01*
X375797Y447114D01*
G37*
G36*
X372261Y450650D02*
X382139Y460528D01*
X385731Y456936D01*
X375853Y447058D01*
X372261Y450650D01*
G37*
G36*
X368726Y454186D02*
X378604Y464064D01*
X382196Y460472D01*
X372318Y450594D01*
X368726Y454186D01*
G37*
G36*
X365190Y457721D02*
X375068Y467599D01*
X378660Y464007D01*
X368782Y454129D01*
X365190Y457721D01*
G37*
G36*
X361655Y461257D02*
X371533Y471135D01*
X375125Y467543D01*
X365247Y457665D01*
X361655Y461257D01*
G37*
G36*
X358119Y464792D02*
X367997Y474670D01*
X371589Y471078D01*
X361711Y461200D01*
X358119Y464792D01*
G37*
G36*
X339713Y461200D02*
X329835Y471078D01*
X333427Y474670D01*
X343305Y464792D01*
X339713Y461200D01*
G37*
G36*
X336177Y457665D02*
X326299Y467543D01*
X329891Y471135D01*
X339769Y461257D01*
X336177Y457665D01*
G37*
G36*
X332642Y454129D02*
X322764Y464007D01*
X326356Y467599D01*
X336234Y457721D01*
X332642Y454129D01*
G37*
G36*
X329106Y450594D02*
X319228Y460472D01*
X322820Y464064D01*
X332698Y454186D01*
X329106Y450594D01*
G37*
G36*
X325571Y447058D02*
X315693Y456936D01*
X319285Y460528D01*
X329163Y450650D01*
X325571Y447058D01*
G37*
G36*
X322035Y443522D02*
X312157Y453400D01*
X315749Y456992D01*
X325627Y447114D01*
X322035Y443522D01*
G37*
G36*
X318500Y439987D02*
X308622Y449865D01*
X312214Y453457D01*
X322092Y443579D01*
X318500Y439987D01*
G37*
G36*
X314964Y436451D02*
X305086Y446329D01*
X308678Y449921D01*
X318556Y440043D01*
X314964Y436451D01*
G37*
G36*
X311429Y432916D02*
X301551Y442794D01*
X305143Y446386D01*
X315021Y436508D01*
X311429Y432916D01*
G37*
G36*
X307893Y429380D02*
X298015Y439258D01*
X301607Y442850D01*
X311485Y432972D01*
X307893Y429380D01*
G37*
G36*
X304358Y425845D02*
X294480Y435723D01*
X298072Y439315D01*
X307950Y429437D01*
X304358Y425845D01*
G37*
G36*
X300822Y422309D02*
X290944Y432187D01*
X294536Y435779D01*
X304414Y425901D01*
X300822Y422309D01*
G37*
G36*
X297286Y418774D02*
X287408Y428652D01*
X291000Y432244D01*
X300878Y422366D01*
X297286Y418774D01*
G37*
G36*
X293751Y415238D02*
X283873Y425116D01*
X287465Y428708D01*
X297343Y418830D01*
X293751Y415238D01*
G37*
G36*
X290215Y411703D02*
X280337Y421581D01*
X283929Y425173D01*
X293807Y415295D01*
X290215Y411703D01*
G37*
G36*
X286680Y408167D02*
X276802Y418045D01*
X280394Y421637D01*
X290272Y411759D01*
X286680Y408167D01*
G37*
G36*
X290272Y389761D02*
X280394Y379883D01*
X276802Y383475D01*
X286680Y393353D01*
X290272Y389761D01*
G37*
G36*
X293807Y386225D02*
X283929Y376347D01*
X280337Y379939D01*
X290215Y389817D01*
X293807Y386225D01*
G37*
G36*
X297343Y382690D02*
X287465Y372812D01*
X283873Y376404D01*
X293751Y386282D01*
X297343Y382690D01*
G37*
G36*
X300878Y379154D02*
X291000Y369276D01*
X287408Y372868D01*
X297286Y382746D01*
X300878Y379154D01*
G37*
G36*
X304414Y375619D02*
X294536Y365741D01*
X290944Y369333D01*
X300822Y379211D01*
X304414Y375619D01*
G37*
G36*
X307950Y372083D02*
X298072Y362205D01*
X294480Y365797D01*
X304358Y375675D01*
X307950Y372083D01*
G37*
G36*
X311485Y368548D02*
X301607Y358670D01*
X298015Y362262D01*
X307893Y372140D01*
X311485Y368548D01*
G37*
G36*
X315021Y365012D02*
X305143Y355134D01*
X301551Y358726D01*
X311429Y368604D01*
X315021Y365012D01*
G37*
G36*
X318556Y361477D02*
X308678Y351599D01*
X305086Y355191D01*
X314964Y365069D01*
X318556Y361477D01*
G37*
G36*
X322092Y357941D02*
X312214Y348063D01*
X308622Y351655D01*
X318500Y361533D01*
X322092Y357941D01*
G37*
G36*
X325627Y354406D02*
X315749Y344528D01*
X312157Y348120D01*
X322035Y357998D01*
X325627Y354406D01*
G37*
G36*
X329163Y350870D02*
X319285Y340992D01*
X315693Y344584D01*
X325571Y354462D01*
X329163Y350870D01*
G37*
G36*
X332698Y347334D02*
X322820Y337456D01*
X319228Y341048D01*
X329106Y350926D01*
X332698Y347334D01*
G37*
G36*
X336234Y343799D02*
X326356Y333921D01*
X322764Y337513D01*
X332642Y347391D01*
X336234Y343799D01*
G37*
G36*
X339769Y340263D02*
X329891Y330385D01*
X326299Y333977D01*
X336177Y343855D01*
X339769Y340263D01*
G37*
G36*
X343305Y336728D02*
X333427Y326850D01*
X329835Y330442D01*
X339713Y340320D01*
X343305Y336728D01*
G37*
D10*
X371500Y496824D03*
X390500Y496824D03*
D27*
X0Y180000D03*
D35*
X160750Y532750D03*
X160750Y526250D03*
D36*
X160750Y519750D03*
X160750Y513250D03*
X160750Y506750D03*
X160750Y500250D03*
X160750Y493750D03*
X160750Y487250D03*
D37*
X172000Y489500D03*
X181000Y489500D03*
X190000Y489500D03*
X199000Y489500D03*
X208000Y489500D03*
D36*
X219250Y487250D03*
X219250Y493750D03*
X219250Y500250D03*
X219250Y506750D03*
X219250Y513250D03*
X219250Y519750D03*
X219250Y526250D03*
X219250Y532750D03*
D37*
X208000Y530500D03*
X199000Y530500D03*
X190000Y530500D03*
X181000Y530500D03*
X172000Y530500D03*
D38*
X70000Y670000D03*
X310000Y670000D03*
D39*
X215400Y590540D02*
X215400Y575460D01*
X190000Y575460D02*
X190000Y590540D01*
X164600Y590540D02*
X164600Y575460D01*
D11*
X240000Y549500D03*
X240000Y530500D03*
X243048Y493548D03*
X243048Y512548D03*
D10*
X245300Y468600D03*
X226300Y468600D03*
X117220Y312504D03*
X136220Y312504D03*
X117700Y295928D03*
X136700Y295928D03*
D35*
X219250Y267250D03*
X219250Y273750D03*
D36*
X219250Y280250D03*
X219250Y286750D03*
X219250Y293250D03*
X219250Y299750D03*
X219250Y306250D03*
X219250Y312750D03*
D37*
X208000Y310500D03*
X199000Y310500D03*
X190000Y310500D03*
X181000Y310500D03*
X172000Y310500D03*
D36*
X160750Y312750D03*
X160750Y306250D03*
X160750Y299750D03*
X160750Y293250D03*
X160750Y286750D03*
X160750Y280250D03*
X160750Y273750D03*
X160750Y267250D03*
D37*
X172000Y269500D03*
X181000Y269500D03*
X190000Y269500D03*
X199000Y269500D03*
X208000Y269500D03*
D38*
X310000Y130000D03*
X70000Y130000D03*
D39*
X164600Y209460D02*
X164600Y224540D01*
X190000Y224540D02*
X190000Y209460D01*
X215400Y209460D02*
X215400Y224540D01*
D11*
X139144Y251356D03*
X139144Y270356D03*
X119936Y253524D03*
X119936Y272524D03*
D10*
X140060Y333608D03*
X159060Y333608D03*
D40*
X150000Y420602D02*
X150000Y439398D01*
X175400Y439398D02*
X175400Y420602D01*
X200800Y420602D02*
X200800Y439398D01*
X226200Y439398D02*
X226200Y420602D01*
X150000Y379398D02*
X150000Y360602D01*
X175400Y360602D02*
X175400Y379398D01*
X200800Y379398D02*
X200800Y360602D01*
X226200Y360602D02*
X226200Y379398D01*
D11*
X274320Y539852D03*
X274320Y520852D03*
D18*
X292608Y552044D03*
X292608Y533044D03*
D41*
X307540Y596572D03*
X312540Y596572D03*
X317540Y596572D03*
X322540Y596572D03*
X327540Y596572D03*
X332540Y596572D03*
D42*
X340540Y588572D03*
X340540Y583572D03*
X340540Y578572D03*
X340540Y573572D03*
X340540Y568572D03*
X340540Y563572D03*
X299540Y563572D03*
X299540Y568572D03*
X299540Y573572D03*
X299540Y578572D03*
X299540Y583572D03*
X299540Y588572D03*
D41*
X332540Y555572D03*
X327540Y555572D03*
X322540Y555572D03*
X317540Y555572D03*
X312540Y555572D03*
X307540Y555572D03*
D43*
X320040Y576072D03*
D44*
X30480Y481584D03*
X15240Y329184D03*
X76200Y451104D03*
X320040Y188976D03*
X304800Y188976D03*
X320040Y268224D03*
X39624Y615696D03*
X39624Y603504D03*
X21336Y615696D03*
X21336Y603504D03*
X21336Y591312D03*
X39624Y591312D03*
X362712Y603504D03*
X124968Y621792D03*
X529872Y381000D03*
X21336Y256032D03*
X289560Y188976D03*
X393192Y246888D03*
X420624Y246888D03*
X467868Y266700D03*
X522732Y269748D03*
X374904Y301752D03*
X304800Y268224D03*
X304800Y252984D03*
X429768Y426720D03*
X335280Y313944D03*
X374904Y408432D03*
X448056Y27432D03*
X609600Y734568D03*
X350520Y411480D03*
X280416Y445008D03*
X310896Y390144D03*
X356616Y493776D03*
X518160Y569976D03*
X310896Y411480D03*
X554736Y274320D03*
X502920Y204216D03*
X469392Y137160D03*
X435864Y188976D03*
X435864Y231648D03*
X289560Y691896D03*
X438912Y661416D03*
X484632Y658368D03*
X487680Y743712D03*
X445008Y713232D03*
X627888Y594360D03*
X560832Y542544D03*
X655320Y490728D03*
X649224Y307848D03*
X606552Y304800D03*
X627888Y198120D03*
X554736Y143256D03*
X600456Y100584D03*
X505968Y51816D03*
X441960Y103632D03*
X569976Y432816D03*
X566448Y344424D03*
X554736Y219456D03*
X533400Y207264D03*
X566928Y719328D03*
X548640Y646176D03*
X600456Y502920D03*
X652272Y414528D03*
X582168Y219456D03*
X173736Y335280D03*
X201168Y332232D03*
X146304Y320040D03*
X128016Y335280D03*
X243840Y252984D03*
X268224Y210312D03*
X228600Y509016D03*
X240792Y478536D03*
X167640Y655320D03*
X262128Y152400D03*
X103632Y152400D03*
X124968Y207264D03*
X91440Y332232D03*
X79248Y505968D03*
X97536Y582168D03*
X143256Y576072D03*
X271272Y262128D03*
X277368Y588264D03*
X295656Y515112D03*
X353568Y548640D03*
X298704Y618744D03*
X350520Y637032D03*
X396240Y637032D03*
X371856Y249936D03*
X499872Y109728D03*
X566928Y115824D03*
X466344Y286512D03*
X368808Y289560D03*
X504444Y364236D03*
X402336Y396240D03*
X507492Y434340D03*
X498348Y464820D03*
X435864Y164592D03*
X414528Y600456D03*
X268224Y390144D03*
X310896Y301752D03*
X57912Y551688D03*
X60960Y225552D03*
X70104Y525592D03*
X45720Y525592D03*
X60960Y213360D03*
X60960Y243840D03*
X54864Y316992D03*
X420624Y783336D03*
X176784Y243840D03*
X201168Y243840D03*
X131064Y231648D03*
X140208Y231648D03*
X176784Y557784D03*
X204216Y557784D03*
X140208Y548640D03*
X121920Y548640D03*
X234696Y566928D03*
X438912Y265176D03*
X509016Y234696D03*
X344424Y387096D03*
X286512Y280416D03*
X259080Y298704D03*
X332232Y390144D03*
X630936Y576072D03*
X609600Y676656D03*
X542544Y777240D03*
X633984Y499872D03*
X304800Y499872D03*
X359664Y527304D03*
X316992Y609600D03*
X307848Y490728D03*
X359664Y509016D03*
X329184Y609600D03*
X252984Y362712D03*
X417576Y359664D03*
X469392Y411480D03*
X426720Y344424D03*
X493776Y381000D03*
X121920Y423672D03*
X265176Y554736D03*
X109728Y426720D03*
X268224Y569976D03*
X417576Y85344D03*
X464820Y681228D03*
X548640Y377952D03*
X448056Y493776D03*
X411480Y493776D03*
X454152Y618744D03*
X417576Y566928D03*
X316992Y481584D03*
X143256Y496824D03*
X307848Y472440D03*
X146304Y484632D03*
X246888Y304800D03*
X280416Y326136D03*
X560832Y48768D03*
X597408Y121920D03*
X633984Y222504D03*
X633984Y323088D03*
X368808Y435864D03*
X448056Y466344D03*
X374904Y371856D03*
X469392Y307848D03*
X563880Y676656D03*
X332232Y438912D03*
X155448Y478536D03*
X323088Y426720D03*
X137160Y505646D03*
X243840Y289560D03*
X222504Y326136D03*
X326136Y621792D03*
X344424Y597408D03*
X312540Y541496D03*
X79248Y423672D03*
X79248Y368808D03*
X64008Y344424D03*
M02*
