G04 EAGLE Gerber RS-274X export*
G75*
%MOMM*%
%FSLAX34Y34*%
%LPD*%
%INSolderpaste Top*%
%IPPOS*%
%AMOC8*
5,1,8,0,0,1.08239X$1,22.5*%
G01*
%ADD10R,1.300000X1.500000*%
%ADD11R,1.500000X1.300000*%
%ADD12R,0.250000X1.250000*%
%ADD13R,1.250000X0.250000*%
%ADD14R,1.000000X0.300000*%
%ADD15R,1.000000X0.600000*%
%ADD16R,1.600000X1.300000*%
%ADD17R,1.300000X1.600000*%
%ADD18R,3.500000X2.500000*%
%ADD19R,0.550000X1.350000*%
%ADD20R,4.200000X1.400000*%
%ADD21R,1.000000X1.400000*%
%ADD22R,0.800000X1.400000*%
%ADD23R,1.500000X1.500000*%
%ADD24R,0.830000X0.630000*%
%ADD25R,1.200000X1.100000*%
%ADD26R,1.300000X1.550000*%
%ADD27R,1.193800X0.304800*%
%ADD28R,1.200000X0.350000*%
%ADD29R,1.250000X0.350000*%
%ADD30R,0.450000X3.550000*%

G36*
X374910Y629300D02*
X374910Y629300D01*
X375214Y629311D01*
X375269Y629320D01*
X375326Y629323D01*
X375626Y629373D01*
X375926Y629418D01*
X375981Y629433D01*
X376037Y629442D01*
X376330Y629526D01*
X376623Y629604D01*
X376675Y629624D01*
X376730Y629640D01*
X377011Y629755D01*
X377295Y629865D01*
X377345Y629891D01*
X377397Y629912D01*
X377664Y630058D01*
X377933Y630199D01*
X377980Y630231D01*
X378030Y630258D01*
X378279Y630432D01*
X378531Y630602D01*
X378574Y630638D01*
X378620Y630671D01*
X378849Y630871D01*
X379081Y631068D01*
X379119Y631109D01*
X379162Y631147D01*
X379366Y631371D01*
X379575Y631593D01*
X379609Y631638D01*
X379647Y631680D01*
X379825Y631926D01*
X380008Y632169D01*
X380037Y632217D01*
X380070Y632263D01*
X380220Y632527D01*
X380375Y632789D01*
X380398Y632841D01*
X380426Y632890D01*
X380546Y633169D01*
X380671Y633446D01*
X380688Y633500D01*
X380711Y633552D01*
X380799Y633843D01*
X380892Y634132D01*
X380904Y634188D01*
X380920Y634242D01*
X380976Y634540D01*
X381036Y634839D01*
X381040Y634886D01*
X381052Y634950D01*
X381104Y635669D01*
X381102Y635735D01*
X381105Y635782D01*
X381105Y657532D01*
X381088Y657836D01*
X381077Y658140D01*
X381068Y658195D01*
X381065Y658252D01*
X381015Y658552D01*
X380970Y658852D01*
X380955Y658907D01*
X380946Y658963D01*
X380862Y659256D01*
X380784Y659549D01*
X380764Y659601D01*
X380748Y659656D01*
X380633Y659937D01*
X380523Y660221D01*
X380497Y660271D01*
X380476Y660323D01*
X380330Y660590D01*
X380189Y660859D01*
X380157Y660906D01*
X380130Y660956D01*
X379956Y661205D01*
X379786Y661457D01*
X379750Y661500D01*
X379717Y661546D01*
X379517Y661775D01*
X379320Y662007D01*
X379279Y662045D01*
X379241Y662088D01*
X379017Y662292D01*
X378795Y662501D01*
X378750Y662535D01*
X378708Y662573D01*
X378463Y662751D01*
X378219Y662934D01*
X378171Y662963D01*
X378125Y662996D01*
X377861Y663146D01*
X377599Y663301D01*
X377547Y663324D01*
X377498Y663352D01*
X377219Y663472D01*
X376942Y663597D01*
X376888Y663614D01*
X376836Y663637D01*
X376545Y663725D01*
X376256Y663818D01*
X376200Y663830D01*
X376146Y663846D01*
X375848Y663902D01*
X375549Y663962D01*
X375502Y663966D01*
X375438Y663978D01*
X374719Y664030D01*
X374653Y664028D01*
X374606Y664031D01*
X369356Y664031D01*
X369052Y664014D01*
X368748Y664003D01*
X368693Y663994D01*
X368636Y663991D01*
X368336Y663941D01*
X368036Y663896D01*
X367981Y663881D01*
X367926Y663872D01*
X367632Y663788D01*
X367339Y663710D01*
X367287Y663690D01*
X367232Y663674D01*
X366951Y663559D01*
X366667Y663449D01*
X366617Y663423D01*
X366565Y663402D01*
X366298Y663256D01*
X366029Y663115D01*
X365982Y663083D01*
X365932Y663056D01*
X365683Y662882D01*
X365431Y662712D01*
X365388Y662676D01*
X365342Y662643D01*
X365113Y662443D01*
X364881Y662246D01*
X364843Y662205D01*
X364800Y662167D01*
X364596Y661943D01*
X364387Y661721D01*
X364353Y661676D01*
X364315Y661634D01*
X364137Y661389D01*
X363954Y661145D01*
X363925Y661097D01*
X363892Y661051D01*
X363742Y660787D01*
X363587Y660525D01*
X363564Y660473D01*
X363536Y660424D01*
X363416Y660145D01*
X363291Y659868D01*
X363274Y659814D01*
X363251Y659762D01*
X363163Y659471D01*
X363070Y659182D01*
X363058Y659126D01*
X363042Y659072D01*
X362986Y658774D01*
X362926Y658475D01*
X362922Y658428D01*
X362910Y658364D01*
X362858Y657645D01*
X362860Y657579D01*
X362857Y657532D01*
X362857Y635782D01*
X362874Y635478D01*
X362885Y635174D01*
X362894Y635119D01*
X362897Y635062D01*
X362947Y634762D01*
X362992Y634462D01*
X363007Y634407D01*
X363016Y634352D01*
X363100Y634058D01*
X363178Y633765D01*
X363198Y633713D01*
X363214Y633658D01*
X363329Y633377D01*
X363439Y633093D01*
X363465Y633043D01*
X363486Y632991D01*
X363632Y632724D01*
X363773Y632455D01*
X363805Y632408D01*
X363832Y632358D01*
X364006Y632109D01*
X364176Y631857D01*
X364212Y631814D01*
X364245Y631768D01*
X364445Y631539D01*
X364642Y631307D01*
X364683Y631269D01*
X364721Y631226D01*
X364945Y631022D01*
X365167Y630813D01*
X365212Y630779D01*
X365254Y630741D01*
X365500Y630563D01*
X365743Y630380D01*
X365791Y630351D01*
X365837Y630318D01*
X366101Y630168D01*
X366363Y630013D01*
X366415Y629990D01*
X366464Y629962D01*
X366743Y629842D01*
X367020Y629717D01*
X367074Y629700D01*
X367126Y629677D01*
X367417Y629589D01*
X367706Y629496D01*
X367762Y629484D01*
X367816Y629468D01*
X368114Y629412D01*
X368413Y629352D01*
X368460Y629348D01*
X368524Y629336D01*
X369243Y629284D01*
X369309Y629286D01*
X369356Y629283D01*
X374606Y629283D01*
X374910Y629300D01*
G37*
G36*
X66805Y351754D02*
X66805Y351754D01*
X66808Y351751D01*
X67903Y351931D01*
X67909Y351937D01*
X67914Y351934D01*
X68942Y352353D01*
X68946Y352360D01*
X68951Y352358D01*
X69860Y352996D01*
X69863Y353003D01*
X69868Y353003D01*
X70612Y353826D01*
X70613Y353834D01*
X70619Y353835D01*
X71161Y354803D01*
X71160Y354812D01*
X71166Y354814D01*
X71479Y355878D01*
X71476Y355886D01*
X71481Y355889D01*
X71549Y356997D01*
X71545Y357004D01*
X71549Y357007D01*
X71379Y358115D01*
X71373Y358121D01*
X71376Y358126D01*
X70964Y359168D01*
X70957Y359172D01*
X70959Y359177D01*
X70325Y360102D01*
X70317Y360104D01*
X70318Y360110D01*
X69495Y360870D01*
X69486Y360871D01*
X69486Y360877D01*
X68514Y361434D01*
X68506Y361433D01*
X68504Y361439D01*
X67432Y361766D01*
X67424Y361763D01*
X67421Y361768D01*
X66304Y361849D01*
X66301Y361848D01*
X66300Y361849D01*
X54300Y361849D01*
X54297Y361847D01*
X54290Y361847D01*
X54289Y361848D01*
X53345Y361629D01*
X53339Y361623D01*
X53334Y361625D01*
X52462Y361202D01*
X52459Y361194D01*
X52453Y361196D01*
X51697Y360589D01*
X51695Y360581D01*
X51689Y360581D01*
X51088Y359821D01*
X51088Y359812D01*
X51082Y359811D01*
X50664Y358936D01*
X50666Y358928D01*
X50661Y358926D01*
X50449Y357980D01*
X50452Y357973D01*
X50447Y357969D01*
X50451Y357000D01*
X50451Y356999D01*
X50470Y355931D01*
X50475Y355924D01*
X50471Y355920D01*
X50727Y354883D01*
X50734Y354878D01*
X50731Y354872D01*
X51212Y353918D01*
X51219Y353915D01*
X51218Y353909D01*
X51899Y353086D01*
X51907Y353084D01*
X51907Y353078D01*
X52754Y352427D01*
X52762Y352427D01*
X52763Y352421D01*
X53734Y351974D01*
X53742Y351976D01*
X53744Y351971D01*
X54790Y351752D01*
X54797Y351755D01*
X54800Y351751D01*
X66800Y351751D01*
X66805Y351754D01*
G37*
G36*
X66805Y438155D02*
X66805Y438155D01*
X66808Y438151D01*
X67914Y438344D01*
X67919Y438349D01*
X67919Y438350D01*
X67924Y438347D01*
X68959Y438780D01*
X68963Y438787D01*
X68968Y438785D01*
X69881Y439438D01*
X69883Y439446D01*
X69889Y439445D01*
X70633Y440284D01*
X70634Y440293D01*
X70639Y440293D01*
X71178Y441277D01*
X71177Y441285D01*
X71178Y441286D01*
X71182Y441287D01*
X71183Y441289D01*
X71365Y441930D01*
X71489Y442366D01*
X71487Y442371D01*
X71489Y442373D01*
X71487Y442375D01*
X71491Y442377D01*
X71549Y443497D01*
X71546Y443502D01*
X71549Y443506D01*
X71431Y444551D01*
X71425Y444557D01*
X71429Y444562D01*
X71081Y445556D01*
X71074Y445560D01*
X71076Y445565D01*
X70516Y446457D01*
X70509Y446460D01*
X70509Y446465D01*
X69765Y447209D01*
X69757Y447211D01*
X69757Y447216D01*
X68865Y447776D01*
X68857Y447776D01*
X68856Y447781D01*
X67862Y448129D01*
X67854Y448126D01*
X67851Y448131D01*
X66806Y448249D01*
X66802Y448247D01*
X66800Y448249D01*
X54800Y448249D01*
X54797Y448247D01*
X54794Y448247D01*
X54792Y448249D01*
X53796Y448091D01*
X53790Y448085D01*
X53785Y448088D01*
X52849Y447713D01*
X52845Y447706D01*
X52839Y447708D01*
X52010Y447134D01*
X52007Y447126D01*
X52002Y447127D01*
X51321Y446383D01*
X51320Y446374D01*
X51314Y446374D01*
X50816Y445497D01*
X50817Y445489D01*
X50812Y445486D01*
X50624Y444862D01*
X50521Y444521D01*
X50522Y444518D01*
X50521Y444517D01*
X50524Y444513D01*
X50519Y444510D01*
X50451Y443503D01*
X50452Y443501D01*
X50451Y443500D01*
X50460Y442419D01*
X50465Y442412D01*
X50461Y442408D01*
X50711Y441356D01*
X50717Y441351D01*
X50714Y441346D01*
X51191Y440376D01*
X51199Y440373D01*
X51197Y440367D01*
X51878Y439528D01*
X51886Y439526D01*
X51886Y439520D01*
X52737Y438854D01*
X52745Y438853D01*
X52746Y438848D01*
X53723Y438387D01*
X53731Y438389D01*
X53734Y438384D01*
X54789Y438152D01*
X54797Y438155D01*
X54800Y438151D01*
X66800Y438151D01*
X66805Y438155D01*
G37*
G36*
X22004Y351754D02*
X22004Y351754D01*
X22006Y351751D01*
X23139Y351901D01*
X23145Y351907D01*
X23150Y351904D01*
X24220Y352302D01*
X24224Y352309D01*
X24230Y352307D01*
X25185Y352934D01*
X25188Y352942D01*
X25193Y352941D01*
X25985Y353764D01*
X25986Y353772D01*
X25992Y353773D01*
X26581Y354752D01*
X26580Y354760D01*
X26585Y354762D01*
X26941Y355847D01*
X26939Y355855D01*
X26943Y355858D01*
X27049Y356995D01*
X27044Y357004D01*
X27048Y357009D01*
X26841Y358146D01*
X26835Y358152D01*
X26838Y358157D01*
X26383Y359219D01*
X26376Y359223D01*
X26378Y359229D01*
X25698Y360164D01*
X25690Y360166D01*
X25691Y360172D01*
X24820Y360932D01*
X24812Y360932D01*
X24811Y360938D01*
X23792Y361485D01*
X23784Y361484D01*
X23782Y361489D01*
X22668Y361796D01*
X22660Y361793D01*
X22657Y361798D01*
X21502Y361849D01*
X21501Y361848D01*
X21500Y361849D01*
X15500Y361849D01*
X15497Y361847D01*
X15492Y361847D01*
X15491Y361848D01*
X14410Y361636D01*
X14405Y361630D01*
X14400Y361633D01*
X13394Y361186D01*
X13390Y361179D01*
X13384Y361181D01*
X12503Y360521D01*
X12500Y360513D01*
X12495Y360513D01*
X11782Y359674D01*
X11782Y359666D01*
X11776Y359665D01*
X11268Y358688D01*
X11269Y358680D01*
X11264Y358678D01*
X10986Y357613D01*
X10989Y357605D01*
X10985Y357602D01*
X10951Y356502D01*
X10955Y356496D01*
X10951Y356493D01*
X11106Y355418D01*
X11112Y355412D01*
X11109Y355407D01*
X11499Y354393D01*
X11506Y354389D01*
X11505Y354383D01*
X12111Y353481D01*
X12119Y353479D01*
X12118Y353473D01*
X12910Y352729D01*
X12918Y352728D01*
X12918Y352722D01*
X13856Y352173D01*
X13864Y352174D01*
X13866Y352168D01*
X14902Y351841D01*
X14910Y351844D01*
X14913Y351839D01*
X15996Y351751D01*
X15999Y351753D01*
X16000Y351751D01*
X22000Y351751D01*
X22004Y351754D01*
G37*
G36*
X22003Y438153D02*
X22003Y438153D01*
X22005Y438151D01*
X23097Y438252D01*
X23103Y438257D01*
X23108Y438254D01*
X24151Y438595D01*
X24156Y438602D01*
X24161Y438600D01*
X25102Y439164D01*
X25105Y439172D01*
X25111Y439171D01*
X25903Y439931D01*
X25904Y439939D01*
X25910Y439940D01*
X26513Y440857D01*
X26512Y440865D01*
X26518Y440867D01*
X26901Y441895D01*
X26899Y441903D01*
X26904Y441906D01*
X27049Y442994D01*
X27045Y443001D01*
X27049Y443005D01*
X26943Y444142D01*
X26938Y444148D01*
X26941Y444153D01*
X26585Y445238D01*
X26578Y445243D01*
X26581Y445248D01*
X25992Y446227D01*
X25984Y446230D01*
X25985Y446236D01*
X25193Y447059D01*
X25185Y447060D01*
X25185Y447066D01*
X24230Y447693D01*
X24222Y447692D01*
X24220Y447698D01*
X23150Y448096D01*
X23142Y448094D01*
X23139Y448099D01*
X22006Y448249D01*
X22003Y448247D01*
X22002Y448247D01*
X22000Y448249D01*
X16000Y448249D01*
X15997Y448247D01*
X15995Y448247D01*
X15994Y448249D01*
X14861Y448099D01*
X14855Y448093D01*
X14850Y448096D01*
X13780Y447698D01*
X13776Y447691D01*
X13770Y447693D01*
X12815Y447066D01*
X12812Y447058D01*
X12807Y447059D01*
X12015Y446236D01*
X12014Y446228D01*
X12008Y446227D01*
X11419Y445248D01*
X11420Y445240D01*
X11415Y445238D01*
X11059Y444153D01*
X11062Y444145D01*
X11057Y444142D01*
X10951Y443005D01*
X10955Y442998D01*
X10951Y442994D01*
X11096Y441906D01*
X11102Y441900D01*
X11099Y441895D01*
X11483Y440867D01*
X11489Y440862D01*
X11488Y440857D01*
X12090Y439940D01*
X12098Y439937D01*
X12097Y439931D01*
X12889Y439171D01*
X12897Y439170D01*
X12898Y439164D01*
X13839Y438600D01*
X13847Y438601D01*
X13849Y438595D01*
X14892Y438254D01*
X14900Y438256D01*
X14903Y438252D01*
X15996Y438151D01*
X15998Y438153D01*
X16000Y438151D01*
X22000Y438151D01*
X22003Y438153D01*
G37*
G36*
X317605Y565449D02*
X317605Y565449D01*
X317671Y565451D01*
X317714Y565469D01*
X317761Y565477D01*
X317818Y565511D01*
X317878Y565536D01*
X317913Y565567D01*
X317954Y565592D01*
X317996Y565643D01*
X318044Y565687D01*
X318066Y565729D01*
X318095Y565766D01*
X318116Y565828D01*
X318147Y565887D01*
X318155Y565941D01*
X318167Y565978D01*
X318166Y566018D01*
X318174Y566072D01*
X318174Y573572D01*
X318163Y573637D01*
X318161Y573703D01*
X318143Y573746D01*
X318135Y573793D01*
X318101Y573850D01*
X318076Y573910D01*
X318045Y573945D01*
X318020Y573986D01*
X317969Y574028D01*
X317925Y574076D01*
X317883Y574098D01*
X317846Y574127D01*
X317784Y574148D01*
X317725Y574179D01*
X317671Y574187D01*
X317634Y574199D01*
X317594Y574198D01*
X317540Y574206D01*
X310040Y574206D01*
X309975Y574195D01*
X309909Y574193D01*
X309866Y574175D01*
X309819Y574167D01*
X309762Y574133D01*
X309702Y574108D01*
X309667Y574077D01*
X309626Y574052D01*
X309585Y574001D01*
X309536Y573957D01*
X309514Y573915D01*
X309485Y573878D01*
X309464Y573816D01*
X309433Y573757D01*
X309425Y573703D01*
X309413Y573666D01*
X309414Y573626D01*
X309406Y573572D01*
X309406Y566072D01*
X309417Y566007D01*
X309419Y565941D01*
X309437Y565898D01*
X309445Y565851D01*
X309479Y565794D01*
X309504Y565734D01*
X309535Y565699D01*
X309560Y565658D01*
X309611Y565617D01*
X309655Y565568D01*
X309697Y565546D01*
X309734Y565517D01*
X309796Y565496D01*
X309855Y565465D01*
X309909Y565457D01*
X309946Y565445D01*
X309986Y565446D01*
X310040Y565438D01*
X317540Y565438D01*
X317605Y565449D01*
G37*
G36*
X330105Y565449D02*
X330105Y565449D01*
X330171Y565451D01*
X330214Y565469D01*
X330261Y565477D01*
X330318Y565511D01*
X330378Y565536D01*
X330413Y565567D01*
X330454Y565592D01*
X330496Y565643D01*
X330544Y565687D01*
X330566Y565729D01*
X330595Y565766D01*
X330616Y565828D01*
X330647Y565887D01*
X330655Y565941D01*
X330667Y565978D01*
X330666Y566018D01*
X330674Y566072D01*
X330674Y573572D01*
X330663Y573637D01*
X330661Y573703D01*
X330643Y573746D01*
X330635Y573793D01*
X330601Y573850D01*
X330576Y573910D01*
X330545Y573945D01*
X330520Y573986D01*
X330469Y574028D01*
X330425Y574076D01*
X330383Y574098D01*
X330346Y574127D01*
X330284Y574148D01*
X330225Y574179D01*
X330171Y574187D01*
X330134Y574199D01*
X330094Y574198D01*
X330040Y574206D01*
X322540Y574206D01*
X322475Y574195D01*
X322409Y574193D01*
X322366Y574175D01*
X322319Y574167D01*
X322262Y574133D01*
X322202Y574108D01*
X322167Y574077D01*
X322126Y574052D01*
X322085Y574001D01*
X322036Y573957D01*
X322014Y573915D01*
X321985Y573878D01*
X321964Y573816D01*
X321933Y573757D01*
X321925Y573703D01*
X321913Y573666D01*
X321914Y573626D01*
X321906Y573572D01*
X321906Y566072D01*
X321917Y566007D01*
X321919Y565941D01*
X321937Y565898D01*
X321945Y565851D01*
X321979Y565794D01*
X322004Y565734D01*
X322035Y565699D01*
X322060Y565658D01*
X322111Y565617D01*
X322155Y565568D01*
X322197Y565546D01*
X322234Y565517D01*
X322296Y565496D01*
X322355Y565465D01*
X322409Y565457D01*
X322446Y565445D01*
X322486Y565446D01*
X322540Y565438D01*
X330040Y565438D01*
X330105Y565449D01*
G37*
G36*
X330105Y577949D02*
X330105Y577949D01*
X330171Y577951D01*
X330214Y577969D01*
X330261Y577977D01*
X330318Y578011D01*
X330378Y578036D01*
X330413Y578067D01*
X330454Y578092D01*
X330496Y578143D01*
X330544Y578187D01*
X330566Y578229D01*
X330595Y578266D01*
X330616Y578328D01*
X330647Y578387D01*
X330655Y578441D01*
X330667Y578478D01*
X330666Y578518D01*
X330674Y578572D01*
X330674Y586072D01*
X330663Y586137D01*
X330661Y586203D01*
X330643Y586246D01*
X330635Y586293D01*
X330601Y586350D01*
X330576Y586410D01*
X330545Y586445D01*
X330520Y586486D01*
X330469Y586528D01*
X330425Y586576D01*
X330383Y586598D01*
X330346Y586627D01*
X330284Y586648D01*
X330225Y586679D01*
X330171Y586687D01*
X330134Y586699D01*
X330094Y586698D01*
X330040Y586706D01*
X322540Y586706D01*
X322475Y586695D01*
X322409Y586693D01*
X322366Y586675D01*
X322319Y586667D01*
X322262Y586633D01*
X322202Y586608D01*
X322167Y586577D01*
X322126Y586552D01*
X322085Y586501D01*
X322036Y586457D01*
X322014Y586415D01*
X321985Y586378D01*
X321964Y586316D01*
X321933Y586257D01*
X321925Y586203D01*
X321913Y586166D01*
X321914Y586126D01*
X321906Y586072D01*
X321906Y578572D01*
X321917Y578507D01*
X321919Y578441D01*
X321937Y578398D01*
X321945Y578351D01*
X321979Y578294D01*
X322004Y578234D01*
X322035Y578199D01*
X322060Y578158D01*
X322111Y578117D01*
X322155Y578068D01*
X322197Y578046D01*
X322234Y578017D01*
X322296Y577996D01*
X322355Y577965D01*
X322409Y577957D01*
X322446Y577945D01*
X322486Y577946D01*
X322540Y577938D01*
X330040Y577938D01*
X330105Y577949D01*
G37*
G36*
X317605Y577949D02*
X317605Y577949D01*
X317671Y577951D01*
X317714Y577969D01*
X317761Y577977D01*
X317818Y578011D01*
X317878Y578036D01*
X317913Y578067D01*
X317954Y578092D01*
X317996Y578143D01*
X318044Y578187D01*
X318066Y578229D01*
X318095Y578266D01*
X318116Y578328D01*
X318147Y578387D01*
X318155Y578441D01*
X318167Y578478D01*
X318166Y578518D01*
X318174Y578572D01*
X318174Y586072D01*
X318163Y586137D01*
X318161Y586203D01*
X318143Y586246D01*
X318135Y586293D01*
X318101Y586350D01*
X318076Y586410D01*
X318045Y586445D01*
X318020Y586486D01*
X317969Y586528D01*
X317925Y586576D01*
X317883Y586598D01*
X317846Y586627D01*
X317784Y586648D01*
X317725Y586679D01*
X317671Y586687D01*
X317634Y586699D01*
X317594Y586698D01*
X317540Y586706D01*
X310040Y586706D01*
X309975Y586695D01*
X309909Y586693D01*
X309866Y586675D01*
X309819Y586667D01*
X309762Y586633D01*
X309702Y586608D01*
X309667Y586577D01*
X309626Y586552D01*
X309585Y586501D01*
X309536Y586457D01*
X309514Y586415D01*
X309485Y586378D01*
X309464Y586316D01*
X309433Y586257D01*
X309425Y586203D01*
X309413Y586166D01*
X309414Y586126D01*
X309406Y586072D01*
X309406Y578572D01*
X309417Y578507D01*
X309419Y578441D01*
X309437Y578398D01*
X309445Y578351D01*
X309479Y578294D01*
X309504Y578234D01*
X309535Y578199D01*
X309560Y578158D01*
X309611Y578117D01*
X309655Y578068D01*
X309697Y578046D01*
X309734Y578017D01*
X309796Y577996D01*
X309855Y577965D01*
X309909Y577957D01*
X309946Y577945D01*
X309986Y577946D01*
X310040Y577938D01*
X317540Y577938D01*
X317605Y577949D01*
G37*
G36*
X344487Y587359D02*
X344487Y587359D01*
X344482Y587366D01*
X344489Y587372D01*
X344489Y589772D01*
X344453Y589819D01*
X344446Y589814D01*
X344440Y589821D01*
X336640Y589821D01*
X336593Y589785D01*
X336598Y589778D01*
X336591Y589772D01*
X336591Y587372D01*
X336627Y587325D01*
X336634Y587330D01*
X336640Y587323D01*
X344440Y587323D01*
X344487Y587359D01*
G37*
G36*
X303487Y587359D02*
X303487Y587359D01*
X303482Y587366D01*
X303489Y587372D01*
X303489Y589772D01*
X303453Y589819D01*
X303446Y589814D01*
X303440Y589821D01*
X295640Y589821D01*
X295593Y589785D01*
X295598Y589778D01*
X295591Y589772D01*
X295591Y587372D01*
X295627Y587325D01*
X295634Y587330D01*
X295640Y587323D01*
X303440Y587323D01*
X303487Y587359D01*
G37*
G36*
X344487Y582359D02*
X344487Y582359D01*
X344482Y582366D01*
X344489Y582372D01*
X344489Y584772D01*
X344453Y584819D01*
X344446Y584814D01*
X344440Y584821D01*
X336640Y584821D01*
X336593Y584785D01*
X336598Y584778D01*
X336591Y584772D01*
X336591Y582372D01*
X336627Y582325D01*
X336634Y582330D01*
X336640Y582323D01*
X344440Y582323D01*
X344487Y582359D01*
G37*
G36*
X303487Y582359D02*
X303487Y582359D01*
X303482Y582366D01*
X303489Y582372D01*
X303489Y584772D01*
X303453Y584819D01*
X303446Y584814D01*
X303440Y584821D01*
X295640Y584821D01*
X295593Y584785D01*
X295598Y584778D01*
X295591Y584772D01*
X295591Y582372D01*
X295627Y582325D01*
X295634Y582330D01*
X295640Y582323D01*
X303440Y582323D01*
X303487Y582359D01*
G37*
G36*
X344487Y577359D02*
X344487Y577359D01*
X344482Y577366D01*
X344489Y577372D01*
X344489Y579772D01*
X344453Y579819D01*
X344446Y579814D01*
X344440Y579821D01*
X336640Y579821D01*
X336593Y579785D01*
X336598Y579778D01*
X336591Y579772D01*
X336591Y577372D01*
X336627Y577325D01*
X336634Y577330D01*
X336640Y577323D01*
X344440Y577323D01*
X344487Y577359D01*
G37*
G36*
X303487Y577359D02*
X303487Y577359D01*
X303482Y577366D01*
X303489Y577372D01*
X303489Y579772D01*
X303453Y579819D01*
X303446Y579814D01*
X303440Y579821D01*
X295640Y579821D01*
X295593Y579785D01*
X295598Y579778D01*
X295591Y579772D01*
X295591Y577372D01*
X295627Y577325D01*
X295634Y577330D01*
X295640Y577323D01*
X303440Y577323D01*
X303487Y577359D01*
G37*
G36*
X303487Y572359D02*
X303487Y572359D01*
X303482Y572366D01*
X303489Y572372D01*
X303489Y574772D01*
X303453Y574819D01*
X303446Y574814D01*
X303440Y574821D01*
X295640Y574821D01*
X295593Y574785D01*
X295598Y574778D01*
X295591Y574772D01*
X295591Y572372D01*
X295627Y572325D01*
X295634Y572330D01*
X295640Y572323D01*
X303440Y572323D01*
X303487Y572359D01*
G37*
G36*
X318787Y592659D02*
X318787Y592659D01*
X318782Y592666D01*
X318789Y592672D01*
X318789Y600472D01*
X318753Y600519D01*
X318746Y600514D01*
X318740Y600521D01*
X316340Y600521D01*
X316293Y600485D01*
X316298Y600478D01*
X316291Y600472D01*
X316291Y592672D01*
X316327Y592625D01*
X316334Y592630D01*
X316340Y592623D01*
X318740Y592623D01*
X318787Y592659D01*
G37*
G36*
X313787Y592659D02*
X313787Y592659D01*
X313782Y592666D01*
X313789Y592672D01*
X313789Y600472D01*
X313753Y600519D01*
X313746Y600514D01*
X313740Y600521D01*
X311340Y600521D01*
X311293Y600485D01*
X311298Y600478D01*
X311291Y600472D01*
X311291Y592672D01*
X311327Y592625D01*
X311334Y592630D01*
X311340Y592623D01*
X313740Y592623D01*
X313787Y592659D01*
G37*
G36*
X308787Y592659D02*
X308787Y592659D01*
X308782Y592666D01*
X308789Y592672D01*
X308789Y600472D01*
X308753Y600519D01*
X308746Y600514D01*
X308740Y600521D01*
X306340Y600521D01*
X306293Y600485D01*
X306298Y600478D01*
X306291Y600472D01*
X306291Y592672D01*
X306327Y592625D01*
X306334Y592630D01*
X306340Y592623D01*
X308740Y592623D01*
X308787Y592659D01*
G37*
G36*
X344487Y567359D02*
X344487Y567359D01*
X344482Y567366D01*
X344489Y567372D01*
X344489Y569772D01*
X344453Y569819D01*
X344446Y569814D01*
X344440Y569821D01*
X336640Y569821D01*
X336593Y569785D01*
X336598Y569778D01*
X336591Y569772D01*
X336591Y567372D01*
X336627Y567325D01*
X336634Y567330D01*
X336640Y567323D01*
X344440Y567323D01*
X344487Y567359D01*
G37*
G36*
X303487Y567359D02*
X303487Y567359D01*
X303482Y567366D01*
X303489Y567372D01*
X303489Y569772D01*
X303453Y569819D01*
X303446Y569814D01*
X303440Y569821D01*
X295640Y569821D01*
X295593Y569785D01*
X295598Y569778D01*
X295591Y569772D01*
X295591Y567372D01*
X295627Y567325D01*
X295634Y567330D01*
X295640Y567323D01*
X303440Y567323D01*
X303487Y567359D01*
G37*
G36*
X303487Y562359D02*
X303487Y562359D01*
X303482Y562366D01*
X303489Y562372D01*
X303489Y564772D01*
X303453Y564819D01*
X303446Y564814D01*
X303440Y564821D01*
X295640Y564821D01*
X295593Y564785D01*
X295598Y564778D01*
X295591Y564772D01*
X295591Y562372D01*
X295627Y562325D01*
X295634Y562330D01*
X295640Y562323D01*
X303440Y562323D01*
X303487Y562359D01*
G37*
G36*
X344487Y562359D02*
X344487Y562359D01*
X344482Y562366D01*
X344489Y562372D01*
X344489Y564772D01*
X344453Y564819D01*
X344446Y564814D01*
X344440Y564821D01*
X336640Y564821D01*
X336593Y564785D01*
X336598Y564778D01*
X336591Y564772D01*
X336591Y562372D01*
X336627Y562325D01*
X336634Y562330D01*
X336640Y562323D01*
X344440Y562323D01*
X344487Y562359D01*
G37*
G36*
X328787Y551659D02*
X328787Y551659D01*
X328782Y551666D01*
X328789Y551672D01*
X328789Y559472D01*
X328753Y559519D01*
X328746Y559514D01*
X328740Y559521D01*
X326340Y559521D01*
X326293Y559485D01*
X326298Y559478D01*
X326291Y559472D01*
X326291Y551672D01*
X326327Y551625D01*
X326334Y551630D01*
X326340Y551623D01*
X328740Y551623D01*
X328787Y551659D01*
G37*
G36*
X313787Y551659D02*
X313787Y551659D01*
X313782Y551666D01*
X313789Y551672D01*
X313789Y559472D01*
X313753Y559519D01*
X313746Y559514D01*
X313740Y559521D01*
X311340Y559521D01*
X311293Y559485D01*
X311298Y559478D01*
X311291Y559472D01*
X311291Y551672D01*
X311327Y551625D01*
X311334Y551630D01*
X311340Y551623D01*
X313740Y551623D01*
X313787Y551659D01*
G37*
G36*
X308787Y551659D02*
X308787Y551659D01*
X308782Y551666D01*
X308789Y551672D01*
X308789Y559472D01*
X308753Y559519D01*
X308746Y559514D01*
X308740Y559521D01*
X306340Y559521D01*
X306293Y559485D01*
X306298Y559478D01*
X306291Y559472D01*
X306291Y551672D01*
X306327Y551625D01*
X306334Y551630D01*
X306340Y551623D01*
X308740Y551623D01*
X308787Y551659D01*
G37*
G36*
X323787Y551659D02*
X323787Y551659D01*
X323782Y551666D01*
X323789Y551672D01*
X323789Y559472D01*
X323753Y559519D01*
X323746Y559514D01*
X323740Y559521D01*
X321340Y559521D01*
X321293Y559485D01*
X321298Y559478D01*
X321291Y559472D01*
X321291Y551672D01*
X321327Y551625D01*
X321334Y551630D01*
X321340Y551623D01*
X323740Y551623D01*
X323787Y551659D01*
G37*
G36*
X318787Y551659D02*
X318787Y551659D01*
X318782Y551666D01*
X318789Y551672D01*
X318789Y559472D01*
X318753Y559519D01*
X318746Y559514D01*
X318740Y559521D01*
X316340Y559521D01*
X316293Y559485D01*
X316298Y559478D01*
X316291Y559472D01*
X316291Y551672D01*
X316327Y551625D01*
X316334Y551630D01*
X316340Y551623D01*
X318740Y551623D01*
X318787Y551659D01*
G37*
G36*
X333787Y551659D02*
X333787Y551659D01*
X333782Y551666D01*
X333789Y551672D01*
X333789Y559472D01*
X333753Y559519D01*
X333746Y559514D01*
X333740Y559521D01*
X331340Y559521D01*
X331293Y559485D01*
X331298Y559478D01*
X331291Y559472D01*
X331291Y551672D01*
X331327Y551625D01*
X331334Y551630D01*
X331340Y551623D01*
X333740Y551623D01*
X333787Y551659D01*
G37*
G36*
X333787Y592659D02*
X333787Y592659D01*
X333782Y592666D01*
X333789Y592672D01*
X333789Y600472D01*
X333753Y600519D01*
X333746Y600514D01*
X333740Y600521D01*
X331340Y600521D01*
X331293Y600485D01*
X331298Y600478D01*
X331291Y600472D01*
X331291Y592672D01*
X331327Y592625D01*
X331334Y592630D01*
X331340Y592623D01*
X333740Y592623D01*
X333787Y592659D01*
G37*
G36*
X323787Y592659D02*
X323787Y592659D01*
X323782Y592666D01*
X323789Y592672D01*
X323789Y600472D01*
X323753Y600519D01*
X323746Y600514D01*
X323740Y600521D01*
X321340Y600521D01*
X321293Y600485D01*
X321298Y600478D01*
X321291Y600472D01*
X321291Y592672D01*
X321327Y592625D01*
X321334Y592630D01*
X321340Y592623D01*
X323740Y592623D01*
X323787Y592659D01*
G37*
G36*
X328787Y592659D02*
X328787Y592659D01*
X328782Y592666D01*
X328789Y592672D01*
X328789Y600472D01*
X328753Y600519D01*
X328746Y600514D01*
X328740Y600521D01*
X326340Y600521D01*
X326293Y600485D01*
X326298Y600478D01*
X326291Y600472D01*
X326291Y592672D01*
X326327Y592625D01*
X326334Y592630D01*
X326340Y592623D01*
X328740Y592623D01*
X328787Y592659D01*
G37*
G36*
X344487Y572359D02*
X344487Y572359D01*
X344482Y572366D01*
X344489Y572372D01*
X344489Y574772D01*
X344453Y574819D01*
X344446Y574814D01*
X344440Y574821D01*
X336640Y574821D01*
X336593Y574785D01*
X336598Y574778D01*
X336591Y574772D01*
X336591Y572372D01*
X336627Y572325D01*
X336634Y572330D01*
X336640Y572323D01*
X344440Y572323D01*
X344487Y572359D01*
G37*
D10*
X330020Y495240D03*
X349020Y495240D03*
X477036Y591272D03*
X458036Y591272D03*
D11*
X484192Y281964D03*
X484192Y262964D03*
X140000Y539500D03*
X140000Y520500D03*
X120000Y539500D03*
X120000Y520500D03*
D12*
X502500Y385000D03*
X507500Y385000D03*
X512500Y385000D03*
X517500Y385000D03*
D13*
X522500Y395000D03*
X522500Y400000D03*
X522500Y405000D03*
D12*
X517500Y415000D03*
X512500Y415000D03*
X507500Y415000D03*
X502500Y415000D03*
D13*
X497500Y405000D03*
X497500Y400000D03*
X497500Y395000D03*
D14*
X66600Y392500D03*
X66600Y397500D03*
D15*
X66600Y367750D03*
X66600Y375500D03*
D14*
X66600Y382500D03*
X66600Y387500D03*
X66600Y407500D03*
X66600Y402500D03*
D15*
X66600Y432250D03*
X66600Y424500D03*
D14*
X66600Y417500D03*
X66600Y412500D03*
D16*
X387808Y120980D03*
X387808Y139980D03*
D17*
X484148Y307888D03*
X503148Y307888D03*
X529500Y466096D03*
X510500Y466096D03*
X427748Y627176D03*
X408748Y627176D03*
D16*
X394280Y97204D03*
X394280Y78204D03*
D17*
X559644Y386096D03*
X578644Y386096D03*
X559644Y413904D03*
X578644Y413904D03*
D16*
X392000Y666860D03*
X392000Y685860D03*
D10*
X261524Y486384D03*
X280524Y486384D03*
X261524Y464568D03*
X280524Y464568D03*
D18*
X92500Y550000D03*
X27500Y550000D03*
X92500Y250000D03*
X27500Y250000D03*
D19*
X356452Y221895D03*
X346952Y221895D03*
X337452Y221895D03*
X337452Y194393D03*
X346952Y194393D03*
X356452Y194393D03*
D10*
X366452Y168144D03*
X347452Y168144D03*
D11*
X310000Y213884D03*
X310000Y232884D03*
X283048Y213884D03*
X283048Y232884D03*
D10*
X337452Y272048D03*
X356452Y272048D03*
X337260Y296592D03*
X356260Y296592D03*
X337452Y248144D03*
X356452Y248144D03*
D20*
X396952Y189644D03*
X396952Y226644D03*
D17*
X368452Y591312D03*
X387452Y591312D03*
D21*
X377952Y552880D03*
X368452Y574880D03*
X387452Y574880D03*
D22*
X356866Y617222D03*
X386846Y617222D03*
X371856Y617232D03*
D17*
X377596Y533400D03*
X396596Y533400D03*
D16*
X506888Y263836D03*
X506888Y282836D03*
D11*
X473840Y219828D03*
X473840Y238828D03*
D23*
G36*
X507864Y163722D02*
X518470Y174328D01*
X529076Y163722D01*
X518470Y153116D01*
X507864Y163722D01*
G37*
G36*
X483116Y188470D02*
X493722Y199076D01*
X504328Y188470D01*
X493722Y177864D01*
X483116Y188470D01*
G37*
G36*
X520662Y628720D02*
X510056Y639326D01*
X520662Y649932D01*
X531268Y639326D01*
X520662Y628720D01*
G37*
G36*
X495914Y603972D02*
X485308Y614578D01*
X495914Y625184D01*
X506520Y614578D01*
X495914Y603972D01*
G37*
D16*
X473544Y188788D03*
X473544Y169788D03*
D17*
X482340Y635088D03*
X463340Y635088D03*
X297724Y285240D03*
X316724Y285240D03*
D11*
X537176Y432460D03*
X537176Y413460D03*
D16*
X480000Y382836D03*
X480000Y363836D03*
X453320Y401604D03*
X453320Y382604D03*
X94488Y362356D03*
X94488Y381356D03*
X94488Y439268D03*
X94488Y420268D03*
D24*
X42672Y320732D03*
X42672Y343732D03*
D25*
X418318Y315902D03*
X394818Y315902D03*
X394818Y298402D03*
X418318Y298402D03*
D11*
X395624Y277724D03*
X395624Y258724D03*
X418192Y277724D03*
X418192Y258724D03*
D26*
G36*
X573941Y198685D02*
X583134Y207878D01*
X594093Y196919D01*
X584900Y187726D01*
X573941Y198685D01*
G37*
G36*
X517726Y254900D02*
X526919Y264093D01*
X537878Y253134D01*
X528685Y243941D01*
X517726Y254900D01*
G37*
G36*
X542122Y166866D02*
X551315Y176059D01*
X562274Y165100D01*
X553081Y155907D01*
X542122Y166866D01*
G37*
G36*
X485907Y223081D02*
X495100Y232274D01*
X506059Y221315D01*
X496866Y212122D01*
X485907Y223081D01*
G37*
G36*
X561315Y623941D02*
X552122Y633134D01*
X563081Y644093D01*
X572274Y634900D01*
X561315Y623941D01*
G37*
G36*
X505100Y567726D02*
X495907Y576919D01*
X506866Y587878D01*
X516059Y578685D01*
X505100Y567726D01*
G37*
G36*
X593134Y592122D02*
X583941Y601315D01*
X594900Y612274D01*
X604093Y603081D01*
X593134Y592122D01*
G37*
G36*
X536919Y535907D02*
X527726Y545100D01*
X538685Y556059D01*
X547878Y546866D01*
X536919Y535907D01*
G37*
D27*
G36*
X361711Y338883D02*
X370152Y330442D01*
X367997Y328287D01*
X359556Y336728D01*
X361711Y338883D01*
G37*
G36*
X365247Y342418D02*
X373688Y333977D01*
X371533Y331822D01*
X363092Y340263D01*
X365247Y342418D01*
G37*
G36*
X368782Y345954D02*
X377223Y337513D01*
X375068Y335358D01*
X366627Y343799D01*
X368782Y345954D01*
G37*
G36*
X372318Y349489D02*
X380759Y341048D01*
X378604Y338893D01*
X370163Y347334D01*
X372318Y349489D01*
G37*
G36*
X375853Y353025D02*
X384294Y344584D01*
X382139Y342429D01*
X373698Y350870D01*
X375853Y353025D01*
G37*
G36*
X379389Y356561D02*
X387830Y348120D01*
X385675Y345965D01*
X377234Y354406D01*
X379389Y356561D01*
G37*
G36*
X382924Y360096D02*
X391365Y351655D01*
X389210Y349500D01*
X380769Y357941D01*
X382924Y360096D01*
G37*
G36*
X386460Y363632D02*
X394901Y355191D01*
X392746Y353036D01*
X384305Y361477D01*
X386460Y363632D01*
G37*
G36*
X389995Y367167D02*
X398436Y358726D01*
X396281Y356571D01*
X387840Y365012D01*
X389995Y367167D01*
G37*
G36*
X393531Y370703D02*
X401972Y362262D01*
X399817Y360107D01*
X391376Y368548D01*
X393531Y370703D01*
G37*
G36*
X397066Y374238D02*
X405507Y365797D01*
X403352Y363642D01*
X394911Y372083D01*
X397066Y374238D01*
G37*
G36*
X400602Y377774D02*
X409043Y369333D01*
X406888Y367178D01*
X398447Y375619D01*
X400602Y377774D01*
G37*
G36*
X404138Y381309D02*
X412579Y372868D01*
X410424Y370713D01*
X401983Y379154D01*
X404138Y381309D01*
G37*
G36*
X407673Y384845D02*
X416114Y376404D01*
X413959Y374249D01*
X405518Y382690D01*
X407673Y384845D01*
G37*
G36*
X411209Y388380D02*
X419650Y379939D01*
X417495Y377784D01*
X409054Y386225D01*
X411209Y388380D01*
G37*
G36*
X414744Y391916D02*
X423185Y383475D01*
X421030Y381320D01*
X412589Y389761D01*
X414744Y391916D01*
G37*
G36*
X412589Y411759D02*
X421030Y420200D01*
X423185Y418045D01*
X414744Y409604D01*
X412589Y411759D01*
G37*
G36*
X409054Y415295D02*
X417495Y423736D01*
X419650Y421581D01*
X411209Y413140D01*
X409054Y415295D01*
G37*
G36*
X405518Y418830D02*
X413959Y427271D01*
X416114Y425116D01*
X407673Y416675D01*
X405518Y418830D01*
G37*
G36*
X401983Y422366D02*
X410424Y430807D01*
X412579Y428652D01*
X404138Y420211D01*
X401983Y422366D01*
G37*
G36*
X398447Y425901D02*
X406888Y434342D01*
X409043Y432187D01*
X400602Y423746D01*
X398447Y425901D01*
G37*
G36*
X394911Y429437D02*
X403352Y437878D01*
X405507Y435723D01*
X397066Y427282D01*
X394911Y429437D01*
G37*
G36*
X391376Y432972D02*
X399817Y441413D01*
X401972Y439258D01*
X393531Y430817D01*
X391376Y432972D01*
G37*
G36*
X387840Y436508D02*
X396281Y444949D01*
X398436Y442794D01*
X389995Y434353D01*
X387840Y436508D01*
G37*
G36*
X384305Y440043D02*
X392746Y448484D01*
X394901Y446329D01*
X386460Y437888D01*
X384305Y440043D01*
G37*
G36*
X380769Y443579D02*
X389210Y452020D01*
X391365Y449865D01*
X382924Y441424D01*
X380769Y443579D01*
G37*
G36*
X377234Y447114D02*
X385675Y455555D01*
X387830Y453400D01*
X379389Y444959D01*
X377234Y447114D01*
G37*
G36*
X373698Y450650D02*
X382139Y459091D01*
X384294Y456936D01*
X375853Y448495D01*
X373698Y450650D01*
G37*
G36*
X370163Y454186D02*
X378604Y462627D01*
X380759Y460472D01*
X372318Y452031D01*
X370163Y454186D01*
G37*
G36*
X366627Y457721D02*
X375068Y466162D01*
X377223Y464007D01*
X368782Y455566D01*
X366627Y457721D01*
G37*
G36*
X363092Y461257D02*
X371533Y469698D01*
X373688Y467543D01*
X365247Y459102D01*
X363092Y461257D01*
G37*
G36*
X359556Y464792D02*
X367997Y473233D01*
X370152Y471078D01*
X361711Y462637D01*
X359556Y464792D01*
G37*
G36*
X339713Y462637D02*
X331272Y471078D01*
X333427Y473233D01*
X341868Y464792D01*
X339713Y462637D01*
G37*
G36*
X336177Y459102D02*
X327736Y467543D01*
X329891Y469698D01*
X338332Y461257D01*
X336177Y459102D01*
G37*
G36*
X332642Y455566D02*
X324201Y464007D01*
X326356Y466162D01*
X334797Y457721D01*
X332642Y455566D01*
G37*
G36*
X329106Y452031D02*
X320665Y460472D01*
X322820Y462627D01*
X331261Y454186D01*
X329106Y452031D01*
G37*
G36*
X325571Y448495D02*
X317130Y456936D01*
X319285Y459091D01*
X327726Y450650D01*
X325571Y448495D01*
G37*
G36*
X322035Y444959D02*
X313594Y453400D01*
X315749Y455555D01*
X324190Y447114D01*
X322035Y444959D01*
G37*
G36*
X318500Y441424D02*
X310059Y449865D01*
X312214Y452020D01*
X320655Y443579D01*
X318500Y441424D01*
G37*
G36*
X314964Y437888D02*
X306523Y446329D01*
X308678Y448484D01*
X317119Y440043D01*
X314964Y437888D01*
G37*
G36*
X311429Y434353D02*
X302988Y442794D01*
X305143Y444949D01*
X313584Y436508D01*
X311429Y434353D01*
G37*
G36*
X307893Y430817D02*
X299452Y439258D01*
X301607Y441413D01*
X310048Y432972D01*
X307893Y430817D01*
G37*
G36*
X304358Y427282D02*
X295917Y435723D01*
X298072Y437878D01*
X306513Y429437D01*
X304358Y427282D01*
G37*
G36*
X300822Y423746D02*
X292381Y432187D01*
X294536Y434342D01*
X302977Y425901D01*
X300822Y423746D01*
G37*
G36*
X297286Y420211D02*
X288845Y428652D01*
X291000Y430807D01*
X299441Y422366D01*
X297286Y420211D01*
G37*
G36*
X293751Y416675D02*
X285310Y425116D01*
X287465Y427271D01*
X295906Y418830D01*
X293751Y416675D01*
G37*
G36*
X290215Y413140D02*
X281774Y421581D01*
X283929Y423736D01*
X292370Y415295D01*
X290215Y413140D01*
G37*
G36*
X286680Y409604D02*
X278239Y418045D01*
X280394Y420200D01*
X288835Y411759D01*
X286680Y409604D01*
G37*
G36*
X288835Y389761D02*
X280394Y381320D01*
X278239Y383475D01*
X286680Y391916D01*
X288835Y389761D01*
G37*
G36*
X292370Y386225D02*
X283929Y377784D01*
X281774Y379939D01*
X290215Y388380D01*
X292370Y386225D01*
G37*
G36*
X295906Y382690D02*
X287465Y374249D01*
X285310Y376404D01*
X293751Y384845D01*
X295906Y382690D01*
G37*
G36*
X299441Y379154D02*
X291000Y370713D01*
X288845Y372868D01*
X297286Y381309D01*
X299441Y379154D01*
G37*
G36*
X302977Y375619D02*
X294536Y367178D01*
X292381Y369333D01*
X300822Y377774D01*
X302977Y375619D01*
G37*
G36*
X306513Y372083D02*
X298072Y363642D01*
X295917Y365797D01*
X304358Y374238D01*
X306513Y372083D01*
G37*
G36*
X310048Y368548D02*
X301607Y360107D01*
X299452Y362262D01*
X307893Y370703D01*
X310048Y368548D01*
G37*
G36*
X313584Y365012D02*
X305143Y356571D01*
X302988Y358726D01*
X311429Y367167D01*
X313584Y365012D01*
G37*
G36*
X317119Y361477D02*
X308678Y353036D01*
X306523Y355191D01*
X314964Y363632D01*
X317119Y361477D01*
G37*
G36*
X320655Y357941D02*
X312214Y349500D01*
X310059Y351655D01*
X318500Y360096D01*
X320655Y357941D01*
G37*
G36*
X324190Y354406D02*
X315749Y345965D01*
X313594Y348120D01*
X322035Y356561D01*
X324190Y354406D01*
G37*
G36*
X327726Y350870D02*
X319285Y342429D01*
X317130Y344584D01*
X325571Y353025D01*
X327726Y350870D01*
G37*
G36*
X331261Y347334D02*
X322820Y338893D01*
X320665Y341048D01*
X329106Y349489D01*
X331261Y347334D01*
G37*
G36*
X334797Y343799D02*
X326356Y335358D01*
X324201Y337513D01*
X332642Y345954D01*
X334797Y343799D01*
G37*
G36*
X338332Y340263D02*
X329891Y331822D01*
X327736Y333977D01*
X336177Y342418D01*
X338332Y340263D01*
G37*
G36*
X341868Y336728D02*
X333427Y328287D01*
X331272Y330442D01*
X339713Y338883D01*
X341868Y336728D01*
G37*
D10*
X371500Y496824D03*
X390500Y496824D03*
D28*
X160750Y532750D03*
X160750Y526250D03*
D29*
X160750Y519750D03*
X160750Y513250D03*
X160750Y506750D03*
X160750Y500250D03*
X160750Y493750D03*
X160750Y487250D03*
D30*
X172000Y489500D03*
X181000Y489500D03*
X190000Y489500D03*
X199000Y489500D03*
X208000Y489500D03*
D29*
X219250Y487250D03*
X219250Y493750D03*
X219250Y500250D03*
X219250Y506750D03*
X219250Y513250D03*
X219250Y519750D03*
X219250Y526250D03*
X219250Y532750D03*
D30*
X208000Y530500D03*
X199000Y530500D03*
X190000Y530500D03*
X181000Y530500D03*
X172000Y530500D03*
D11*
X240000Y549500D03*
X240000Y530500D03*
X243048Y493548D03*
X243048Y512548D03*
D10*
X245300Y468600D03*
X226300Y468600D03*
X117220Y312504D03*
X136220Y312504D03*
X117700Y295928D03*
X136700Y295928D03*
D28*
X219250Y267250D03*
X219250Y273750D03*
D29*
X219250Y280250D03*
X219250Y286750D03*
X219250Y293250D03*
X219250Y299750D03*
X219250Y306250D03*
X219250Y312750D03*
D30*
X208000Y310500D03*
X199000Y310500D03*
X190000Y310500D03*
X181000Y310500D03*
X172000Y310500D03*
D29*
X160750Y312750D03*
X160750Y306250D03*
X160750Y299750D03*
X160750Y293250D03*
X160750Y286750D03*
X160750Y280250D03*
X160750Y273750D03*
X160750Y267250D03*
D30*
X172000Y269500D03*
X181000Y269500D03*
X190000Y269500D03*
X199000Y269500D03*
X208000Y269500D03*
D11*
X139144Y251356D03*
X139144Y270356D03*
X119936Y253524D03*
X119936Y272524D03*
D10*
X140060Y333608D03*
X159060Y333608D03*
D11*
X274320Y539852D03*
X274320Y520852D03*
D16*
X292608Y552044D03*
X292608Y533044D03*
M02*
