G04 EAGLE Gerber RS-274X export*
G75*
%MOMM*%
%FSLAX34Y34*%
%LPD*%
%INSolderpaste Top*%
%IPPOS*%
%AMOC8*
5,1,8,0,0,1.08239X$1,22.5*%
G01*
%ADD10R,1.300000X1.500000*%
%ADD11R,1.500000X1.300000*%
%ADD12R,0.250000X1.250000*%
%ADD13R,1.250000X0.250000*%
%ADD14R,1.200000X1.800000*%
%ADD15R,1.400000X1.200000*%
%ADD16R,1.000000X0.300000*%
%ADD17R,1.000000X0.600000*%
%ADD18R,1.600000X1.300000*%
%ADD19R,1.300000X1.600000*%
%ADD20R,3.500000X2.500000*%
%ADD21R,0.875000X0.250000*%
%ADD22R,0.550000X1.350000*%
%ADD23R,4.200000X1.400000*%
%ADD24R,1.400000X1.000000*%
%ADD25R,1.400000X0.800000*%
%ADD26R,1.500000X1.500000*%
%ADD27R,0.830000X0.630000*%
%ADD28R,1.200000X1.100000*%
%ADD29R,1.300000X1.550000*%
%ADD30R,1.193800X0.304800*%
%ADD31R,0.800000X0.270000*%

G36*
X325604Y585128D02*
X325604Y585128D01*
X325908Y585139D01*
X325963Y585148D01*
X326020Y585151D01*
X326320Y585201D01*
X326620Y585246D01*
X326675Y585261D01*
X326731Y585270D01*
X327024Y585354D01*
X327317Y585432D01*
X327369Y585452D01*
X327424Y585468D01*
X327705Y585583D01*
X327989Y585693D01*
X328039Y585719D01*
X328091Y585740D01*
X328358Y585886D01*
X328627Y586027D01*
X328674Y586059D01*
X328724Y586086D01*
X328973Y586260D01*
X329225Y586430D01*
X329268Y586466D01*
X329314Y586499D01*
X329543Y586699D01*
X329775Y586896D01*
X329813Y586937D01*
X329856Y586975D01*
X330060Y587199D01*
X330269Y587421D01*
X330303Y587466D01*
X330341Y587508D01*
X330519Y587754D01*
X330702Y587997D01*
X330731Y588045D01*
X330764Y588091D01*
X330914Y588355D01*
X331069Y588617D01*
X331092Y588669D01*
X331120Y588718D01*
X331240Y588997D01*
X331365Y589274D01*
X331382Y589328D01*
X331405Y589380D01*
X331493Y589671D01*
X331586Y589960D01*
X331598Y590016D01*
X331614Y590070D01*
X331670Y590368D01*
X331730Y590667D01*
X331734Y590714D01*
X331746Y590778D01*
X331798Y591497D01*
X331796Y591563D01*
X331799Y591610D01*
X331799Y596860D01*
X331782Y597164D01*
X331771Y597468D01*
X331762Y597523D01*
X331759Y597580D01*
X331709Y597880D01*
X331664Y598180D01*
X331649Y598235D01*
X331640Y598291D01*
X331556Y598584D01*
X331478Y598877D01*
X331458Y598929D01*
X331442Y598984D01*
X331327Y599265D01*
X331217Y599549D01*
X331191Y599599D01*
X331170Y599651D01*
X331024Y599918D01*
X330883Y600187D01*
X330851Y600234D01*
X330824Y600284D01*
X330650Y600533D01*
X330480Y600785D01*
X330444Y600828D01*
X330411Y600874D01*
X330211Y601103D01*
X330014Y601335D01*
X329973Y601373D01*
X329935Y601416D01*
X329711Y601620D01*
X329489Y601829D01*
X329444Y601863D01*
X329402Y601901D01*
X329157Y602079D01*
X328913Y602262D01*
X328865Y602291D01*
X328819Y602324D01*
X328555Y602474D01*
X328293Y602629D01*
X328241Y602652D01*
X328192Y602680D01*
X327913Y602800D01*
X327636Y602925D01*
X327582Y602942D01*
X327530Y602965D01*
X327239Y603053D01*
X326950Y603146D01*
X326894Y603158D01*
X326840Y603174D01*
X326542Y603230D01*
X326243Y603290D01*
X326196Y603294D01*
X326132Y603306D01*
X325413Y603358D01*
X325347Y603356D01*
X325300Y603359D01*
X303550Y603359D01*
X303246Y603342D01*
X302942Y603331D01*
X302887Y603322D01*
X302830Y603319D01*
X302530Y603269D01*
X302230Y603224D01*
X302175Y603209D01*
X302120Y603200D01*
X301826Y603116D01*
X301533Y603038D01*
X301481Y603018D01*
X301426Y603002D01*
X301145Y602887D01*
X300861Y602777D01*
X300811Y602751D01*
X300759Y602730D01*
X300492Y602584D01*
X300223Y602443D01*
X300176Y602411D01*
X300126Y602384D01*
X299877Y602210D01*
X299625Y602040D01*
X299582Y602004D01*
X299536Y601971D01*
X299307Y601771D01*
X299075Y601574D01*
X299037Y601533D01*
X298994Y601495D01*
X298790Y601271D01*
X298581Y601049D01*
X298547Y601004D01*
X298509Y600962D01*
X298331Y600717D01*
X298148Y600473D01*
X298119Y600425D01*
X298086Y600379D01*
X297936Y600115D01*
X297781Y599853D01*
X297758Y599801D01*
X297730Y599752D01*
X297610Y599473D01*
X297485Y599196D01*
X297468Y599142D01*
X297445Y599090D01*
X297357Y598799D01*
X297264Y598510D01*
X297252Y598454D01*
X297236Y598400D01*
X297180Y598102D01*
X297120Y597803D01*
X297116Y597756D01*
X297104Y597692D01*
X297052Y596973D01*
X297054Y596907D01*
X297051Y596860D01*
X297051Y591610D01*
X297068Y591306D01*
X297079Y591002D01*
X297088Y590947D01*
X297091Y590890D01*
X297141Y590590D01*
X297186Y590290D01*
X297201Y590235D01*
X297210Y590180D01*
X297294Y589886D01*
X297372Y589593D01*
X297392Y589541D01*
X297408Y589486D01*
X297523Y589205D01*
X297633Y588921D01*
X297659Y588871D01*
X297680Y588819D01*
X297826Y588552D01*
X297967Y588283D01*
X297999Y588236D01*
X298026Y588186D01*
X298200Y587937D01*
X298370Y587685D01*
X298406Y587642D01*
X298439Y587596D01*
X298639Y587367D01*
X298836Y587135D01*
X298877Y587097D01*
X298915Y587054D01*
X299139Y586850D01*
X299361Y586641D01*
X299406Y586607D01*
X299448Y586569D01*
X299694Y586391D01*
X299937Y586208D01*
X299985Y586179D01*
X300031Y586146D01*
X300295Y585996D01*
X300557Y585841D01*
X300609Y585818D01*
X300658Y585790D01*
X300937Y585670D01*
X301214Y585545D01*
X301268Y585528D01*
X301320Y585505D01*
X301611Y585417D01*
X301900Y585324D01*
X301956Y585312D01*
X302010Y585296D01*
X302308Y585240D01*
X302607Y585180D01*
X302654Y585176D01*
X302718Y585164D01*
X303437Y585112D01*
X303503Y585114D01*
X303550Y585111D01*
X325300Y585111D01*
X325604Y585128D01*
G37*
G36*
X66805Y351754D02*
X66805Y351754D01*
X66808Y351751D01*
X67903Y351931D01*
X67909Y351937D01*
X67914Y351934D01*
X68942Y352353D01*
X68946Y352360D01*
X68951Y352358D01*
X69860Y352996D01*
X69863Y353003D01*
X69868Y353003D01*
X70612Y353826D01*
X70613Y353834D01*
X70619Y353835D01*
X71161Y354803D01*
X71160Y354812D01*
X71166Y354814D01*
X71479Y355878D01*
X71476Y355886D01*
X71481Y355889D01*
X71549Y356997D01*
X71545Y357004D01*
X71549Y357007D01*
X71379Y358115D01*
X71373Y358121D01*
X71376Y358126D01*
X70964Y359168D01*
X70957Y359172D01*
X70959Y359177D01*
X70325Y360102D01*
X70317Y360104D01*
X70318Y360110D01*
X69495Y360870D01*
X69486Y360871D01*
X69486Y360877D01*
X68514Y361434D01*
X68506Y361433D01*
X68504Y361439D01*
X67432Y361766D01*
X67424Y361763D01*
X67421Y361768D01*
X66304Y361849D01*
X66301Y361848D01*
X66300Y361849D01*
X54300Y361849D01*
X54297Y361847D01*
X54290Y361847D01*
X54289Y361848D01*
X53345Y361629D01*
X53339Y361623D01*
X53334Y361625D01*
X52462Y361202D01*
X52459Y361194D01*
X52453Y361196D01*
X51697Y360589D01*
X51695Y360581D01*
X51689Y360581D01*
X51088Y359821D01*
X51088Y359812D01*
X51082Y359811D01*
X50664Y358936D01*
X50666Y358928D01*
X50661Y358926D01*
X50449Y357980D01*
X50452Y357973D01*
X50447Y357969D01*
X50451Y357000D01*
X50451Y356999D01*
X50470Y355931D01*
X50475Y355924D01*
X50471Y355920D01*
X50727Y354883D01*
X50734Y354878D01*
X50731Y354872D01*
X51212Y353918D01*
X51219Y353915D01*
X51218Y353909D01*
X51899Y353086D01*
X51907Y353084D01*
X51907Y353078D01*
X52754Y352427D01*
X52762Y352427D01*
X52763Y352421D01*
X53734Y351974D01*
X53742Y351976D01*
X53744Y351971D01*
X54790Y351752D01*
X54797Y351755D01*
X54800Y351751D01*
X66800Y351751D01*
X66805Y351754D01*
G37*
G36*
X66805Y438155D02*
X66805Y438155D01*
X66808Y438151D01*
X67914Y438344D01*
X67919Y438349D01*
X67919Y438350D01*
X67924Y438347D01*
X68959Y438780D01*
X68963Y438787D01*
X68968Y438785D01*
X69881Y439438D01*
X69883Y439446D01*
X69889Y439445D01*
X70633Y440284D01*
X70634Y440293D01*
X70639Y440293D01*
X71178Y441277D01*
X71177Y441285D01*
X71178Y441286D01*
X71182Y441287D01*
X71183Y441289D01*
X71365Y441930D01*
X71489Y442366D01*
X71487Y442371D01*
X71489Y442373D01*
X71487Y442375D01*
X71491Y442377D01*
X71549Y443497D01*
X71546Y443502D01*
X71549Y443506D01*
X71431Y444551D01*
X71425Y444557D01*
X71429Y444562D01*
X71081Y445556D01*
X71074Y445560D01*
X71076Y445565D01*
X70516Y446457D01*
X70509Y446460D01*
X70509Y446465D01*
X69765Y447209D01*
X69757Y447211D01*
X69757Y447216D01*
X68865Y447776D01*
X68857Y447776D01*
X68856Y447781D01*
X67862Y448129D01*
X67854Y448126D01*
X67851Y448131D01*
X66806Y448249D01*
X66802Y448247D01*
X66800Y448249D01*
X54800Y448249D01*
X54797Y448247D01*
X54794Y448247D01*
X54792Y448249D01*
X53796Y448091D01*
X53790Y448085D01*
X53785Y448088D01*
X52849Y447713D01*
X52845Y447706D01*
X52839Y447708D01*
X52010Y447134D01*
X52007Y447126D01*
X52002Y447127D01*
X51321Y446383D01*
X51320Y446374D01*
X51314Y446374D01*
X50816Y445497D01*
X50817Y445489D01*
X50812Y445486D01*
X50624Y444862D01*
X50521Y444521D01*
X50522Y444518D01*
X50521Y444517D01*
X50524Y444513D01*
X50519Y444510D01*
X50451Y443503D01*
X50452Y443501D01*
X50451Y443500D01*
X50460Y442419D01*
X50465Y442412D01*
X50461Y442408D01*
X50711Y441356D01*
X50717Y441351D01*
X50714Y441346D01*
X51191Y440376D01*
X51199Y440373D01*
X51197Y440367D01*
X51878Y439528D01*
X51886Y439526D01*
X51886Y439520D01*
X52737Y438854D01*
X52745Y438853D01*
X52746Y438848D01*
X53723Y438387D01*
X53731Y438389D01*
X53734Y438384D01*
X54789Y438152D01*
X54797Y438155D01*
X54800Y438151D01*
X66800Y438151D01*
X66805Y438155D01*
G37*
G36*
X22004Y351754D02*
X22004Y351754D01*
X22006Y351751D01*
X23139Y351901D01*
X23145Y351907D01*
X23150Y351904D01*
X24220Y352302D01*
X24224Y352309D01*
X24230Y352307D01*
X25185Y352934D01*
X25188Y352942D01*
X25193Y352941D01*
X25985Y353764D01*
X25986Y353772D01*
X25992Y353773D01*
X26581Y354752D01*
X26580Y354760D01*
X26585Y354762D01*
X26941Y355847D01*
X26939Y355855D01*
X26943Y355858D01*
X27049Y356995D01*
X27044Y357004D01*
X27048Y357009D01*
X26841Y358146D01*
X26835Y358152D01*
X26838Y358157D01*
X26383Y359219D01*
X26376Y359223D01*
X26378Y359229D01*
X25698Y360164D01*
X25690Y360166D01*
X25691Y360172D01*
X24820Y360932D01*
X24812Y360932D01*
X24811Y360938D01*
X23792Y361485D01*
X23784Y361484D01*
X23782Y361489D01*
X22668Y361796D01*
X22660Y361793D01*
X22657Y361798D01*
X21502Y361849D01*
X21501Y361848D01*
X21500Y361849D01*
X15500Y361849D01*
X15497Y361847D01*
X15492Y361847D01*
X15491Y361848D01*
X14410Y361636D01*
X14405Y361630D01*
X14400Y361633D01*
X13394Y361186D01*
X13390Y361179D01*
X13384Y361181D01*
X12503Y360521D01*
X12500Y360513D01*
X12495Y360513D01*
X11782Y359674D01*
X11782Y359666D01*
X11776Y359665D01*
X11268Y358688D01*
X11269Y358680D01*
X11264Y358678D01*
X10986Y357613D01*
X10989Y357605D01*
X10985Y357602D01*
X10951Y356502D01*
X10955Y356496D01*
X10951Y356493D01*
X11106Y355418D01*
X11112Y355412D01*
X11109Y355407D01*
X11499Y354393D01*
X11506Y354389D01*
X11505Y354383D01*
X12111Y353481D01*
X12119Y353479D01*
X12118Y353473D01*
X12910Y352729D01*
X12918Y352728D01*
X12918Y352722D01*
X13856Y352173D01*
X13864Y352174D01*
X13866Y352168D01*
X14902Y351841D01*
X14910Y351844D01*
X14913Y351839D01*
X15996Y351751D01*
X15999Y351753D01*
X16000Y351751D01*
X22000Y351751D01*
X22004Y351754D01*
G37*
G36*
X22003Y438153D02*
X22003Y438153D01*
X22005Y438151D01*
X23097Y438252D01*
X23103Y438257D01*
X23108Y438254D01*
X24151Y438595D01*
X24156Y438602D01*
X24161Y438600D01*
X25102Y439164D01*
X25105Y439172D01*
X25111Y439171D01*
X25903Y439931D01*
X25904Y439939D01*
X25910Y439940D01*
X26513Y440857D01*
X26512Y440865D01*
X26518Y440867D01*
X26901Y441895D01*
X26899Y441903D01*
X26904Y441906D01*
X27049Y442994D01*
X27045Y443001D01*
X27049Y443005D01*
X26943Y444142D01*
X26938Y444148D01*
X26941Y444153D01*
X26585Y445238D01*
X26578Y445243D01*
X26581Y445248D01*
X25992Y446227D01*
X25984Y446230D01*
X25985Y446236D01*
X25193Y447059D01*
X25185Y447060D01*
X25185Y447066D01*
X24230Y447693D01*
X24222Y447692D01*
X24220Y447698D01*
X23150Y448096D01*
X23142Y448094D01*
X23139Y448099D01*
X22006Y448249D01*
X22003Y448247D01*
X22002Y448247D01*
X22000Y448249D01*
X16000Y448249D01*
X15997Y448247D01*
X15995Y448247D01*
X15994Y448249D01*
X14861Y448099D01*
X14855Y448093D01*
X14850Y448096D01*
X13780Y447698D01*
X13776Y447691D01*
X13770Y447693D01*
X12815Y447066D01*
X12812Y447058D01*
X12807Y447059D01*
X12015Y446236D01*
X12014Y446228D01*
X12008Y446227D01*
X11419Y445248D01*
X11420Y445240D01*
X11415Y445238D01*
X11059Y444153D01*
X11062Y444145D01*
X11057Y444142D01*
X10951Y443005D01*
X10955Y442998D01*
X10951Y442994D01*
X11096Y441906D01*
X11102Y441900D01*
X11099Y441895D01*
X11483Y440867D01*
X11489Y440862D01*
X11488Y440857D01*
X12090Y439940D01*
X12098Y439937D01*
X12097Y439931D01*
X12889Y439171D01*
X12897Y439170D01*
X12898Y439164D01*
X13839Y438600D01*
X13847Y438601D01*
X13849Y438595D01*
X14892Y438254D01*
X14900Y438256D01*
X14903Y438252D01*
X15996Y438151D01*
X15998Y438153D01*
X16000Y438151D01*
X22000Y438151D01*
X22003Y438153D01*
G37*
D10*
X330020Y495240D03*
X349020Y495240D03*
X477036Y591272D03*
X458036Y591272D03*
D11*
X484192Y281964D03*
X484192Y262964D03*
D10*
X99500Y510000D03*
X80500Y510000D03*
X39500Y510000D03*
X20500Y510000D03*
X99500Y290000D03*
X80500Y290000D03*
X39500Y290000D03*
X20500Y290000D03*
D12*
X502500Y385000D03*
X507500Y385000D03*
X512500Y385000D03*
X517500Y385000D03*
D13*
X522500Y395000D03*
X522500Y400000D03*
X522500Y405000D03*
D12*
X517500Y415000D03*
X512500Y415000D03*
X507500Y415000D03*
X502500Y415000D03*
D13*
X497500Y405000D03*
X497500Y400000D03*
X497500Y395000D03*
D14*
X207856Y426952D03*
D15*
X233856Y437952D03*
X233856Y415952D03*
D14*
X172144Y426952D03*
D15*
X146144Y415952D03*
X146144Y437952D03*
D14*
X207856Y373048D03*
D15*
X233856Y384048D03*
X233856Y362048D03*
D14*
X172144Y373048D03*
D15*
X146144Y362048D03*
X146144Y384048D03*
D16*
X66600Y392500D03*
X66600Y397500D03*
D17*
X66600Y367750D03*
X66600Y375500D03*
D16*
X66600Y382500D03*
X66600Y387500D03*
X66600Y407500D03*
X66600Y402500D03*
D17*
X66600Y432250D03*
X66600Y424500D03*
D16*
X66600Y417500D03*
X66600Y412500D03*
D18*
X387808Y120980D03*
X387808Y139980D03*
D19*
X484148Y307888D03*
X503148Y307888D03*
X529500Y466096D03*
X510500Y466096D03*
X415556Y633272D03*
X396556Y633272D03*
D18*
X394280Y97204D03*
X394280Y78204D03*
D19*
X559644Y386096D03*
X578644Y386096D03*
X559644Y413904D03*
X578644Y413904D03*
D18*
X392000Y666860D03*
X392000Y685860D03*
D10*
X261524Y486384D03*
X280524Y486384D03*
X261524Y464568D03*
X280524Y464568D03*
D20*
X92500Y570000D03*
X27500Y570000D03*
X92500Y230000D03*
X27500Y230000D03*
D21*
X267375Y530000D03*
X267375Y525000D03*
X267375Y520000D03*
X267375Y515000D03*
X267375Y510000D03*
X312625Y510000D03*
X312625Y515000D03*
X312625Y520000D03*
X312625Y525000D03*
X312625Y530000D03*
D22*
X356452Y221895D03*
X346952Y221895D03*
X337452Y221895D03*
X337452Y194393D03*
X346952Y194393D03*
X356452Y194393D03*
D10*
X366452Y168144D03*
X347452Y168144D03*
D11*
X310000Y213884D03*
X310000Y232884D03*
X283048Y213884D03*
X283048Y232884D03*
D10*
X337452Y272048D03*
X356452Y272048D03*
X337260Y296592D03*
X356260Y296592D03*
X337452Y248144D03*
X356452Y248144D03*
D23*
X396952Y189644D03*
X396952Y226644D03*
D19*
X323444Y554736D03*
X304444Y554736D03*
D24*
X364568Y560832D03*
X342568Y551332D03*
X342568Y570332D03*
D25*
X284990Y609350D03*
X284990Y579370D03*
X285000Y594360D03*
D18*
X374904Y542900D03*
X374904Y523900D03*
X506888Y263836D03*
X506888Y282836D03*
D11*
X473840Y219828D03*
X473840Y238828D03*
D26*
G36*
X507864Y163722D02*
X518470Y174328D01*
X529076Y163722D01*
X518470Y153116D01*
X507864Y163722D01*
G37*
G36*
X483116Y188470D02*
X493722Y199076D01*
X504328Y188470D01*
X493722Y177864D01*
X483116Y188470D01*
G37*
G36*
X520662Y628720D02*
X510056Y639326D01*
X520662Y649932D01*
X531268Y639326D01*
X520662Y628720D01*
G37*
G36*
X495914Y603972D02*
X485308Y614578D01*
X495914Y625184D01*
X506520Y614578D01*
X495914Y603972D01*
G37*
D18*
X473544Y188788D03*
X473544Y169788D03*
D19*
X482340Y635088D03*
X463340Y635088D03*
D18*
X315216Y297724D03*
X315216Y316724D03*
D11*
X537176Y432460D03*
X537176Y413460D03*
D18*
X480000Y382836D03*
X480000Y363836D03*
X453320Y401604D03*
X453320Y382604D03*
X94488Y362356D03*
X94488Y381356D03*
X94488Y439268D03*
X94488Y420268D03*
D27*
X42672Y320732D03*
X42672Y343732D03*
D28*
X418318Y315902D03*
X394818Y315902D03*
X394818Y298402D03*
X418318Y298402D03*
D11*
X395624Y277724D03*
X395624Y258724D03*
X418192Y277724D03*
X418192Y258724D03*
D29*
G36*
X573941Y198685D02*
X583134Y207878D01*
X594093Y196919D01*
X584900Y187726D01*
X573941Y198685D01*
G37*
G36*
X517726Y254900D02*
X526919Y264093D01*
X537878Y253134D01*
X528685Y243941D01*
X517726Y254900D01*
G37*
G36*
X542122Y166866D02*
X551315Y176059D01*
X562274Y165100D01*
X553081Y155907D01*
X542122Y166866D01*
G37*
G36*
X485907Y223081D02*
X495100Y232274D01*
X506059Y221315D01*
X496866Y212122D01*
X485907Y223081D01*
G37*
G36*
X561315Y623941D02*
X552122Y633134D01*
X563081Y644093D01*
X572274Y634900D01*
X561315Y623941D01*
G37*
G36*
X505100Y567726D02*
X495907Y576919D01*
X506866Y587878D01*
X516059Y578685D01*
X505100Y567726D01*
G37*
G36*
X593134Y592122D02*
X583941Y601315D01*
X594900Y612274D01*
X604093Y603081D01*
X593134Y592122D01*
G37*
G36*
X536919Y535907D02*
X527726Y545100D01*
X538685Y556059D01*
X547878Y546866D01*
X536919Y535907D01*
G37*
D30*
G36*
X361711Y338883D02*
X370152Y330442D01*
X367997Y328287D01*
X359556Y336728D01*
X361711Y338883D01*
G37*
G36*
X365247Y342418D02*
X373688Y333977D01*
X371533Y331822D01*
X363092Y340263D01*
X365247Y342418D01*
G37*
G36*
X368782Y345954D02*
X377223Y337513D01*
X375068Y335358D01*
X366627Y343799D01*
X368782Y345954D01*
G37*
G36*
X372318Y349489D02*
X380759Y341048D01*
X378604Y338893D01*
X370163Y347334D01*
X372318Y349489D01*
G37*
G36*
X375853Y353025D02*
X384294Y344584D01*
X382139Y342429D01*
X373698Y350870D01*
X375853Y353025D01*
G37*
G36*
X379389Y356561D02*
X387830Y348120D01*
X385675Y345965D01*
X377234Y354406D01*
X379389Y356561D01*
G37*
G36*
X382924Y360096D02*
X391365Y351655D01*
X389210Y349500D01*
X380769Y357941D01*
X382924Y360096D01*
G37*
G36*
X386460Y363632D02*
X394901Y355191D01*
X392746Y353036D01*
X384305Y361477D01*
X386460Y363632D01*
G37*
G36*
X389995Y367167D02*
X398436Y358726D01*
X396281Y356571D01*
X387840Y365012D01*
X389995Y367167D01*
G37*
G36*
X393531Y370703D02*
X401972Y362262D01*
X399817Y360107D01*
X391376Y368548D01*
X393531Y370703D01*
G37*
G36*
X397066Y374238D02*
X405507Y365797D01*
X403352Y363642D01*
X394911Y372083D01*
X397066Y374238D01*
G37*
G36*
X400602Y377774D02*
X409043Y369333D01*
X406888Y367178D01*
X398447Y375619D01*
X400602Y377774D01*
G37*
G36*
X404138Y381309D02*
X412579Y372868D01*
X410424Y370713D01*
X401983Y379154D01*
X404138Y381309D01*
G37*
G36*
X407673Y384845D02*
X416114Y376404D01*
X413959Y374249D01*
X405518Y382690D01*
X407673Y384845D01*
G37*
G36*
X411209Y388380D02*
X419650Y379939D01*
X417495Y377784D01*
X409054Y386225D01*
X411209Y388380D01*
G37*
G36*
X414744Y391916D02*
X423185Y383475D01*
X421030Y381320D01*
X412589Y389761D01*
X414744Y391916D01*
G37*
G36*
X412589Y411759D02*
X421030Y420200D01*
X423185Y418045D01*
X414744Y409604D01*
X412589Y411759D01*
G37*
G36*
X409054Y415295D02*
X417495Y423736D01*
X419650Y421581D01*
X411209Y413140D01*
X409054Y415295D01*
G37*
G36*
X405518Y418830D02*
X413959Y427271D01*
X416114Y425116D01*
X407673Y416675D01*
X405518Y418830D01*
G37*
G36*
X401983Y422366D02*
X410424Y430807D01*
X412579Y428652D01*
X404138Y420211D01*
X401983Y422366D01*
G37*
G36*
X398447Y425901D02*
X406888Y434342D01*
X409043Y432187D01*
X400602Y423746D01*
X398447Y425901D01*
G37*
G36*
X394911Y429437D02*
X403352Y437878D01*
X405507Y435723D01*
X397066Y427282D01*
X394911Y429437D01*
G37*
G36*
X391376Y432972D02*
X399817Y441413D01*
X401972Y439258D01*
X393531Y430817D01*
X391376Y432972D01*
G37*
G36*
X387840Y436508D02*
X396281Y444949D01*
X398436Y442794D01*
X389995Y434353D01*
X387840Y436508D01*
G37*
G36*
X384305Y440043D02*
X392746Y448484D01*
X394901Y446329D01*
X386460Y437888D01*
X384305Y440043D01*
G37*
G36*
X380769Y443579D02*
X389210Y452020D01*
X391365Y449865D01*
X382924Y441424D01*
X380769Y443579D01*
G37*
G36*
X377234Y447114D02*
X385675Y455555D01*
X387830Y453400D01*
X379389Y444959D01*
X377234Y447114D01*
G37*
G36*
X373698Y450650D02*
X382139Y459091D01*
X384294Y456936D01*
X375853Y448495D01*
X373698Y450650D01*
G37*
G36*
X370163Y454186D02*
X378604Y462627D01*
X380759Y460472D01*
X372318Y452031D01*
X370163Y454186D01*
G37*
G36*
X366627Y457721D02*
X375068Y466162D01*
X377223Y464007D01*
X368782Y455566D01*
X366627Y457721D01*
G37*
G36*
X363092Y461257D02*
X371533Y469698D01*
X373688Y467543D01*
X365247Y459102D01*
X363092Y461257D01*
G37*
G36*
X359556Y464792D02*
X367997Y473233D01*
X370152Y471078D01*
X361711Y462637D01*
X359556Y464792D01*
G37*
G36*
X339713Y462637D02*
X331272Y471078D01*
X333427Y473233D01*
X341868Y464792D01*
X339713Y462637D01*
G37*
G36*
X336177Y459102D02*
X327736Y467543D01*
X329891Y469698D01*
X338332Y461257D01*
X336177Y459102D01*
G37*
G36*
X332642Y455566D02*
X324201Y464007D01*
X326356Y466162D01*
X334797Y457721D01*
X332642Y455566D01*
G37*
G36*
X329106Y452031D02*
X320665Y460472D01*
X322820Y462627D01*
X331261Y454186D01*
X329106Y452031D01*
G37*
G36*
X325571Y448495D02*
X317130Y456936D01*
X319285Y459091D01*
X327726Y450650D01*
X325571Y448495D01*
G37*
G36*
X322035Y444959D02*
X313594Y453400D01*
X315749Y455555D01*
X324190Y447114D01*
X322035Y444959D01*
G37*
G36*
X318500Y441424D02*
X310059Y449865D01*
X312214Y452020D01*
X320655Y443579D01*
X318500Y441424D01*
G37*
G36*
X314964Y437888D02*
X306523Y446329D01*
X308678Y448484D01*
X317119Y440043D01*
X314964Y437888D01*
G37*
G36*
X311429Y434353D02*
X302988Y442794D01*
X305143Y444949D01*
X313584Y436508D01*
X311429Y434353D01*
G37*
G36*
X307893Y430817D02*
X299452Y439258D01*
X301607Y441413D01*
X310048Y432972D01*
X307893Y430817D01*
G37*
G36*
X304358Y427282D02*
X295917Y435723D01*
X298072Y437878D01*
X306513Y429437D01*
X304358Y427282D01*
G37*
G36*
X300822Y423746D02*
X292381Y432187D01*
X294536Y434342D01*
X302977Y425901D01*
X300822Y423746D01*
G37*
G36*
X297286Y420211D02*
X288845Y428652D01*
X291000Y430807D01*
X299441Y422366D01*
X297286Y420211D01*
G37*
G36*
X293751Y416675D02*
X285310Y425116D01*
X287465Y427271D01*
X295906Y418830D01*
X293751Y416675D01*
G37*
G36*
X290215Y413140D02*
X281774Y421581D01*
X283929Y423736D01*
X292370Y415295D01*
X290215Y413140D01*
G37*
G36*
X286680Y409604D02*
X278239Y418045D01*
X280394Y420200D01*
X288835Y411759D01*
X286680Y409604D01*
G37*
G36*
X288835Y389761D02*
X280394Y381320D01*
X278239Y383475D01*
X286680Y391916D01*
X288835Y389761D01*
G37*
G36*
X292370Y386225D02*
X283929Y377784D01*
X281774Y379939D01*
X290215Y388380D01*
X292370Y386225D01*
G37*
G36*
X295906Y382690D02*
X287465Y374249D01*
X285310Y376404D01*
X293751Y384845D01*
X295906Y382690D01*
G37*
G36*
X299441Y379154D02*
X291000Y370713D01*
X288845Y372868D01*
X297286Y381309D01*
X299441Y379154D01*
G37*
G36*
X302977Y375619D02*
X294536Y367178D01*
X292381Y369333D01*
X300822Y377774D01*
X302977Y375619D01*
G37*
G36*
X306513Y372083D02*
X298072Y363642D01*
X295917Y365797D01*
X304358Y374238D01*
X306513Y372083D01*
G37*
G36*
X310048Y368548D02*
X301607Y360107D01*
X299452Y362262D01*
X307893Y370703D01*
X310048Y368548D01*
G37*
G36*
X313584Y365012D02*
X305143Y356571D01*
X302988Y358726D01*
X311429Y367167D01*
X313584Y365012D01*
G37*
G36*
X317119Y361477D02*
X308678Y353036D01*
X306523Y355191D01*
X314964Y363632D01*
X317119Y361477D01*
G37*
G36*
X320655Y357941D02*
X312214Y349500D01*
X310059Y351655D01*
X318500Y360096D01*
X320655Y357941D01*
G37*
G36*
X324190Y354406D02*
X315749Y345965D01*
X313594Y348120D01*
X322035Y356561D01*
X324190Y354406D01*
G37*
G36*
X327726Y350870D02*
X319285Y342429D01*
X317130Y344584D01*
X325571Y353025D01*
X327726Y350870D01*
G37*
G36*
X331261Y347334D02*
X322820Y338893D01*
X320665Y341048D01*
X329106Y349489D01*
X331261Y347334D01*
G37*
G36*
X334797Y343799D02*
X326356Y335358D01*
X324201Y337513D01*
X332642Y345954D01*
X334797Y343799D01*
G37*
G36*
X338332Y340263D02*
X329891Y331822D01*
X327736Y333977D01*
X336177Y342418D01*
X338332Y340263D01*
G37*
G36*
X341868Y336728D02*
X333427Y328287D01*
X331272Y330442D01*
X339713Y338883D01*
X341868Y336728D01*
G37*
D10*
X371500Y496824D03*
X390500Y496824D03*
D31*
X97382Y483536D03*
X97382Y478536D03*
X97382Y473536D03*
X109882Y473536D03*
X109882Y478536D03*
X109882Y483536D03*
X97382Y325040D03*
X97382Y320040D03*
X97382Y315040D03*
X109882Y315040D03*
X109882Y320040D03*
X109882Y325040D03*
M02*
