G04 EAGLE Gerber RS-274X export*
G75*
%MOMM*%
%FSLAX34Y34*%
%LPD*%
%IN*%
%IPPOS*%
%AMOC8*
5,1,8,0,0,1.08239X$1,22.5*%
G01*
%ADD10C,0.600000*%
%ADD11C,0.254000*%


D10*
X66350Y443180D02*
X55350Y443180D01*
X55350Y356820D02*
X66350Y356820D01*
X22200Y443180D02*
X16000Y443180D01*
X16000Y356820D02*
X22200Y356820D01*
D11*
X-20000Y90000D02*
X370000Y90000D01*
X400000Y0D01*
X650000Y0D01*
X683048Y43069D01*
X712217Y88855D01*
X737284Y137009D01*
X758059Y187164D01*
X774384Y238940D01*
X786134Y291941D01*
X793220Y345764D01*
X795588Y400000D01*
X793220Y454236D01*
X786134Y508059D01*
X774384Y561060D01*
X758059Y612836D01*
X737284Y662991D01*
X712217Y711145D01*
X683048Y756931D01*
X650000Y800000D01*
X400000Y800000D01*
X370000Y710000D01*
X-20000Y710000D01*
X-20000Y610000D01*
X0Y600000D01*
X0Y210000D01*
X-20000Y190000D01*
X-20000Y90000D01*
X100491Y680000D02*
X101470Y679923D01*
X102441Y679769D01*
X103396Y679540D01*
X104330Y679236D01*
X105237Y678861D01*
X106112Y678415D01*
X106950Y677901D01*
X107745Y677324D01*
X108492Y676686D01*
X109186Y675992D01*
X109824Y675245D01*
X110401Y674450D01*
X110915Y673612D01*
X111361Y672737D01*
X111736Y671830D01*
X112040Y670896D01*
X112269Y669941D01*
X112423Y668970D01*
X112500Y667991D01*
X112500Y667009D01*
X112423Y666030D01*
X112269Y665060D01*
X112040Y664104D01*
X111736Y663170D01*
X111361Y662263D01*
X110915Y661388D01*
X110401Y660550D01*
X109824Y659755D01*
X109186Y659008D01*
X108492Y658314D01*
X107745Y657676D01*
X106950Y657099D01*
X106112Y656585D01*
X105237Y656139D01*
X104330Y655764D01*
X103396Y655460D01*
X102441Y655231D01*
X101470Y655077D01*
X100491Y655000D01*
X99509Y655000D01*
X98530Y655077D01*
X97560Y655231D01*
X96604Y655460D01*
X95670Y655764D01*
X94763Y656139D01*
X93888Y656585D01*
X93050Y657099D01*
X92255Y657676D01*
X91508Y658314D01*
X90814Y659008D01*
X90176Y659755D01*
X89599Y660550D01*
X89085Y661388D01*
X88639Y662263D01*
X88264Y663170D01*
X87960Y664104D01*
X87731Y665060D01*
X87577Y666030D01*
X87500Y667009D01*
X87500Y667991D01*
X87577Y668970D01*
X87731Y669941D01*
X87960Y670896D01*
X88264Y671830D01*
X88639Y672737D01*
X89085Y673612D01*
X89599Y674450D01*
X90176Y675245D01*
X90814Y675992D01*
X91508Y676686D01*
X92255Y677324D01*
X93050Y677901D01*
X93888Y678415D01*
X94763Y678861D01*
X95670Y679236D01*
X96604Y679540D01*
X97560Y679769D01*
X98530Y679923D01*
X99509Y680000D01*
X100491Y680000D01*
X280491Y680000D02*
X281470Y679923D01*
X282441Y679769D01*
X283396Y679540D01*
X284330Y679236D01*
X285237Y678861D01*
X286112Y678415D01*
X286950Y677901D01*
X287745Y677324D01*
X288492Y676686D01*
X289186Y675992D01*
X289824Y675245D01*
X290401Y674450D01*
X290915Y673612D01*
X291361Y672737D01*
X291736Y671830D01*
X292040Y670896D01*
X292269Y669941D01*
X292423Y668970D01*
X292500Y667991D01*
X292500Y667009D01*
X292423Y666030D01*
X292269Y665060D01*
X292040Y664104D01*
X291736Y663170D01*
X291361Y662263D01*
X290915Y661388D01*
X290401Y660550D01*
X289824Y659755D01*
X289186Y659008D01*
X288492Y658314D01*
X287745Y657676D01*
X286950Y657099D01*
X286112Y656585D01*
X285237Y656139D01*
X284330Y655764D01*
X283396Y655460D01*
X282441Y655231D01*
X281470Y655077D01*
X280491Y655000D01*
X279509Y655000D01*
X278530Y655077D01*
X277560Y655231D01*
X276604Y655460D01*
X275670Y655764D01*
X274763Y656139D01*
X273888Y656585D01*
X273050Y657099D01*
X272255Y657676D01*
X271508Y658314D01*
X270814Y659008D01*
X270176Y659755D01*
X269599Y660550D01*
X269085Y661388D01*
X268639Y662263D01*
X268264Y663170D01*
X267960Y664104D01*
X267731Y665060D01*
X267577Y666030D01*
X267500Y667009D01*
X267500Y667991D01*
X267577Y668970D01*
X267731Y669941D01*
X267960Y670896D01*
X268264Y671830D01*
X268639Y672737D01*
X269085Y673612D01*
X269599Y674450D01*
X270176Y675245D01*
X270814Y675992D01*
X271508Y676686D01*
X272255Y677324D01*
X273050Y677901D01*
X273888Y678415D01*
X274763Y678861D01*
X275670Y679236D01*
X276604Y679540D01*
X277560Y679769D01*
X278530Y679923D01*
X279509Y680000D01*
X280491Y680000D01*
X279509Y120000D02*
X278530Y120077D01*
X277560Y120231D01*
X276604Y120460D01*
X275670Y120764D01*
X274763Y121139D01*
X273888Y121585D01*
X273050Y122099D01*
X272255Y122676D01*
X271508Y123314D01*
X270814Y124008D01*
X270176Y124755D01*
X269599Y125550D01*
X269085Y126388D01*
X268639Y127263D01*
X268264Y128170D01*
X267960Y129104D01*
X267731Y130060D01*
X267577Y131030D01*
X267500Y132009D01*
X267500Y132991D01*
X267577Y133970D01*
X267731Y134941D01*
X267960Y135896D01*
X268264Y136830D01*
X268639Y137737D01*
X269085Y138612D01*
X269599Y139450D01*
X270176Y140245D01*
X270814Y140992D01*
X271508Y141686D01*
X272255Y142324D01*
X273050Y142901D01*
X273888Y143415D01*
X274763Y143861D01*
X275670Y144236D01*
X276604Y144540D01*
X277560Y144769D01*
X278530Y144923D01*
X279509Y145000D01*
X280491Y145000D01*
X281470Y144923D01*
X282441Y144769D01*
X283396Y144540D01*
X284330Y144236D01*
X285237Y143861D01*
X286112Y143415D01*
X286950Y142901D01*
X287745Y142324D01*
X288492Y141686D01*
X289186Y140992D01*
X289824Y140245D01*
X290401Y139450D01*
X290915Y138612D01*
X291361Y137737D01*
X291736Y136830D01*
X292040Y135896D01*
X292269Y134941D01*
X292423Y133970D01*
X292500Y132991D01*
X292500Y132009D01*
X292423Y131030D01*
X292269Y130060D01*
X292040Y129104D01*
X291736Y128170D01*
X291361Y127263D01*
X290915Y126388D01*
X290401Y125550D01*
X289824Y124755D01*
X289186Y124008D01*
X288492Y123314D01*
X287745Y122676D01*
X286950Y122099D01*
X286112Y121585D01*
X285237Y121139D01*
X284330Y120764D01*
X283396Y120460D01*
X282441Y120231D01*
X281470Y120077D01*
X280491Y120000D01*
X279509Y120000D01*
X99509Y120000D02*
X98530Y120077D01*
X97560Y120231D01*
X96604Y120460D01*
X95670Y120764D01*
X94763Y121139D01*
X93888Y121585D01*
X93050Y122099D01*
X92255Y122676D01*
X91508Y123314D01*
X90814Y124008D01*
X90176Y124755D01*
X89599Y125550D01*
X89085Y126388D01*
X88639Y127263D01*
X88264Y128170D01*
X87960Y129104D01*
X87731Y130060D01*
X87577Y131030D01*
X87500Y132009D01*
X87500Y132991D01*
X87577Y133970D01*
X87731Y134941D01*
X87960Y135896D01*
X88264Y136830D01*
X88639Y137737D01*
X89085Y138612D01*
X89599Y139450D01*
X90176Y140245D01*
X90814Y140992D01*
X91508Y141686D01*
X92255Y142324D01*
X93050Y142901D01*
X93888Y143415D01*
X94763Y143861D01*
X95670Y144236D01*
X96604Y144540D01*
X97560Y144769D01*
X98530Y144923D01*
X99509Y145000D01*
X100491Y145000D01*
X101470Y144923D01*
X102441Y144769D01*
X103396Y144540D01*
X104330Y144236D01*
X105237Y143861D01*
X106112Y143415D01*
X106950Y142901D01*
X107745Y142324D01*
X108492Y141686D01*
X109186Y140992D01*
X109824Y140245D01*
X110401Y139450D01*
X110915Y138612D01*
X111361Y137737D01*
X111736Y136830D01*
X112040Y135896D01*
X112269Y134941D01*
X112423Y133970D01*
X112500Y132991D01*
X112500Y132009D01*
X112423Y131030D01*
X112269Y130060D01*
X112040Y129104D01*
X111736Y128170D01*
X111361Y127263D01*
X110915Y126388D01*
X110401Y125550D01*
X109824Y124755D01*
X109186Y124008D01*
X108492Y123314D01*
X107745Y122676D01*
X106950Y122099D01*
X106112Y121585D01*
X105237Y121139D01*
X104330Y120764D01*
X103396Y120460D01*
X102441Y120231D01*
X101470Y120077D01*
X100491Y120000D01*
X99509Y120000D01*
X55337Y425650D02*
X54915Y425706D01*
X54503Y425816D01*
X54109Y425979D01*
X53741Y426192D01*
X53403Y426451D01*
X53101Y426753D01*
X52842Y427091D01*
X52629Y427459D01*
X52466Y427853D01*
X52356Y428265D01*
X52300Y428687D01*
X52300Y429113D01*
X52356Y429535D01*
X52466Y429947D01*
X52629Y430341D01*
X52842Y430709D01*
X53101Y431047D01*
X53403Y431349D01*
X53741Y431608D01*
X54109Y431821D01*
X54503Y431984D01*
X54915Y432094D01*
X55337Y432150D01*
X55763Y432150D01*
X56185Y432094D01*
X56597Y431984D01*
X56991Y431821D01*
X57359Y431608D01*
X57697Y431349D01*
X57999Y431047D01*
X58258Y430709D01*
X58471Y430341D01*
X58634Y429947D01*
X58744Y429535D01*
X58800Y429113D01*
X58800Y428687D01*
X58744Y428265D01*
X58634Y427853D01*
X58471Y427459D01*
X58258Y427091D01*
X57999Y426753D01*
X57697Y426451D01*
X57359Y426192D01*
X56991Y425979D01*
X56597Y425816D01*
X56185Y425706D01*
X55763Y425650D01*
X55337Y425650D01*
X55337Y367850D02*
X54915Y367906D01*
X54503Y368016D01*
X54109Y368179D01*
X53741Y368392D01*
X53403Y368651D01*
X53101Y368953D01*
X52842Y369291D01*
X52629Y369659D01*
X52466Y370053D01*
X52356Y370465D01*
X52300Y370887D01*
X52300Y371313D01*
X52356Y371735D01*
X52466Y372147D01*
X52629Y372541D01*
X52842Y372909D01*
X53101Y373247D01*
X53403Y373549D01*
X53741Y373808D01*
X54109Y374021D01*
X54503Y374184D01*
X54915Y374294D01*
X55337Y374350D01*
X55763Y374350D01*
X56185Y374294D01*
X56597Y374184D01*
X56991Y374021D01*
X57359Y373808D01*
X57697Y373549D01*
X57999Y373247D01*
X58258Y372909D01*
X58471Y372541D01*
X58634Y372147D01*
X58744Y371735D01*
X58800Y371313D01*
X58800Y370887D01*
X58744Y370465D01*
X58634Y370053D01*
X58471Y369659D01*
X58258Y369291D01*
X57999Y368953D01*
X57697Y368651D01*
X57359Y368392D01*
X56991Y368179D01*
X56597Y368016D01*
X56185Y367906D01*
X55763Y367850D01*
X55337Y367850D01*
X774000Y399500D02*
X773929Y398503D01*
X773786Y397513D01*
X773574Y396536D01*
X773292Y395576D01*
X772943Y394639D01*
X772527Y393729D01*
X772048Y392852D01*
X771507Y392010D01*
X770908Y391210D01*
X770253Y390454D01*
X769546Y389747D01*
X768790Y389092D01*
X767990Y388493D01*
X767148Y387952D01*
X766271Y387473D01*
X765361Y387057D01*
X764424Y386708D01*
X763465Y386426D01*
X762487Y386214D01*
X761498Y386071D01*
X760500Y386000D01*
X759500Y386000D01*
X758503Y386071D01*
X757513Y386214D01*
X756536Y386426D01*
X755576Y386708D01*
X754639Y387057D01*
X753729Y387473D01*
X752852Y387952D01*
X752010Y388493D01*
X751210Y389092D01*
X750454Y389747D01*
X749747Y390454D01*
X749092Y391210D01*
X748493Y392010D01*
X747952Y392852D01*
X747473Y393729D01*
X747057Y394639D01*
X746708Y395576D01*
X746426Y396536D01*
X746214Y397513D01*
X746071Y398503D01*
X746000Y399500D01*
X746000Y400500D01*
X746071Y401498D01*
X746214Y402487D01*
X746426Y403465D01*
X746708Y404424D01*
X747057Y405361D01*
X747473Y406271D01*
X747952Y407148D01*
X748493Y407990D01*
X749092Y408790D01*
X749747Y409546D01*
X750454Y410253D01*
X751210Y410908D01*
X752010Y411507D01*
X752852Y412048D01*
X753729Y412527D01*
X754639Y412943D01*
X755576Y413292D01*
X756536Y413574D01*
X757513Y413786D01*
X758503Y413929D01*
X759500Y414000D01*
X760500Y414000D01*
X761498Y413929D01*
X762487Y413786D01*
X763465Y413574D01*
X764424Y413292D01*
X765361Y412943D01*
X766271Y412527D01*
X767148Y412048D01*
X767990Y411507D01*
X768790Y410908D01*
X769546Y410253D01*
X770253Y409546D01*
X770908Y408790D01*
X771507Y407990D01*
X772048Y407148D01*
X772527Y406271D01*
X772943Y405361D01*
X773292Y404424D01*
X773574Y403465D01*
X773786Y402487D01*
X773929Y401498D01*
X774000Y400500D01*
X774000Y399500D01*
M02*
