G04 EAGLE Gerber RS-274X export*
G75*
%MOMM*%
%FSLAX34Y34*%
%LPD*%
%INSolderpaste Bottom*%
%IPPOS*%
%AMOC8*
5,1,8,0,0,1.08239X$1,22.5*%
G01*
%ADD10R,1.500000X1.500000*%
%ADD11R,1.300000X1.600000*%
%ADD12R,0.900000X0.800000*%
%ADD13R,1.600000X1.300000*%


D10*
X587500Y730000D03*
X552500Y730000D03*
D11*
X529500Y730000D03*
X510500Y730000D03*
D10*
X647500Y630000D03*
X612500Y630000D03*
D11*
X589500Y630000D03*
X570500Y630000D03*
D10*
X687500Y530000D03*
X652500Y530000D03*
D11*
X630036Y530704D03*
X611036Y530704D03*
D10*
X697500Y430000D03*
X662500Y430000D03*
D11*
X636452Y445240D03*
X617452Y445240D03*
D10*
X697500Y370000D03*
X662500Y370000D03*
D11*
X657788Y391336D03*
X638788Y391336D03*
D10*
X687500Y270000D03*
X652500Y270000D03*
D11*
X629500Y270000D03*
X610500Y270000D03*
D10*
X657500Y170000D03*
X622500Y170000D03*
D11*
X599500Y170000D03*
X580500Y170000D03*
D10*
X607500Y70000D03*
X572500Y70000D03*
D11*
X549500Y70000D03*
X530500Y70000D03*
D10*
X552500Y760000D03*
X587500Y760000D03*
D11*
X529500Y760000D03*
X510500Y760000D03*
D10*
X612500Y660000D03*
X647500Y660000D03*
D11*
X589500Y660000D03*
X570500Y660000D03*
D10*
X652500Y560000D03*
X687500Y560000D03*
D11*
X629500Y560000D03*
X610500Y560000D03*
D10*
X662500Y460000D03*
X697500Y460000D03*
D11*
X636452Y478288D03*
X617452Y478288D03*
D10*
X662500Y340000D03*
X697500Y340000D03*
D11*
X639500Y340000D03*
X620500Y340000D03*
D10*
X652500Y240000D03*
X687500Y240000D03*
D11*
X629500Y240000D03*
X610500Y240000D03*
D10*
X622500Y140000D03*
X657500Y140000D03*
D11*
X599500Y140000D03*
X580500Y140000D03*
D10*
X572500Y40000D03*
X607500Y40000D03*
D11*
X549500Y40000D03*
X530500Y40000D03*
D12*
X573800Y685796D03*
X573800Y704796D03*
X594800Y695296D03*
D13*
X554244Y704796D03*
X554244Y685796D03*
M02*
