G04 EAGLE Gerber RS-274X export*
G75*
%MOMM*%
%FSLAX34Y34*%
%LPD*%
%INSoldermask Bottom*%
%IPPOS*%
%AMOC8*
5,1,8,0,0,1.08239X$1,22.5*%
G01*
%ADD10C,1.511200*%
%ADD11C,2.703200*%
%ADD12C,1.511200*%
%ADD13C,0.853200*%
%ADD14C,1.727200*%
%ADD15C,3.003200*%
%ADD16C,2.082800*%
%ADD17R,1.703200X1.703200*%
%ADD18R,1.503200X1.803200*%
%ADD19R,1.103200X1.003200*%
%ADD20R,1.803200X1.503200*%
%ADD21C,0.959600*%


D10*
X156540Y455000D02*
X143460Y455000D01*
X223460Y455000D02*
X236540Y455000D01*
D11*
X100000Y667500D03*
X280000Y667500D03*
D10*
X236540Y345000D02*
X223460Y345000D01*
X156540Y345000D02*
X143460Y345000D01*
D11*
X280000Y132500D03*
X100000Y132500D03*
D12*
X421307Y694943D03*
X418693Y665057D03*
X421307Y764943D03*
X418693Y735057D03*
X418693Y134943D03*
X421307Y105057D03*
X418693Y64943D03*
X421307Y35057D03*
X529393Y500607D03*
X550607Y479393D03*
X589393Y440607D03*
X610607Y419393D03*
X610607Y380607D03*
X589393Y359393D03*
X550607Y320607D03*
X529393Y299393D03*
D13*
X55550Y428900D03*
X55550Y371100D03*
D14*
X37620Y648730D02*
X22380Y648730D01*
X22380Y676670D02*
X37620Y676670D01*
D15*
X760000Y400000D03*
D14*
X27620Y128730D02*
X12380Y128730D01*
X12380Y156670D02*
X27620Y156670D01*
D16*
X454152Y563880D03*
X479552Y563880D03*
X454152Y538480D03*
X479552Y538480D03*
X454152Y513080D03*
X479552Y513080D03*
D17*
X587500Y730000D03*
X552500Y730000D03*
D18*
X529500Y730000D03*
X510500Y730000D03*
D17*
X647500Y630000D03*
X612500Y630000D03*
D18*
X589500Y630000D03*
X570500Y630000D03*
D17*
X687500Y530000D03*
X652500Y530000D03*
D18*
X630036Y530704D03*
X611036Y530704D03*
D17*
X697500Y430000D03*
X662500Y430000D03*
D18*
X636452Y445240D03*
X617452Y445240D03*
D17*
X697500Y370000D03*
X662500Y370000D03*
D18*
X657788Y391336D03*
X638788Y391336D03*
D17*
X687500Y270000D03*
X652500Y270000D03*
D18*
X629500Y270000D03*
X610500Y270000D03*
D17*
X657500Y170000D03*
X622500Y170000D03*
D18*
X599500Y170000D03*
X580500Y170000D03*
D17*
X607500Y70000D03*
X572500Y70000D03*
D18*
X549500Y70000D03*
X530500Y70000D03*
D17*
X552500Y760000D03*
X587500Y760000D03*
D18*
X529500Y760000D03*
X510500Y760000D03*
D17*
X612500Y660000D03*
X647500Y660000D03*
D18*
X589500Y660000D03*
X570500Y660000D03*
D17*
X652500Y560000D03*
X687500Y560000D03*
D18*
X629500Y560000D03*
X610500Y560000D03*
D17*
X662500Y460000D03*
X697500Y460000D03*
D18*
X636452Y478288D03*
X617452Y478288D03*
D17*
X662500Y340000D03*
X697500Y340000D03*
D18*
X639500Y340000D03*
X620500Y340000D03*
D17*
X652500Y240000D03*
X687500Y240000D03*
D18*
X629500Y240000D03*
X610500Y240000D03*
D17*
X622500Y140000D03*
X657500Y140000D03*
D18*
X599500Y140000D03*
X580500Y140000D03*
D17*
X572500Y40000D03*
X607500Y40000D03*
D18*
X549500Y40000D03*
X530500Y40000D03*
D19*
X573800Y685796D03*
X573800Y704796D03*
X594800Y695296D03*
D20*
X554244Y704796D03*
X554244Y685796D03*
D21*
X30480Y481584D03*
X60960Y286512D03*
X15240Y329184D03*
X118872Y512064D03*
X76200Y451104D03*
X320040Y188976D03*
X304800Y188976D03*
X320040Y268224D03*
X39624Y615696D03*
X39624Y603504D03*
X21336Y615696D03*
X21336Y603504D03*
X21336Y591312D03*
X39624Y591312D03*
X195072Y420624D03*
X188976Y384048D03*
X137160Y399288D03*
X332232Y545592D03*
X243840Y615696D03*
X118872Y615696D03*
X243840Y195072D03*
X134112Y192024D03*
X73152Y682752D03*
X192024Y649224D03*
X131064Y137160D03*
X310896Y115824D03*
X356616Y545592D03*
X529872Y381000D03*
X347472Y588264D03*
X188976Y691896D03*
X240792Y246888D03*
X182880Y216408D03*
X249936Y146304D03*
X121920Y243840D03*
X21336Y256032D03*
X289560Y188976D03*
X188976Y335280D03*
X393192Y246888D03*
X420624Y246888D03*
X467868Y266700D03*
X522732Y269748D03*
X374904Y301752D03*
X304800Y268224D03*
X304800Y252984D03*
X429768Y426720D03*
X335280Y313944D03*
X374904Y408432D03*
X448056Y27432D03*
X609600Y734568D03*
X347472Y387096D03*
X280416Y445008D03*
X362712Y481584D03*
X271272Y390144D03*
X347472Y512064D03*
X518160Y569976D03*
X326136Y423672D03*
X554736Y274320D03*
X502920Y204216D03*
X469392Y137160D03*
X435864Y188976D03*
X435864Y231648D03*
X408432Y539496D03*
X384048Y649224D03*
X344424Y637032D03*
X368808Y679704D03*
X438912Y661416D03*
X484632Y658368D03*
X487680Y743712D03*
X445008Y713232D03*
X627888Y594360D03*
X560832Y542544D03*
X655320Y490728D03*
X649224Y307848D03*
X606552Y304800D03*
X627888Y198120D03*
X554736Y143256D03*
X600456Y100584D03*
X505968Y51816D03*
X441960Y103632D03*
X569976Y432816D03*
X237744Y490728D03*
X204216Y521208D03*
X121920Y448056D03*
X146304Y295656D03*
X237744Y295656D03*
X219456Y679704D03*
X121920Y573024D03*
X204216Y563880D03*
X158496Y472440D03*
X64008Y509016D03*
X566448Y344424D03*
X554736Y219456D03*
X533400Y207264D03*
X566928Y719328D03*
X548640Y646176D03*
X600456Y502920D03*
X652272Y414528D03*
X582168Y219456D03*
X149352Y505968D03*
X216408Y469392D03*
X164592Y399288D03*
X240792Y399288D03*
X249936Y420624D03*
X259080Y451104D03*
X371856Y249936D03*
X499872Y109728D03*
X566928Y115824D03*
X466344Y286512D03*
X368808Y289560D03*
X504444Y364236D03*
X402336Y396240D03*
X507492Y434340D03*
X498348Y464820D03*
X435864Y164592D03*
X414528Y600456D03*
X57912Y551688D03*
X60960Y225552D03*
X70104Y545592D03*
X45720Y545592D03*
X60960Y213360D03*
X60960Y243840D03*
X54864Y316992D03*
X121920Y478536D03*
X120396Y498348D03*
X420624Y783336D03*
X121920Y320040D03*
X106680Y271272D03*
X438912Y265176D03*
X509016Y234696D03*
X265176Y274320D03*
X630936Y576072D03*
X609600Y676656D03*
X542544Y777240D03*
X633984Y499872D03*
X298704Y512064D03*
X329184Y527304D03*
X301752Y499872D03*
X128016Y408432D03*
X262128Y362712D03*
X121920Y365760D03*
X286512Y344424D03*
X417576Y359664D03*
X469392Y411480D03*
X426720Y344424D03*
X493776Y381000D03*
X79248Y423672D03*
X79248Y368808D03*
X64008Y344424D03*
X121920Y423672D03*
X271272Y536448D03*
X109728Y426720D03*
X283464Y536448D03*
X292608Y630936D03*
X344424Y615696D03*
X417576Y85344D03*
X464820Y681228D03*
X548640Y377952D03*
X448056Y493776D03*
X411480Y493776D03*
X454152Y618744D03*
X417576Y579120D03*
X307848Y484632D03*
X85344Y487680D03*
X307848Y472440D03*
X73152Y484632D03*
X265176Y310896D03*
X76200Y320040D03*
X265176Y323088D03*
X76200Y332232D03*
X560832Y48768D03*
X597408Y121920D03*
X633984Y222504D03*
X633984Y323088D03*
X362712Y435864D03*
X448056Y466344D03*
X374904Y371856D03*
X469392Y307848D03*
X563880Y676656D03*
M02*
