G04 EAGLE Gerber RS-274X export*
G75*
%MOMM*%
%FSLAX34Y34*%
%LPD*%
%INSilkscreen Bottom*%
%IPPOS*%
%AMOC8*
5,1,8,0,0,1.08239X$1,22.5*%
G01*
%ADD10C,0.203200*%
%ADD11R,0.425000X0.325000*%
%ADD12R,0.350000X0.350000*%
%ADD13C,0.152400*%


D10*
X438102Y570230D02*
X438102Y557530D01*
D11*
X575625Y723125D03*
X575625Y736875D03*
D12*
X571750Y730000D03*
D11*
X635625Y623125D03*
X635625Y636875D03*
D12*
X631750Y630000D03*
D11*
X675625Y523125D03*
X675625Y536875D03*
D12*
X671750Y530000D03*
D11*
X685625Y423125D03*
X685625Y436875D03*
D12*
X681750Y430000D03*
D11*
X685625Y363125D03*
X685625Y376875D03*
D12*
X681750Y370000D03*
D11*
X675625Y263125D03*
X675625Y276875D03*
D12*
X671750Y270000D03*
D11*
X645625Y163125D03*
X645625Y176875D03*
D12*
X641750Y170000D03*
D11*
X595625Y63125D03*
X595625Y76875D03*
D12*
X591750Y70000D03*
D11*
X564375Y766875D03*
X564375Y753125D03*
D12*
X568250Y760000D03*
D11*
X624375Y666875D03*
X624375Y653125D03*
D12*
X628250Y660000D03*
D11*
X664375Y566875D03*
X664375Y553125D03*
D12*
X668250Y560000D03*
D11*
X674375Y466875D03*
X674375Y453125D03*
D12*
X678250Y460000D03*
D11*
X674375Y346875D03*
X674375Y333125D03*
D12*
X678250Y340000D03*
D11*
X664375Y246875D03*
X664375Y233125D03*
D12*
X668250Y240000D03*
D11*
X634375Y146875D03*
X634375Y133125D03*
D12*
X638250Y140000D03*
D11*
X584375Y46875D03*
X584375Y33125D03*
D12*
X588250Y40000D03*
D10*
X590800Y681296D02*
X590800Y687296D01*
X590800Y681296D02*
X582800Y681296D01*
X590800Y703296D02*
X590800Y709296D01*
X582800Y709296D01*
D13*
X385064Y586994D02*
X385064Y559054D01*
X367284Y556514D02*
X367184Y556516D01*
X367085Y556522D01*
X366985Y556532D01*
X366887Y556545D01*
X366788Y556563D01*
X366691Y556584D01*
X366595Y556609D01*
X366499Y556638D01*
X366405Y556671D01*
X366312Y556707D01*
X366221Y556747D01*
X366131Y556791D01*
X366043Y556838D01*
X365957Y556888D01*
X365873Y556942D01*
X365791Y556999D01*
X365712Y557059D01*
X365634Y557123D01*
X365560Y557189D01*
X365488Y557258D01*
X365419Y557330D01*
X365353Y557404D01*
X365289Y557482D01*
X365229Y557561D01*
X365172Y557643D01*
X365118Y557727D01*
X365068Y557813D01*
X365021Y557901D01*
X364977Y557991D01*
X364937Y558082D01*
X364901Y558175D01*
X364868Y558269D01*
X364839Y558365D01*
X364814Y558461D01*
X364793Y558558D01*
X364775Y558657D01*
X364762Y558755D01*
X364752Y558855D01*
X364746Y558954D01*
X364744Y559054D01*
X364744Y586994D02*
X364746Y587094D01*
X364752Y587193D01*
X364762Y587293D01*
X364775Y587391D01*
X364793Y587490D01*
X364814Y587587D01*
X364839Y587683D01*
X364868Y587779D01*
X364901Y587873D01*
X364937Y587966D01*
X364977Y588057D01*
X365021Y588147D01*
X365068Y588235D01*
X365118Y588321D01*
X365172Y588405D01*
X365229Y588487D01*
X365289Y588566D01*
X365353Y588644D01*
X365419Y588718D01*
X365488Y588790D01*
X365560Y588859D01*
X365634Y588925D01*
X365712Y588989D01*
X365791Y589049D01*
X365873Y589106D01*
X365957Y589160D01*
X366043Y589210D01*
X366131Y589257D01*
X366221Y589301D01*
X366312Y589341D01*
X366405Y589377D01*
X366499Y589410D01*
X366595Y589439D01*
X366691Y589464D01*
X366788Y589485D01*
X366887Y589503D01*
X366985Y589516D01*
X367085Y589526D01*
X367184Y589532D01*
X367284Y589534D01*
X382524Y589534D02*
X382624Y589532D01*
X382723Y589526D01*
X382823Y589516D01*
X382921Y589503D01*
X383020Y589485D01*
X383117Y589464D01*
X383213Y589439D01*
X383309Y589410D01*
X383403Y589377D01*
X383496Y589341D01*
X383587Y589301D01*
X383677Y589257D01*
X383765Y589210D01*
X383851Y589160D01*
X383935Y589106D01*
X384017Y589049D01*
X384096Y588989D01*
X384174Y588925D01*
X384248Y588859D01*
X384320Y588790D01*
X384389Y588718D01*
X384455Y588644D01*
X384519Y588566D01*
X384579Y588487D01*
X384636Y588405D01*
X384690Y588321D01*
X384740Y588235D01*
X384787Y588147D01*
X384831Y588057D01*
X384871Y587966D01*
X384907Y587873D01*
X384940Y587779D01*
X384969Y587683D01*
X384994Y587587D01*
X385015Y587490D01*
X385033Y587391D01*
X385046Y587293D01*
X385056Y587193D01*
X385062Y587094D01*
X385064Y586994D01*
X385064Y559054D02*
X385062Y558954D01*
X385056Y558855D01*
X385046Y558755D01*
X385033Y558657D01*
X385015Y558558D01*
X384994Y558461D01*
X384969Y558365D01*
X384940Y558269D01*
X384907Y558175D01*
X384871Y558082D01*
X384831Y557991D01*
X384787Y557901D01*
X384740Y557813D01*
X384690Y557727D01*
X384636Y557643D01*
X384579Y557561D01*
X384519Y557482D01*
X384455Y557404D01*
X384389Y557330D01*
X384320Y557258D01*
X384248Y557189D01*
X384174Y557123D01*
X384096Y557059D01*
X384017Y556999D01*
X383935Y556942D01*
X383851Y556888D01*
X383765Y556838D01*
X383677Y556791D01*
X383587Y556747D01*
X383496Y556707D01*
X383403Y556671D01*
X383309Y556638D01*
X383213Y556609D01*
X383117Y556584D01*
X383020Y556563D01*
X382921Y556545D01*
X382823Y556532D01*
X382723Y556522D01*
X382624Y556516D01*
X382524Y556514D01*
X367284Y556514D01*
X367284Y589534D02*
X382524Y589534D01*
X364744Y586994D02*
X364744Y559054D01*
X360680Y559054D02*
X360680Y586994D01*
X340360Y559054D02*
X340362Y558954D01*
X340368Y558855D01*
X340378Y558755D01*
X340391Y558657D01*
X340409Y558558D01*
X340430Y558461D01*
X340455Y558365D01*
X340484Y558269D01*
X340517Y558175D01*
X340553Y558082D01*
X340593Y557991D01*
X340637Y557901D01*
X340684Y557813D01*
X340734Y557727D01*
X340788Y557643D01*
X340845Y557561D01*
X340905Y557482D01*
X340969Y557404D01*
X341035Y557330D01*
X341104Y557258D01*
X341176Y557189D01*
X341250Y557123D01*
X341328Y557059D01*
X341407Y556999D01*
X341489Y556942D01*
X341573Y556888D01*
X341659Y556838D01*
X341747Y556791D01*
X341837Y556747D01*
X341928Y556707D01*
X342021Y556671D01*
X342115Y556638D01*
X342211Y556609D01*
X342307Y556584D01*
X342404Y556563D01*
X342503Y556545D01*
X342601Y556532D01*
X342701Y556522D01*
X342800Y556516D01*
X342900Y556514D01*
X340360Y586994D02*
X340362Y587094D01*
X340368Y587193D01*
X340378Y587293D01*
X340391Y587391D01*
X340409Y587490D01*
X340430Y587587D01*
X340455Y587683D01*
X340484Y587779D01*
X340517Y587873D01*
X340553Y587966D01*
X340593Y588057D01*
X340637Y588147D01*
X340684Y588235D01*
X340734Y588321D01*
X340788Y588405D01*
X340845Y588487D01*
X340905Y588566D01*
X340969Y588644D01*
X341035Y588718D01*
X341104Y588790D01*
X341176Y588859D01*
X341250Y588925D01*
X341328Y588989D01*
X341407Y589049D01*
X341489Y589106D01*
X341573Y589160D01*
X341659Y589210D01*
X341747Y589257D01*
X341837Y589301D01*
X341928Y589341D01*
X342021Y589377D01*
X342115Y589410D01*
X342211Y589439D01*
X342307Y589464D01*
X342404Y589485D01*
X342503Y589503D01*
X342601Y589516D01*
X342701Y589526D01*
X342800Y589532D01*
X342900Y589534D01*
X358140Y589534D02*
X358240Y589532D01*
X358339Y589526D01*
X358439Y589516D01*
X358537Y589503D01*
X358636Y589485D01*
X358733Y589464D01*
X358829Y589439D01*
X358925Y589410D01*
X359019Y589377D01*
X359112Y589341D01*
X359203Y589301D01*
X359293Y589257D01*
X359381Y589210D01*
X359467Y589160D01*
X359551Y589106D01*
X359633Y589049D01*
X359712Y588989D01*
X359790Y588925D01*
X359864Y588859D01*
X359936Y588790D01*
X360005Y588718D01*
X360071Y588644D01*
X360135Y588566D01*
X360195Y588487D01*
X360252Y588405D01*
X360306Y588321D01*
X360356Y588235D01*
X360403Y588147D01*
X360447Y588057D01*
X360487Y587966D01*
X360523Y587873D01*
X360556Y587779D01*
X360585Y587683D01*
X360610Y587587D01*
X360631Y587490D01*
X360649Y587391D01*
X360662Y587293D01*
X360672Y587193D01*
X360678Y587094D01*
X360680Y586994D01*
X360680Y559054D02*
X360678Y558954D01*
X360672Y558855D01*
X360662Y558755D01*
X360649Y558657D01*
X360631Y558558D01*
X360610Y558461D01*
X360585Y558365D01*
X360556Y558269D01*
X360523Y558175D01*
X360487Y558082D01*
X360447Y557991D01*
X360403Y557901D01*
X360356Y557813D01*
X360306Y557727D01*
X360252Y557643D01*
X360195Y557561D01*
X360135Y557482D01*
X360071Y557404D01*
X360005Y557330D01*
X359936Y557258D01*
X359864Y557189D01*
X359790Y557123D01*
X359712Y557059D01*
X359633Y556999D01*
X359551Y556942D01*
X359467Y556888D01*
X359381Y556838D01*
X359293Y556791D01*
X359203Y556747D01*
X359112Y556707D01*
X359019Y556671D01*
X358925Y556638D01*
X358829Y556609D01*
X358733Y556584D01*
X358636Y556563D01*
X358537Y556545D01*
X358439Y556532D01*
X358339Y556522D01*
X358240Y556516D01*
X358140Y556514D01*
X342900Y556514D01*
X342900Y589534D02*
X358140Y589534D01*
X340360Y586994D02*
X340360Y559054D01*
M02*
