G04 EAGLE Gerber RS-274X export*
G75*
%MOMM*%
%FSLAX34Y34*%
%LPD*%
%INSilkscreen Bottom*%
%IPPOS*%
%AMOC8*
5,1,8,0,0,1.08239X$1,22.5*%
G01*
%ADD10C,0.203200*%
%ADD11R,0.425000X0.325000*%
%ADD12R,0.350000X0.350000*%
%ADD13C,0.127000*%
%ADD14C,0.152400*%


D10*
X438102Y570230D02*
X438102Y557530D01*
D11*
X595625Y713125D03*
X595625Y726875D03*
D12*
X591750Y720000D03*
D11*
X645625Y613125D03*
X645625Y626875D03*
D12*
X641750Y620000D03*
D11*
X675625Y513125D03*
X675625Y526875D03*
D12*
X671750Y520000D03*
D11*
X685625Y413125D03*
X685625Y426875D03*
D12*
X681750Y420000D03*
D11*
X685625Y373125D03*
X685625Y386875D03*
D12*
X681750Y380000D03*
D11*
X675625Y273125D03*
X675625Y286875D03*
D12*
X671750Y280000D03*
D11*
X645625Y173125D03*
X645625Y186875D03*
D12*
X641750Y180000D03*
D11*
X595625Y73125D03*
X595625Y86875D03*
D12*
X591750Y80000D03*
D10*
X590800Y681296D02*
X590800Y687296D01*
X590800Y681296D02*
X582800Y681296D01*
X590800Y703296D02*
X590800Y709296D01*
X582800Y709296D01*
D13*
X572000Y742000D02*
X566000Y742000D01*
X572000Y742000D02*
X614000Y742000D01*
X614000Y758000D01*
X566000Y758000D01*
X566000Y748000D01*
X566000Y742000D01*
X566000Y748000D02*
X572000Y742000D01*
X616160Y640448D02*
X622160Y640448D01*
X664160Y640448D01*
X664160Y656448D01*
X616160Y656448D01*
X616160Y646448D01*
X616160Y640448D01*
X616160Y646448D02*
X622160Y640448D01*
X646000Y542000D02*
X652000Y542000D01*
X694000Y542000D01*
X694000Y558000D01*
X646000Y558000D01*
X646000Y548000D01*
X646000Y542000D01*
X646000Y548000D02*
X652000Y542000D01*
X656000Y442000D02*
X662000Y442000D01*
X704000Y442000D01*
X704000Y458000D01*
X656000Y458000D01*
X656000Y448000D01*
X656000Y442000D01*
X656000Y448000D02*
X662000Y442000D01*
X662000Y342000D02*
X656000Y342000D01*
X662000Y342000D02*
X704000Y342000D01*
X704000Y358000D01*
X656000Y358000D01*
X656000Y348000D01*
X656000Y342000D01*
X656000Y348000D02*
X662000Y342000D01*
X652000Y242000D02*
X646000Y242000D01*
X652000Y242000D02*
X694000Y242000D01*
X694000Y258000D01*
X646000Y258000D01*
X646000Y248000D01*
X646000Y242000D01*
X646000Y248000D02*
X652000Y242000D01*
X622000Y142000D02*
X616000Y142000D01*
X622000Y142000D02*
X664000Y142000D01*
X664000Y158000D01*
X616000Y158000D01*
X616000Y148000D01*
X616000Y142000D01*
X616000Y148000D02*
X622000Y142000D01*
X572000Y42000D02*
X566000Y42000D01*
X572000Y42000D02*
X614000Y42000D01*
X614000Y58000D01*
X566000Y58000D01*
X566000Y48000D01*
X566000Y42000D01*
X566000Y48000D02*
X572000Y42000D01*
D14*
X394208Y543814D02*
X394208Y571754D01*
X373888Y543814D02*
X373890Y543714D01*
X373896Y543615D01*
X373906Y543515D01*
X373919Y543417D01*
X373937Y543318D01*
X373958Y543221D01*
X373983Y543125D01*
X374012Y543029D01*
X374045Y542935D01*
X374081Y542842D01*
X374121Y542751D01*
X374165Y542661D01*
X374212Y542573D01*
X374262Y542487D01*
X374316Y542403D01*
X374373Y542321D01*
X374433Y542242D01*
X374497Y542164D01*
X374563Y542090D01*
X374632Y542018D01*
X374704Y541949D01*
X374778Y541883D01*
X374856Y541819D01*
X374935Y541759D01*
X375017Y541702D01*
X375101Y541648D01*
X375187Y541598D01*
X375275Y541551D01*
X375365Y541507D01*
X375456Y541467D01*
X375549Y541431D01*
X375643Y541398D01*
X375739Y541369D01*
X375835Y541344D01*
X375932Y541323D01*
X376031Y541305D01*
X376129Y541292D01*
X376229Y541282D01*
X376328Y541276D01*
X376428Y541274D01*
X373888Y571754D02*
X373890Y571854D01*
X373896Y571953D01*
X373906Y572053D01*
X373919Y572151D01*
X373937Y572250D01*
X373958Y572347D01*
X373983Y572443D01*
X374012Y572539D01*
X374045Y572633D01*
X374081Y572726D01*
X374121Y572817D01*
X374165Y572907D01*
X374212Y572995D01*
X374262Y573081D01*
X374316Y573165D01*
X374373Y573247D01*
X374433Y573326D01*
X374497Y573404D01*
X374563Y573478D01*
X374632Y573550D01*
X374704Y573619D01*
X374778Y573685D01*
X374856Y573749D01*
X374935Y573809D01*
X375017Y573866D01*
X375101Y573920D01*
X375187Y573970D01*
X375275Y574017D01*
X375365Y574061D01*
X375456Y574101D01*
X375549Y574137D01*
X375643Y574170D01*
X375739Y574199D01*
X375835Y574224D01*
X375932Y574245D01*
X376031Y574263D01*
X376129Y574276D01*
X376229Y574286D01*
X376328Y574292D01*
X376428Y574294D01*
X391668Y574294D02*
X391768Y574292D01*
X391867Y574286D01*
X391967Y574276D01*
X392065Y574263D01*
X392164Y574245D01*
X392261Y574224D01*
X392357Y574199D01*
X392453Y574170D01*
X392547Y574137D01*
X392640Y574101D01*
X392731Y574061D01*
X392821Y574017D01*
X392909Y573970D01*
X392995Y573920D01*
X393079Y573866D01*
X393161Y573809D01*
X393240Y573749D01*
X393318Y573685D01*
X393392Y573619D01*
X393464Y573550D01*
X393533Y573478D01*
X393599Y573404D01*
X393663Y573326D01*
X393723Y573247D01*
X393780Y573165D01*
X393834Y573081D01*
X393884Y572995D01*
X393931Y572907D01*
X393975Y572817D01*
X394015Y572726D01*
X394051Y572633D01*
X394084Y572539D01*
X394113Y572443D01*
X394138Y572347D01*
X394159Y572250D01*
X394177Y572151D01*
X394190Y572053D01*
X394200Y571953D01*
X394206Y571854D01*
X394208Y571754D01*
X394208Y543814D02*
X394206Y543714D01*
X394200Y543615D01*
X394190Y543515D01*
X394177Y543417D01*
X394159Y543318D01*
X394138Y543221D01*
X394113Y543125D01*
X394084Y543029D01*
X394051Y542935D01*
X394015Y542842D01*
X393975Y542751D01*
X393931Y542661D01*
X393884Y542573D01*
X393834Y542487D01*
X393780Y542403D01*
X393723Y542321D01*
X393663Y542242D01*
X393599Y542164D01*
X393533Y542090D01*
X393464Y542018D01*
X393392Y541949D01*
X393318Y541883D01*
X393240Y541819D01*
X393161Y541759D01*
X393079Y541702D01*
X392995Y541648D01*
X392909Y541598D01*
X392821Y541551D01*
X392731Y541507D01*
X392640Y541467D01*
X392547Y541431D01*
X392453Y541398D01*
X392357Y541369D01*
X392261Y541344D01*
X392164Y541323D01*
X392065Y541305D01*
X391967Y541292D01*
X391867Y541282D01*
X391768Y541276D01*
X391668Y541274D01*
X376428Y541274D01*
X376428Y574294D02*
X391668Y574294D01*
X373888Y571754D02*
X373888Y543814D01*
X369824Y543814D02*
X369824Y571754D01*
X349504Y543814D02*
X349506Y543714D01*
X349512Y543615D01*
X349522Y543515D01*
X349535Y543417D01*
X349553Y543318D01*
X349574Y543221D01*
X349599Y543125D01*
X349628Y543029D01*
X349661Y542935D01*
X349697Y542842D01*
X349737Y542751D01*
X349781Y542661D01*
X349828Y542573D01*
X349878Y542487D01*
X349932Y542403D01*
X349989Y542321D01*
X350049Y542242D01*
X350113Y542164D01*
X350179Y542090D01*
X350248Y542018D01*
X350320Y541949D01*
X350394Y541883D01*
X350472Y541819D01*
X350551Y541759D01*
X350633Y541702D01*
X350717Y541648D01*
X350803Y541598D01*
X350891Y541551D01*
X350981Y541507D01*
X351072Y541467D01*
X351165Y541431D01*
X351259Y541398D01*
X351355Y541369D01*
X351451Y541344D01*
X351548Y541323D01*
X351647Y541305D01*
X351745Y541292D01*
X351845Y541282D01*
X351944Y541276D01*
X352044Y541274D01*
X349504Y571754D02*
X349506Y571854D01*
X349512Y571953D01*
X349522Y572053D01*
X349535Y572151D01*
X349553Y572250D01*
X349574Y572347D01*
X349599Y572443D01*
X349628Y572539D01*
X349661Y572633D01*
X349697Y572726D01*
X349737Y572817D01*
X349781Y572907D01*
X349828Y572995D01*
X349878Y573081D01*
X349932Y573165D01*
X349989Y573247D01*
X350049Y573326D01*
X350113Y573404D01*
X350179Y573478D01*
X350248Y573550D01*
X350320Y573619D01*
X350394Y573685D01*
X350472Y573749D01*
X350551Y573809D01*
X350633Y573866D01*
X350717Y573920D01*
X350803Y573970D01*
X350891Y574017D01*
X350981Y574061D01*
X351072Y574101D01*
X351165Y574137D01*
X351259Y574170D01*
X351355Y574199D01*
X351451Y574224D01*
X351548Y574245D01*
X351647Y574263D01*
X351745Y574276D01*
X351845Y574286D01*
X351944Y574292D01*
X352044Y574294D01*
X367284Y574294D02*
X367384Y574292D01*
X367483Y574286D01*
X367583Y574276D01*
X367681Y574263D01*
X367780Y574245D01*
X367877Y574224D01*
X367973Y574199D01*
X368069Y574170D01*
X368163Y574137D01*
X368256Y574101D01*
X368347Y574061D01*
X368437Y574017D01*
X368525Y573970D01*
X368611Y573920D01*
X368695Y573866D01*
X368777Y573809D01*
X368856Y573749D01*
X368934Y573685D01*
X369008Y573619D01*
X369080Y573550D01*
X369149Y573478D01*
X369215Y573404D01*
X369279Y573326D01*
X369339Y573247D01*
X369396Y573165D01*
X369450Y573081D01*
X369500Y572995D01*
X369547Y572907D01*
X369591Y572817D01*
X369631Y572726D01*
X369667Y572633D01*
X369700Y572539D01*
X369729Y572443D01*
X369754Y572347D01*
X369775Y572250D01*
X369793Y572151D01*
X369806Y572053D01*
X369816Y571953D01*
X369822Y571854D01*
X369824Y571754D01*
X369824Y543814D02*
X369822Y543714D01*
X369816Y543615D01*
X369806Y543515D01*
X369793Y543417D01*
X369775Y543318D01*
X369754Y543221D01*
X369729Y543125D01*
X369700Y543029D01*
X369667Y542935D01*
X369631Y542842D01*
X369591Y542751D01*
X369547Y542661D01*
X369500Y542573D01*
X369450Y542487D01*
X369396Y542403D01*
X369339Y542321D01*
X369279Y542242D01*
X369215Y542164D01*
X369149Y542090D01*
X369080Y542018D01*
X369008Y541949D01*
X368934Y541883D01*
X368856Y541819D01*
X368777Y541759D01*
X368695Y541702D01*
X368611Y541648D01*
X368525Y541598D01*
X368437Y541551D01*
X368347Y541507D01*
X368256Y541467D01*
X368163Y541431D01*
X368069Y541398D01*
X367973Y541369D01*
X367877Y541344D01*
X367780Y541323D01*
X367681Y541305D01*
X367583Y541292D01*
X367483Y541282D01*
X367384Y541276D01*
X367284Y541274D01*
X352044Y541274D01*
X352044Y574294D02*
X367284Y574294D01*
X349504Y571754D02*
X349504Y543814D01*
M02*
