G04 EAGLE Gerber RS-274X export*
G75*
%MOMM*%
%FSLAX34Y34*%
%LPD*%
%INSolderpaste Bottom*%
%IPPOS*%
%AMOC8*
5,1,8,0,0,1.08239X$1,22.5*%
G01*
%ADD10R,1.500000X1.500000*%
%ADD11R,1.300000X1.600000*%
%ADD12R,0.900000X0.800000*%
%ADD13R,1.600000X1.300000*%
%ADD14R,1.700000X1.250000*%
%ADD15R,1.600200X1.168400*%


D10*
X607500Y720000D03*
X572500Y720000D03*
D11*
X529500Y730000D03*
X510500Y730000D03*
D10*
X657500Y620000D03*
X622500Y620000D03*
D11*
X589500Y630000D03*
X570500Y630000D03*
D10*
X687500Y520000D03*
X652500Y520000D03*
D11*
X630036Y530704D03*
X611036Y530704D03*
D10*
X697500Y420000D03*
X662500Y420000D03*
D11*
X636452Y445240D03*
X617452Y445240D03*
D10*
X697500Y380000D03*
X662500Y380000D03*
D11*
X657788Y401336D03*
X638788Y401336D03*
D10*
X687500Y280000D03*
X652500Y280000D03*
D11*
X629500Y270000D03*
X610500Y270000D03*
D10*
X657500Y180000D03*
X622500Y180000D03*
D11*
X599500Y170000D03*
X580500Y170000D03*
D10*
X607500Y80000D03*
X572500Y80000D03*
D11*
X549500Y70000D03*
X530500Y70000D03*
X529500Y760000D03*
X510500Y760000D03*
X589500Y660000D03*
X570500Y660000D03*
X629500Y560000D03*
X610500Y560000D03*
X636452Y478288D03*
X617452Y478288D03*
X639500Y340000D03*
X620500Y340000D03*
X629500Y240000D03*
X610500Y240000D03*
X599500Y140000D03*
X580500Y140000D03*
X549500Y40000D03*
X530500Y40000D03*
D12*
X573800Y685796D03*
X573800Y704796D03*
X594800Y695296D03*
D13*
X554244Y704796D03*
X554244Y685796D03*
D14*
X576000Y750000D03*
X604000Y750000D03*
X626160Y648448D03*
X654160Y648448D03*
X656000Y550000D03*
X684000Y550000D03*
X666000Y450000D03*
X694000Y450000D03*
X666000Y350000D03*
X694000Y350000D03*
X656000Y250000D03*
X684000Y250000D03*
X626000Y150000D03*
X654000Y150000D03*
X576000Y50000D03*
X604000Y50000D03*
D15*
X384048Y565404D03*
X384048Y550164D03*
X359664Y565404D03*
X359664Y550164D03*
D13*
X298704Y542900D03*
X298704Y523900D03*
M02*
