M48
;GenerationSoftware,Autodesk,EAGLE,9.6.0*%
;CreationDate,2024-10-31T16:30:50Z*%
FMAT,2
ICI,OFF
METRIC,TZ,000.000
T9C0.350
T8C0.400
T7C0.650
T6C0.800
T5C1.000
T4C1.016
T3C1.118
T2C2.800
T1C3.000
%
G90
M71
T1
X7000Y13000
X31000Y13000
X31000Y67000
X7000Y67000
T2
X76000Y40000
T3
X20080Y43000
X17540Y43000
X15000Y43000
X20080Y37000
X17540Y37000
X15000Y37000
X22620Y43000
X22620Y37000
T4
X1476Y67667
X47955Y51308
X45415Y51308
X47955Y53848
X45415Y53848
X47955Y56388
X45415Y56388
X2000Y13333
X2000Y16127
X1476Y64873
T5
X19000Y58300
X16460Y58300
X16460Y21700
X19000Y21700
X21540Y21700
X21540Y58300
T6
X52939Y29939
X58939Y35939
X61061Y38061
X61061Y41939
X58939Y44061
X55061Y47939
X52939Y50061
X42131Y3506
X41869Y6494
X42131Y10506
X41869Y13494
X41869Y73506
X42131Y76494
X41869Y66506
X42131Y69494
X55061Y32061
T7
X5555Y42890
X5555Y37110
T8
X1905Y35682
X1905Y44318
X6085Y44318
X6085Y35682
T9
X55474Y14326
X60046Y10058
X50597Y5182
X44196Y10363
X56998Y43282
X56645Y34442
X55474Y21946
X53340Y20726
X56693Y71933
X54864Y64618
X60046Y50292
X65227Y41453
X58217Y21946
X17374Y33528
X20117Y33223
X14630Y32004
X12802Y33528
X24384Y25298
X26822Y21031
X22860Y50902
X24079Y47854
X16764Y65532
X26213Y15240
X10363Y15240
X12497Y20726
X9144Y33223
X7925Y50597
X9754Y58217
X14326Y57607
X27127Y26213
X27737Y58826
X29566Y51511
X35357Y54864
X29870Y61874
X35052Y63703
X39624Y63703
X37186Y24994
X49987Y10973
X56693Y11582
X46634Y28651
X36881Y28956
X50444Y36424
X40234Y39624
X50749Y43434
X49835Y46482
X43586Y16459
X41453Y60046
X26822Y39014
X31090Y30175
X5791Y55169
X6096Y22555
X7010Y52559
X4572Y52559
X6096Y21336
X6096Y24384
X5486Y31699
X42062Y78334
X17678Y24384
X20117Y24384
X13106Y23165
X14021Y23165
X17678Y55778
X3048Y48158
X14021Y54864
X12192Y54864
X23470Y56693
X43891Y26518
X50902Y23470
X34442Y38710
X28651Y28042
X25908Y29870
X33223Y39014
X63094Y57607
X60960Y67666
X54254Y77724
X63398Y49987
X30480Y49987
X35966Y52730
X31699Y60960
X30785Y49073
X35966Y50902
X32918Y60960
X25298Y36271
X41758Y35966
X46939Y41148
X42672Y34442
X49378Y38100
X12192Y42367
X26518Y55474
X10973Y42672
X26822Y56998
X41758Y8534
X46482Y68123
X54864Y37795
X44806Y49378
X41148Y49378
X45415Y61874
X41758Y56693
X31699Y48158
X14326Y49682
X30785Y47244
X14630Y48463
X24689Y30480
X28042Y32614
X56083Y4877
X59741Y12192
X63398Y22250
X63398Y32309
X36881Y43586
X44806Y46634
X37490Y37186
X46939Y30785
X56388Y67666
X33223Y43891
X15545Y47854
X32309Y42672
X13716Y50565
X24384Y28956
X22250Y32614
X32614Y62179
X34442Y59741
X31254Y54150
X7925Y42367
X7925Y36881
X6401Y34442
X62789Y19812
X60655Y30480
X64922Y30785
X65532Y49073
X56083Y54254
X62789Y59436
X44501Y71323
X48768Y74371
X48463Y65837
X43891Y66142
X28956Y69190
X43586Y23165
X43586Y18898
X46939Y13716
X50292Y20422
X55474Y27432
X31090Y41148
X51816Y56998
X35662Y49378
X31090Y39014
X28042Y44501
X35052Y41148
X60960Y73457
X44806Y2743
X37490Y40843
X33528Y31394
X42977Y42672
X30480Y25298
X30480Y26822
X37490Y30175
X52273Y26975
X46787Y26670
X42062Y24689
X39319Y24689
X28956Y18898
X2134Y25603
X52987Y38100
X12497Y62179
X36271Y60350
X3962Y59131
X2134Y59131
X2134Y60350
X2134Y61570
X3962Y60350
X3962Y61570
X32004Y26822
X30480Y18898
X32004Y18898
X7620Y45110
X1524Y32918
X20422Y55778
M30