M48
;GenerationSoftware,Autodesk,EAGLE,9.6.0*%
;CreationDate,2024-06-15T17:29:41Z*%
FMAT,2
ICI,OFF
METRIC,TZ,000.000
T7C0.350
T6C0.400
T5C0.650
T4C0.800
T3C1.016
T2C2.500
T1C2.800
%
G90
M71
T1
X76000Y40000
T2
X10000Y66750
X28000Y66750
X28000Y13250
X10000Y13250
T3
X45415Y56388
X2000Y15667
X2000Y12873
X3000Y67667
X3000Y64873
X45415Y51308
X47955Y53848
X45415Y53848
X47955Y56388
X47955Y51308
T4
X55061Y32061
X58939Y35939
X61061Y38061
X61061Y41939
X58939Y44061
X52939Y29939
X52939Y50061
X42131Y3506
X41869Y6494
X42131Y10506
X41869Y13494
X41869Y73506
X42131Y76494
X41869Y66506
X42131Y69494
X15000Y34500
X23000Y34500
X23000Y45500
X15000Y45500
X55061Y47939
T5
X5555Y37110
X5555Y42890
T6
X1905Y44318
X1905Y35682
X6085Y35682
X6085Y44318
T7
X37490Y30175
X30480Y26822
X30480Y25298
X42977Y42672
X33528Y31394
X37490Y40843
X44806Y2743
X60960Y73457
X34747Y38710
X28042Y44501
X36271Y48158
X27127Y39014
X34747Y51206
X51816Y56998
X32614Y42367
X55474Y27432
X50292Y20422
X46939Y13716
X43586Y18898
X43586Y23165
X40843Y53950
X38405Y64922
X34442Y63703
X36881Y67970
X43891Y66142
X48463Y65837
X48768Y74371
X44501Y71323
X62789Y59436
X56083Y54254
X65532Y49073
X64922Y30785
X60655Y30480
X62789Y19812
X55474Y14326
X60046Y10058
X50597Y5182
X44196Y10363
X56998Y43282
X23774Y49073
X20422Y52121
X12192Y44806
X14630Y29566
X23774Y29566
X21946Y67970
X12192Y57302
X20422Y56388
X15850Y47244
X6401Y50902
X56645Y34442
X55474Y21946
X53340Y20726
X56693Y71933
X54864Y64618
X60046Y50292
X65227Y41453
X58217Y21946
X14935Y50597
X21641Y46939
X16459Y39929
X24079Y39929
X24994Y42062
X25908Y45110
X37186Y24994
X49987Y10973
X56693Y11582
X46634Y28651
X36881Y28956
X3048Y48158
X40234Y39624
X50749Y43434
X49835Y46482
X43586Y16459
X41453Y60046
X5791Y55169
X6096Y22555
X7010Y54559
X4572Y54559
X6096Y21336
X6096Y24384
X5486Y31699
X12192Y47854
X12040Y49835
X42062Y78334
X12192Y32004
X10668Y27127
X43891Y26518
X50902Y23470
X26518Y27432
X63094Y57607
X60960Y67666
X54254Y77724
X63398Y49987
X29870Y51206
X32918Y52730
X30175Y49987
X12802Y40843
X26213Y36271
X12192Y36576
X28651Y34442
X41758Y35966
X46939Y41148
X42672Y34442
X49378Y38100
X7925Y42367
X7925Y36881
X6401Y34442
X12192Y42367
X27127Y53645
X10973Y42672
X28346Y53645
X29261Y63094
X34442Y61570
X41758Y8534
X46482Y68123
X54864Y37795
X44806Y49378
X41148Y49378
X45415Y61874
X41758Y57912
X30785Y48463
X8534Y48768
X30785Y47244
X7315Y48463
X26518Y31090
X7620Y32004
X26518Y32309
X7620Y33223
X56083Y4877
X59741Y12192
X63398Y22250
X63398Y32309
X36271Y43586
X44806Y46634
X37490Y37186
X46939Y30785
X56388Y67666
X52273Y26975
X46787Y26670
X42062Y24689
X39319Y24689
X18898Y33528
X28956Y18898
X2134Y25603
X12192Y24384
X24994Y14630
X18288Y21641
X24079Y24689
X18898Y69190
X34747Y58826
X52987Y38100
X35662Y54559
X31090Y11582
X13106Y13716
X19202Y64922
X7315Y68275
X13411Y19202
X24384Y19507
X11887Y61570
X24384Y61570
X33223Y54559
X13716Y39929
X18898Y38405
X19507Y42062
X3962Y59131
X2134Y59131
X2134Y60350
X2134Y61570
X3962Y60350
X3962Y61570
X32004Y26822
X30480Y18898
X32004Y18898
X7620Y45110
X11887Y51206
X1524Y32918
X6096Y28651
X50444Y36424
M30